{"glyphs":{"0":{"ha":833,"x_min":99,"x_max":735,"o":"m 417 -14 q 248 24 319 -14 q 138 129 176 61 q 99 288 99 197 l 99 726 q 138 885 99 818 q 248 990 176 953 q 417 1028 319 1028 q 586 990 515 1028 q 696 885 657 953 q 735 726 735 818 l 735 288 q 696 129 735 197 q 585 24 657 61 q 417 -14 514 -14 m 417 125 q 536 170 492 125 q 581 288 581 215 l 581 726 q 536 844 581 799 q 417 889 492 889 q 297 844 342 889 q 253 726 253 799 l 253 288 q 297 170 253 215 q 417 125 342 125 m 417 419 q 352 444 376 419 q 328 511 328 469 q 352 576 328 551 q 417 600 376 600 q 481 576 457 600 q 506 511 506 551 q 481 444 506 469 q 417 419 457 419 z "},"1":{"ha":833,"x_min":118,"x_max":763,"o":"m 119 0 l 119 143 l 385 143 l 385 872 l 118 672 l 118 844 l 350 1014 l 547 1014 l 547 143 l 763 143 l 763 0 l 119 0 z "},"2":{"ha":833,"x_min":86,"x_max":740,"o":"m 114 0 l 114 158 l 429 479 q 531 609 499 551 q 564 725 564 667 q 524 841 564 799 q 414 883 483 883 q 292 839 336 883 q 249 717 249 794 l 86 717 q 128 882 88 813 q 243 990 169 951 q 415 1028 317 1028 q 580 992 510 1028 q 688 890 650 956 q 726 736 726 825 q 679 557 726 644 q 526 365 632 469 l 306 146 l 740 146 l 740 0 l 114 0 z "},"3":{"ha":833,"x_min":86,"x_max":726,"o":"m 406 -14 q 237 22 308 -14 q 126 124 165 58 q 86 278 86 190 l 249 278 q 290 165 249 206 q 407 125 332 125 q 524 167 483 125 q 565 278 565 208 l 565 356 q 524 468 565 428 q 407 508 482 508 l 296 508 l 296 657 l 526 874 l 131 874 l 131 1014 l 690 1014 l 690 865 l 408 603 l 408 649 q 641 569 556 649 q 726 356 726 490 l 726 278 q 688 124 726 190 q 576 22 649 58 q 406 -14 503 -14 z "},"4":{"ha":833,"x_min":96,"x_max":710,"o":"m 549 0 l 549 206 l 96 206 l 96 444 l 488 1014 l 668 1014 l 251 403 l 251 350 l 549 350 l 549 583 l 710 583 l 710 0 l 549 0 z "},"5":{"ha":833,"x_min":103,"x_max":731,"o":"m 414 -14 q 195 55 279 -14 q 103 240 111 124 l 264 240 q 308 158 269 188 q 415 128 347 128 q 531 168 492 128 q 569 281 569 208 l 569 379 q 531 492 569 453 q 417 532 492 532 q 335 511 369 532 q 283 456 300 490 l 125 456 l 132 1014 l 694 1014 l 694 868 l 286 868 l 282 563 l 322 563 l 282 526 q 333 629 282 592 q 469 667 383 667 q 662 591 593 667 q 731 379 731 515 l 731 281 q 647 65 731 144 q 414 -14 564 -14 z "},"6":{"ha":833,"x_min":81,"x_max":753,"o":"m 418 -14 q 240 28 317 -14 q 122 147 164 71 q 81 324 81 222 q 104 474 81 396 q 171 621 128 551 l 414 1014 l 593 1014 l 297 544 l 304 539 q 379 603 332 581 q 483 625 426 625 q 626 586 565 625 q 719 478 686 547 q 753 313 753 408 q 711 142 753 215 q 594 27 669 68 q 418 -14 519 -14 m 417 125 q 544 176 496 125 q 593 313 593 228 q 544 449 593 397 q 417 500 496 500 q 289 449 338 500 q 240 313 240 397 q 289 176 240 228 q 417 125 338 125 z "},"7":{"ha":833,"x_min":90,"x_max":753,"o":"m 225 0 l 590 864 l 251 864 l 251 717 l 90 717 l 90 1014 l 753 1014 l 753 860 l 399 0 l 225 0 z "},"8":{"ha":833,"x_min":94,"x_max":739,"o":"m 417 -14 q 246 20 318 -14 q 134 116 174 54 q 94 261 94 178 q 145 418 94 353 q 299 531 196 483 l 449 599 q 531 666 501 624 q 561 760 561 708 q 522 854 561 819 q 417 889 483 889 q 310 853 350 889 q 271 758 271 818 q 301 667 271 708 q 382 600 331 625 l 532 532 q 690 416 640 482 q 739 261 739 350 q 652 60 739 135 q 417 -14 565 -14 m 417 125 q 536 165 492 125 q 581 269 581 206 q 550 366 581 321 q 467 436 519 411 l 310 510 q 161 619 211 557 q 111 767 111 681 q 149 903 111 844 q 255 996 186 963 q 417 1029 324 1029 q 578 996 510 1029 q 683 903 646 963 q 721 767 721 844 q 672 618 721 679 q 522 508 622 557 l 364 435 q 283 367 313 411 q 253 272 253 322 q 297 165 253 206 q 417 125 342 125 z "},"9":{"ha":833,"x_min":81,"x_max":753,"o":"m 240 0 l 536 469 l 529 475 q 454 411 501 433 q 350 389 407 389 q 208 428 268 389 q 114 537 147 467 q 81 701 81 607 q 122 873 81 800 q 240 987 164 946 q 415 1028 315 1028 q 594 985 518 1028 q 711 868 669 943 q 753 690 753 793 q 730 540 753 618 q 663 393 707 463 l 419 0 l 240 0 m 417 514 q 544 565 496 514 q 593 701 593 617 q 544 838 593 786 q 417 889 496 889 q 289 838 338 889 q 240 701 240 786 q 289 565 240 617 q 417 514 338 514 z "},"A":{"ha":833,"x_min":54,"x_max":779,"o":"m 54 0 l 311 1014 l 522 1014 l 779 0 l 615 0 l 556 251 l 278 251 l 219 0 l 54 0 m 307 385 l 525 385 l 461 667 q 433 796 444 739 q 417 875 421 853 q 401 797 413 853 q 374 668 390 740 l 307 385 z "},"Á":{"ha":833,"x_min":54,"x_max":779,"o":"m 54 0 l 311 1014 l 522 1014 l 779 0 l 615 0 l 556 251 l 278 251 l 219 0 l 54 0 m 307 385 l 525 385 l 461 667 q 433 796 444 739 q 417 875 421 853 q 401 797 413 853 q 374 668 390 740 l 307 385 m 318 1125 l 464 1319 l 639 1319 l 481 1125 l 318 1125 z "},"Ă":{"ha":833,"x_min":54,"x_max":779,"o":"m 54 0 l 311 1014 l 522 1014 l 779 0 l 615 0 l 556 251 l 278 251 l 219 0 l 54 0 m 307 385 l 525 385 l 461 667 q 433 796 444 739 q 417 875 421 853 q 401 797 413 853 q 374 668 390 740 l 307 385 m 417 1115 q 245 1172 311 1115 q 179 1319 179 1228 l 306 1319 q 335 1243 306 1272 q 415 1214 365 1214 q 498 1243 467 1214 q 529 1319 529 1272 l 654 1319 q 589 1172 654 1228 q 417 1115 524 1115 z "},"Ắ":{"ha":833,"x_min":54,"x_max":779,"o":"m 325 1253 l 469 1417 l 625 1417 l 469 1253 l 325 1253 m 375 1083 q 222 1133 279 1083 q 165 1267 165 1182 l 278 1267 q 303 1203 278 1226 q 375 1179 329 1179 l 457 1179 q 528 1203 503 1179 q 554 1267 554 1226 l 667 1267 q 610 1133 667 1182 q 457 1083 554 1083 l 375 1083 m 54 0 l 311 1014 l 522 1014 l 779 0 l 615 0 l 556 251 l 278 251 l 219 0 l 54 0 m 307 385 l 525 385 l 461 667 q 433 796 444 739 q 417 875 421 853 q 401 797 413 853 q 374 668 390 740 l 307 385 z "},"Ặ":{"ha":833,"x_min":54,"x_max":779,"o":"m 417 1115 q 245 1172 311 1115 q 179 1319 179 1228 l 306 1319 q 335 1243 306 1272 q 415 1214 365 1214 q 498 1243 467 1214 q 529 1319 529 1272 l 654 1319 q 589 1172 654 1228 q 417 1115 524 1115 m 54 0 l 311 1014 l 522 1014 l 779 0 l 615 0 l 556 251 l 278 251 l 219 0 l 54 0 m 307 385 l 525 385 l 461 667 q 433 796 444 739 q 417 875 421 853 q 401 797 413 853 q 374 668 390 740 l 307 385 m 431 -308 q 350 -282 379 -308 q 321 -211 321 -256 q 350 -140 321 -167 q 431 -112 379 -112 q 511 -140 482 -112 q 540 -211 540 -167 q 511 -282 540 -256 q 431 -308 482 -308 z "},"Ằ":{"ha":833,"x_min":54,"x_max":779,"o":"m 375 1083 q 222 1133 279 1083 q 165 1267 165 1182 l 278 1267 q 303 1203 278 1226 q 375 1179 329 1179 l 457 1179 q 528 1203 503 1179 q 554 1267 554 1226 l 667 1267 q 610 1133 667 1182 q 457 1083 554 1083 l 375 1083 m 368 1253 l 233 1417 l 381 1417 l 507 1253 l 368 1253 m 54 0 l 311 1014 l 522 1014 l 779 0 l 615 0 l 556 251 l 278 251 l 219 0 l 54 0 m 307 385 l 525 385 l 461 667 q 433 796 444 739 q 417 875 421 853 q 401 797 413 853 q 374 668 390 740 l 307 385 z "},"Ẳ":{"ha":833,"x_min":54,"x_max":779,"o":"m 350 1228 l 401 1290 q 413 1314 413 1303 q 396 1326 413 1326 l 297 1326 l 297 1417 l 433 1417 q 504 1397 479 1417 q 529 1339 529 1376 q 522 1300 529 1318 q 503 1267 514 1282 l 474 1228 l 350 1228 m 375 1083 q 222 1133 279 1083 q 165 1267 165 1182 l 278 1267 q 303 1203 278 1226 q 375 1179 329 1179 l 457 1179 q 528 1203 503 1179 q 554 1267 554 1226 l 667 1267 q 610 1133 667 1182 q 457 1083 554 1083 l 375 1083 m 54 0 l 311 1014 l 522 1014 l 779 0 l 615 0 l 556 251 l 278 251 l 219 0 l 54 0 m 307 385 l 525 385 l 461 667 q 433 796 444 739 q 417 875 421 853 q 401 797 413 853 q 374 668 390 740 l 307 385 z "},"Ẵ":{"ha":833,"x_min":54,"x_max":779,"o":"m 371 1083 q 230 1124 282 1083 q 178 1244 178 1165 l 290 1244 q 311 1195 290 1211 q 367 1179 332 1179 l 467 1179 q 522 1195 501 1179 q 543 1244 543 1211 l 656 1244 q 603 1124 656 1165 q 463 1083 551 1083 l 371 1083 m 525 1272 q 455 1281 485 1272 q 403 1301 425 1289 q 361 1321 381 1313 q 319 1329 342 1329 q 292 1319 303 1329 q 281 1290 281 1308 l 281 1282 l 178 1282 l 178 1290 q 214 1383 178 1349 q 310 1417 250 1417 q 381 1408 351 1417 q 431 1388 410 1399 q 472 1367 453 1376 q 514 1358 492 1358 q 542 1369 532 1358 q 553 1397 553 1381 l 553 1406 l 656 1406 l 656 1397 q 621 1306 656 1340 q 525 1272 586 1272 m 54 0 l 311 1014 l 522 1014 l 779 0 l 615 0 l 556 251 l 278 251 l 219 0 l 54 0 m 307 385 l 525 385 l 461 667 q 433 796 444 739 q 417 875 421 853 q 401 797 413 853 q 374 668 390 740 l 307 385 z "},"Ǎ":{"ha":833,"x_min":54,"x_max":779,"o":"m 54 0 l 311 1014 l 522 1014 l 779 0 l 615 0 l 556 251 l 278 251 l 219 0 l 54 0 m 307 385 l 525 385 l 461 667 q 433 796 444 739 q 417 875 421 853 q 401 797 413 853 q 374 668 390 740 l 307 385 m 342 1125 l 150 1319 l 310 1319 l 418 1217 l 521 1319 l 683 1319 l 492 1125 l 342 1125 z "},"Â":{"ha":833,"x_min":54,"x_max":779,"o":"m 54 0 l 311 1014 l 522 1014 l 779 0 l 615 0 l 556 251 l 278 251 l 219 0 l 54 0 m 307 385 l 525 385 l 461 667 q 433 796 444 739 q 417 875 421 853 q 401 797 413 853 q 374 668 390 740 l 307 385 m 150 1125 l 342 1319 l 492 1319 l 683 1125 l 524 1125 l 415 1228 l 313 1125 l 150 1125 z "},"Ấ":{"ha":833,"x_min":54,"x_max":888,"o":"m 574 1253 l 719 1417 l 888 1417 l 732 1253 l 574 1253 m 151 1083 l 342 1278 l 492 1278 l 683 1083 l 521 1083 l 417 1186 l 311 1083 l 151 1083 m 54 0 l 311 1014 l 522 1014 l 779 0 l 615 0 l 556 251 l 278 251 l 219 0 l 54 0 m 307 385 l 525 385 l 461 667 q 433 796 444 739 q 417 875 421 853 q 401 797 413 853 q 374 668 390 740 l 307 385 z "},"Ậ":{"ha":833,"x_min":54,"x_max":779,"o":"m 150 1125 l 342 1319 l 492 1319 l 683 1125 l 524 1125 l 415 1228 l 313 1125 l 150 1125 m 54 0 l 311 1014 l 522 1014 l 779 0 l 615 0 l 556 251 l 278 251 l 219 0 l 54 0 m 307 385 l 525 385 l 461 667 q 433 796 444 739 q 417 875 421 853 q 401 797 413 853 q 374 668 390 740 l 307 385 m 431 -308 q 350 -282 379 -308 q 321 -211 321 -256 q 350 -140 321 -167 q 431 -112 379 -112 q 511 -140 482 -112 q 540 -211 540 -167 q 511 -282 540 -256 q 431 -308 482 -308 z "},"Ầ":{"ha":833,"x_min":54,"x_max":781,"o":"m 624 1253 l 461 1417 l 628 1417 l 781 1253 l 624 1253 m 151 1083 l 342 1278 l 492 1278 l 683 1083 l 521 1083 l 417 1186 l 311 1083 l 151 1083 m 54 0 l 311 1014 l 522 1014 l 779 0 l 615 0 l 556 251 l 278 251 l 219 0 l 54 0 m 307 385 l 525 385 l 461 667 q 433 796 444 739 q 417 875 421 853 q 401 797 413 853 q 374 668 390 740 l 307 385 z "},"Ẩ":{"ha":833,"x_min":54,"x_max":789,"o":"m 594 1217 l 653 1274 q 667 1303 667 1288 q 640 1325 667 1325 l 546 1325 l 546 1417 l 669 1417 q 756 1390 724 1417 q 789 1318 789 1364 q 782 1282 789 1300 q 763 1253 775 1264 l 722 1217 l 594 1217 m 151 1083 l 342 1278 l 492 1278 l 683 1083 l 521 1083 l 417 1186 l 311 1083 l 151 1083 m 54 0 l 311 1014 l 522 1014 l 779 0 l 615 0 l 556 251 l 278 251 l 219 0 l 54 0 m 307 385 l 525 385 l 461 667 q 433 796 444 739 q 417 875 421 853 q 401 797 413 853 q 374 668 390 740 l 307 385 z "},"Ẫ":{"ha":833,"x_min":54,"x_max":779,"o":"m 525 1272 q 455 1281 485 1272 q 403 1301 425 1289 q 361 1321 381 1313 q 319 1329 342 1329 q 292 1319 303 1329 q 281 1290 281 1308 l 281 1282 l 178 1282 l 178 1290 q 214 1383 178 1349 q 310 1417 250 1417 q 381 1408 351 1417 q 431 1388 410 1399 q 472 1367 453 1376 q 514 1358 492 1358 q 542 1369 532 1358 q 553 1397 553 1381 l 553 1406 l 656 1406 l 656 1397 q 621 1306 656 1340 q 525 1272 586 1272 m 151 1083 l 300 1232 l 533 1232 l 682 1083 l 521 1083 l 417 1186 l 311 1083 l 151 1083 m 54 0 l 311 1014 l 522 1014 l 779 0 l 615 0 l 556 251 l 278 251 l 219 0 l 54 0 m 307 385 l 525 385 l 461 667 q 433 796 444 739 q 417 875 421 853 q 401 797 413 853 q 374 668 390 740 l 307 385 z "},"Ä":{"ha":833,"x_min":54,"x_max":779,"o":"m 54 0 l 311 1014 l 522 1014 l 779 0 l 615 0 l 556 251 l 278 251 l 219 0 l 54 0 m 307 385 l 525 385 l 461 667 q 433 796 444 739 q 417 875 421 853 q 401 797 413 853 q 374 668 390 740 l 307 385 m 578 1125 q 506 1151 532 1125 q 479 1222 479 1178 q 506 1294 479 1268 q 578 1321 532 1321 q 649 1294 622 1321 q 676 1222 676 1268 q 649 1151 676 1178 q 578 1125 622 1125 m 256 1125 q 184 1151 211 1125 q 157 1222 157 1178 q 184 1294 157 1268 q 256 1321 211 1321 q 328 1294 301 1321 q 354 1222 354 1268 q 328 1151 354 1178 q 256 1125 301 1125 z "},"Ạ":{"ha":833,"x_min":54,"x_max":779,"o":"m 54 0 l 311 1014 l 522 1014 l 779 0 l 615 0 l 556 251 l 278 251 l 219 0 l 54 0 m 307 385 l 525 385 l 461 667 q 433 796 444 739 q 417 875 421 853 q 401 797 413 853 q 374 668 390 740 l 307 385 m 431 -308 q 350 -282 379 -308 q 321 -211 321 -256 q 350 -140 321 -167 q 431 -112 379 -112 q 511 -140 482 -112 q 540 -211 540 -167 q 511 -282 540 -256 q 431 -308 482 -308 z "},"À":{"ha":833,"x_min":54,"x_max":779,"o":"m 54 0 l 311 1014 l 522 1014 l 779 0 l 615 0 l 556 251 l 278 251 l 219 0 l 54 0 m 307 385 l 525 385 l 461 667 q 433 796 444 739 q 417 875 421 853 q 401 797 413 853 q 374 668 390 740 l 307 385 m 353 1125 l 192 1319 l 371 1319 l 519 1125 l 353 1125 z "},"Ả":{"ha":833,"x_min":54,"x_max":779,"o":"m 54 0 l 311 1014 l 522 1014 l 779 0 l 615 0 l 556 251 l 278 251 l 219 0 l 54 0 m 307 385 l 525 385 l 461 667 q 433 796 444 739 q 417 875 421 853 q 401 797 413 853 q 374 668 390 740 l 307 385 m 372 1132 l 442 1217 q 461 1258 461 1242 q 421 1285 461 1285 l 310 1285 l 310 1388 l 456 1388 q 549 1358 514 1388 q 585 1278 585 1328 q 558 1199 585 1232 l 506 1132 l 372 1132 z "},"Ā":{"ha":833,"x_min":54,"x_max":779,"o":"m 54 0 l 311 1014 l 522 1014 l 779 0 l 615 0 l 556 251 l 278 251 l 219 0 l 54 0 m 307 385 l 525 385 l 461 667 q 433 796 444 739 q 417 875 421 853 q 401 797 413 853 q 374 668 390 740 l 307 385 m 182 1154 l 182 1281 l 651 1281 l 651 1154 l 182 1154 z "},"Ą":{"ha":833,"x_min":54,"x_max":804,"o":"m 678 -296 q 550 -256 597 -296 q 503 -156 503 -217 q 536 -69 503 -112 q 636 14 569 -25 l 747 14 l 719 -10 q 663 -71 682 -43 q 644 -124 644 -99 q 664 -167 644 -149 q 715 -185 683 -185 l 804 -185 l 804 -296 l 678 -296 m 54 0 l 311 1014 l 522 1014 l 779 0 l 615 0 l 556 251 l 278 251 l 219 0 l 54 0 m 307 385 l 525 385 l 461 667 q 433 796 444 739 q 417 875 421 853 q 401 797 413 853 q 374 668 390 740 l 307 385 z "},"Å":{"ha":833,"x_min":54,"x_max":779,"o":"m 54 0 l 311 1014 l 522 1014 l 779 0 l 615 0 l 556 251 l 278 251 l 219 0 l 54 0 m 307 385 l 525 385 l 461 667 q 433 796 444 739 q 417 875 421 853 q 401 797 413 853 q 374 668 390 740 l 307 385 m 417 1056 q 287 1101 336 1056 q 238 1222 238 1147 q 287 1343 238 1297 q 417 1389 336 1389 q 547 1343 497 1389 q 596 1222 596 1297 q 547 1101 596 1147 q 417 1056 497 1056 m 417 1140 q 477 1163 454 1140 q 500 1222 500 1185 q 477 1283 500 1260 q 417 1306 454 1306 q 356 1283 379 1306 q 333 1222 333 1260 q 356 1163 333 1185 q 417 1140 379 1140 z "},"Ã":{"ha":833,"x_min":54,"x_max":779,"o":"m 54 0 l 311 1014 l 522 1014 l 779 0 l 615 0 l 556 251 l 278 251 l 219 0 l 54 0 m 307 385 l 525 385 l 461 667 q 433 796 444 739 q 417 875 421 853 q 401 797 413 853 q 374 668 390 740 l 307 385 m 514 1122 q 444 1136 471 1122 q 400 1168 418 1150 q 365 1200 382 1186 q 326 1214 349 1214 q 297 1201 308 1214 q 285 1167 285 1189 l 285 1129 l 182 1129 l 182 1175 q 220 1282 182 1242 q 319 1322 258 1322 q 389 1308 363 1322 q 433 1276 415 1294 q 468 1244 451 1258 q 507 1231 485 1231 q 538 1242 526 1231 q 549 1275 549 1253 l 549 1315 l 651 1315 l 651 1269 q 614 1163 651 1203 q 514 1122 576 1122 z "},"Æ":{"ha":833,"x_min":24,"x_max":797,"o":"m 24 0 l 219 1014 l 797 1014 l 797 874 l 556 874 l 556 593 l 763 593 l 763 449 l 556 449 l 556 140 l 797 140 l 797 0 l 413 0 l 413 258 l 229 258 l 182 0 l 24 0 m 250 381 l 413 381 l 413 874 l 339 874 l 250 381 z "},"Ǽ":{"ha":833,"x_min":24,"x_max":797,"o":"m 24 0 l 219 1014 l 797 1014 l 797 874 l 556 874 l 556 593 l 763 593 l 763 449 l 556 449 l 556 140 l 797 140 l 797 0 l 413 0 l 413 258 l 229 258 l 182 0 l 24 0 m 250 381 l 413 381 l 413 874 l 339 874 l 250 381 m 325 1125 l 471 1319 l 646 1319 l 488 1125 l 325 1125 z "},"B":{"ha":833,"x_min":113,"x_max":754,"o":"m 113 0 l 113 1014 l 417 1014 q 647 944 563 1014 q 732 753 732 875 q 701 634 732 685 q 618 556 671 583 q 497 528 565 528 l 497 538 q 630 510 572 539 q 721 424 688 481 q 754 288 754 367 q 715 135 754 200 q 605 35 676 69 q 435 0 533 0 l 113 0 m 269 138 l 424 138 q 547 179 501 138 q 593 294 593 221 q 547 415 593 369 q 424 460 501 460 l 269 460 l 269 138 m 269 593 l 415 593 q 528 631 488 593 q 569 735 569 669 q 528 839 569 801 q 417 876 488 876 l 269 876 l 269 593 z "},"C":{"ha":833,"x_min":106,"x_max":738,"o":"m 422 -14 q 255 22 326 -14 q 144 126 183 58 q 106 283 106 193 l 106 731 q 144 889 106 822 q 255 992 183 956 q 422 1028 326 1028 q 590 991 519 1028 q 699 888 660 954 q 738 731 738 822 l 576 731 q 536 845 576 806 q 422 885 496 885 q 308 845 349 885 q 267 731 267 806 l 267 283 q 308 169 267 210 q 422 129 349 129 q 536 169 496 129 q 576 283 576 210 l 738 283 q 699 127 738 194 q 590 23 660 60 q 422 -14 519 -14 z "},"Ć":{"ha":833,"x_min":106,"x_max":738,"o":"m 422 -14 q 255 22 326 -14 q 144 126 183 58 q 106 283 106 193 l 106 731 q 144 889 106 822 q 255 992 183 956 q 422 1028 326 1028 q 590 991 519 1028 q 699 888 660 954 q 738 731 738 822 l 576 731 q 536 845 576 806 q 422 885 496 885 q 308 845 349 885 q 267 731 267 806 l 267 283 q 308 169 267 210 q 422 129 349 129 q 536 169 496 129 q 576 283 576 210 l 738 283 q 699 127 738 194 q 590 23 660 60 q 422 -14 519 -14 m 325 1125 l 471 1319 l 646 1319 l 488 1125 l 325 1125 z "},"Č":{"ha":833,"x_min":106,"x_max":738,"o":"m 422 -14 q 255 22 326 -14 q 144 126 183 58 q 106 283 106 193 l 106 731 q 144 889 106 822 q 255 992 183 956 q 422 1028 326 1028 q 590 991 519 1028 q 699 888 660 954 q 738 731 738 822 l 576 731 q 536 845 576 806 q 422 885 496 885 q 308 845 349 885 q 267 731 267 806 l 267 283 q 308 169 267 210 q 422 129 349 129 q 536 169 496 129 q 576 283 576 210 l 738 283 q 699 127 738 194 q 590 23 660 60 q 422 -14 519 -14 m 349 1125 l 157 1319 l 317 1319 l 425 1217 l 528 1319 l 690 1319 l 499 1125 l 349 1125 z "},"Ç":{"ha":833,"x_min":106,"x_max":738,"o":"m 286 -296 l 286 -210 l 389 -210 q 441 -194 421 -210 q 461 -160 461 -178 q 421 -114 461 -132 q 308 -96 381 -96 l 357 31 l 446 31 l 418 -51 q 499 -69 457 -54 q 569 -110 540 -83 q 597 -175 597 -136 q 549 -260 597 -224 q 419 -296 500 -296 l 286 -296 m 422 -14 q 255 22 326 -14 q 144 126 183 58 q 106 283 106 193 l 106 731 q 144 889 106 822 q 255 992 183 956 q 422 1028 326 1028 q 590 991 519 1028 q 699 888 660 954 q 738 731 738 821 l 576 731 q 536 845 576 806 q 422 885 496 885 q 308 845 349 885 q 267 731 267 806 l 267 283 q 308 169 267 210 q 422 129 349 129 q 536 169 496 129 q 576 283 576 210 l 738 283 q 699 127 738 194 q 590 23 660 60 q 422 -14 519 -14 z "},"Ĉ":{"ha":833,"x_min":106,"x_max":738,"o":"m 422 -14 q 255 22 326 -14 q 144 126 183 58 q 106 283 106 193 l 106 731 q 144 889 106 822 q 255 992 183 956 q 422 1028 326 1028 q 590 991 519 1028 q 699 888 660 954 q 738 731 738 822 l 576 731 q 536 845 576 806 q 422 885 496 885 q 308 845 349 885 q 267 731 267 806 l 267 283 q 308 169 267 210 q 422 129 349 129 q 536 169 496 129 q 576 283 576 210 l 738 283 q 699 127 738 194 q 590 23 660 60 q 422 -14 519 -14 m 157 1125 l 349 1319 l 499 1319 l 690 1125 l 531 1125 l 422 1228 l 319 1125 l 157 1125 z "},"Ċ":{"ha":833,"x_min":106,"x_max":738,"o":"m 422 -14 q 255 22 326 -14 q 144 126 183 58 q 106 283 106 193 l 106 731 q 144 889 106 822 q 255 992 183 956 q 422 1028 326 1028 q 590 991 519 1028 q 699 888 660 954 q 738 731 738 822 l 576 731 q 536 845 576 806 q 422 885 496 885 q 308 845 349 885 q 267 731 267 806 l 267 283 q 308 169 267 210 q 422 129 349 129 q 536 169 496 129 q 576 283 576 210 l 738 283 q 699 127 738 194 q 590 23 660 60 q 422 -14 519 -14 m 424 1125 q 343 1151 372 1125 q 314 1222 314 1178 q 343 1293 314 1267 q 424 1319 372 1319 q 504 1293 475 1319 q 533 1222 533 1267 q 504 1151 533 1178 q 424 1125 475 1125 z "},"D":{"ha":833,"x_min":110,"x_max":736,"o":"m 110 0 l 110 1014 l 401 1014 q 578 975 504 1014 q 694 866 653 936 q 736 700 736 796 l 736 315 q 694 149 736 219 q 578 39 653 78 q 401 0 504 0 l 110 0 m 272 149 l 401 149 q 528 193 482 149 q 574 315 574 238 l 574 700 q 528 821 574 776 q 401 865 482 865 l 272 865 l 272 149 z "},"Ð":{"ha":833,"x_min":14,"x_max":736,"o":"m 14 460 l 14 575 l 403 575 l 403 460 l 14 460 m 110 0 l 110 1014 l 401 1014 q 578 975 504 1014 q 694 866 653 936 q 736 700 736 796 l 736 315 q 694 149 736 219 q 578 39 653 78 q 401 0 504 0 l 110 0 m 272 149 l 401 149 q 528 193 482 149 q 574 315 574 238 l 574 700 q 528 821 574 776 q 401 865 482 865 l 272 865 l 272 149 z "},"Ď":{"ha":833,"x_min":110,"x_max":736,"o":"m 110 0 l 110 1014 l 401 1014 q 578 975 504 1014 q 694 866 653 936 q 736 700 736 796 l 736 315 q 694 149 736 219 q 578 39 653 78 q 401 0 504 0 l 110 0 m 272 149 l 401 149 q 528 193 482 149 q 574 315 574 238 l 574 700 q 528 821 574 776 q 401 865 482 865 l 272 865 l 272 149 m 342 1125 l 150 1319 l 310 1319 l 418 1217 l 521 1319 l 683 1319 l 492 1125 l 342 1125 z "},"Đ":{"ha":833,"x_min":14,"x_max":736,"o":"m 14 460 l 14 575 l 403 575 l 403 460 l 14 460 m 110 0 l 110 1014 l 401 1014 q 578 975 504 1014 q 694 866 653 936 q 736 700 736 796 l 736 315 q 694 149 736 219 q 578 39 653 78 q 401 0 504 0 l 110 0 m 272 149 l 401 149 q 528 193 482 149 q 574 315 574 238 l 574 700 q 528 821 574 776 q 401 865 482 865 l 272 865 l 272 149 z "},"E":{"ha":833,"x_min":126,"x_max":728,"o":"m 126 0 l 126 1014 l 728 1014 l 728 872 l 286 872 l 286 596 l 679 596 l 679 454 l 286 454 l 286 142 l 728 142 l 728 0 l 126 0 z "},"É":{"ha":833,"x_min":126,"x_max":728,"o":"m 126 0 l 126 1014 l 728 1014 l 728 872 l 286 872 l 286 596 l 679 596 l 679 454 l 286 454 l 286 142 l 728 142 l 728 0 l 126 0 m 346 1125 l 492 1319 l 667 1319 l 508 1125 l 346 1125 z "},"Ĕ":{"ha":833,"x_min":126,"x_max":728,"o":"m 126 0 l 126 1014 l 728 1014 l 728 872 l 286 872 l 286 596 l 679 596 l 679 454 l 286 454 l 286 142 l 728 142 l 728 0 l 126 0 m 444 1115 q 273 1172 339 1115 q 207 1319 207 1228 l 333 1319 q 363 1243 333 1272 q 443 1214 393 1214 q 526 1243 494 1214 q 557 1319 557 1272 l 682 1319 q 617 1172 682 1228 q 444 1115 551 1115 z "},"Ě":{"ha":833,"x_min":126,"x_max":728,"o":"m 126 0 l 126 1014 l 728 1014 l 728 872 l 286 872 l 286 596 l 679 596 l 679 454 l 286 454 l 286 142 l 728 142 l 728 0 l 126 0 m 369 1125 l 178 1319 l 338 1319 l 446 1217 l 549 1319 l 711 1319 l 519 1125 l 369 1125 z "},"Ê":{"ha":833,"x_min":126,"x_max":728,"o":"m 126 0 l 126 1014 l 728 1014 l 728 872 l 286 872 l 286 596 l 679 596 l 679 454 l 286 454 l 286 142 l 728 142 l 728 0 l 126 0 m 178 1125 l 369 1319 l 519 1319 l 711 1125 l 551 1125 l 443 1228 l 340 1125 l 178 1125 z "},"Ế":{"ha":833,"x_min":126,"x_max":888,"o":"m 126 0 l 126 1014 l 728 1014 l 728 872 l 286 872 l 286 596 l 679 596 l 679 454 l 286 454 l 286 142 l 728 142 l 728 0 l 126 0 m 574 1253 l 719 1417 l 888 1417 l 732 1253 l 574 1253 m 151 1083 l 342 1278 l 492 1278 l 683 1083 l 521 1083 l 417 1186 l 311 1083 l 151 1083 z "},"Ệ":{"ha":833,"x_min":126,"x_max":728,"o":"m 150 1125 l 342 1319 l 492 1319 l 683 1125 l 524 1125 l 415 1228 l 313 1125 l 150 1125 m 126 0 l 126 1014 l 728 1014 l 728 872 l 286 872 l 286 596 l 679 596 l 679 454 l 286 454 l 286 142 l 728 142 l 728 0 l 126 0 m 444 -308 q 364 -282 393 -308 q 335 -211 335 -256 q 364 -140 335 -167 q 444 -112 393 -112 q 525 -140 496 -112 q 554 -211 554 -167 q 525 -282 554 -256 q 444 -308 496 -308 z "},"Ề":{"ha":833,"x_min":126,"x_max":781,"o":"m 126 0 l 126 1014 l 728 1014 l 728 872 l 286 872 l 286 596 l 679 596 l 679 454 l 286 454 l 286 142 l 728 142 l 728 0 l 126 0 m 624 1253 l 461 1417 l 628 1417 l 781 1253 l 624 1253 m 151 1083 l 342 1278 l 492 1278 l 683 1083 l 521 1083 l 417 1186 l 311 1083 l 151 1083 z "},"Ể":{"ha":833,"x_min":126,"x_max":789,"o":"m 126 0 l 126 1014 l 728 1014 l 728 872 l 286 872 l 286 596 l 679 596 l 679 454 l 286 454 l 286 142 l 728 142 l 728 0 l 126 0 m 594 1217 l 653 1274 q 667 1303 667 1288 q 640 1325 667 1325 l 546 1325 l 546 1417 l 669 1417 q 756 1390 724 1417 q 789 1318 789 1364 q 782 1282 789 1300 q 763 1253 775 1264 l 722 1217 l 594 1217 m 151 1083 l 342 1278 l 492 1278 l 683 1083 l 521 1083 l 417 1186 l 311 1083 l 151 1083 z "},"Ễ":{"ha":833,"x_min":126,"x_max":728,"o":"m 126 0 l 126 1014 l 728 1014 l 728 872 l 286 872 l 286 596 l 679 596 l 679 454 l 286 454 l 286 142 l 728 142 l 728 0 l 126 0 m 525 1272 q 455 1281 485 1272 q 403 1301 425 1289 q 361 1321 381 1313 q 319 1329 342 1329 q 292 1319 303 1329 q 281 1290 281 1308 l 281 1282 l 178 1282 l 178 1290 q 214 1383 178 1349 q 310 1417 250 1417 q 381 1408 351 1417 q 431 1388 410 1399 q 472 1367 453 1376 q 514 1358 492 1358 q 542 1369 532 1358 q 553 1397 553 1381 l 553 1406 l 656 1406 l 656 1397 q 621 1306 656 1340 q 525 1272 586 1272 m 151 1083 l 300 1232 l 533 1232 l 682 1083 l 521 1083 l 417 1186 l 311 1083 l 151 1083 z "},"Ë":{"ha":833,"x_min":126,"x_max":728,"o":"m 126 0 l 126 1014 l 728 1014 l 728 872 l 286 872 l 286 596 l 679 596 l 679 454 l 286 454 l 286 142 l 728 142 l 728 0 l 126 0 m 606 1125 q 533 1151 560 1125 q 507 1222 507 1178 q 533 1294 507 1268 q 606 1321 560 1321 q 677 1294 650 1321 q 704 1222 704 1268 q 677 1151 704 1178 q 606 1125 650 1125 m 283 1125 q 212 1151 239 1125 q 185 1222 185 1178 q 212 1294 185 1268 q 283 1321 239 1321 q 356 1294 329 1321 q 382 1222 382 1268 q 356 1151 382 1178 q 283 1125 329 1125 z "},"Ė":{"ha":833,"x_min":126,"x_max":728,"o":"m 126 0 l 126 1014 l 728 1014 l 728 872 l 286 872 l 286 596 l 679 596 l 679 454 l 286 454 l 286 142 l 728 142 l 728 0 l 126 0 m 444 1125 q 364 1151 393 1125 q 335 1222 335 1178 q 364 1293 335 1267 q 444 1319 393 1319 q 525 1293 496 1319 q 554 1222 554 1267 q 525 1151 554 1178 q 444 1125 496 1125 z "},"Ẹ":{"ha":833,"x_min":126,"x_max":728,"o":"m 126 0 l 126 1014 l 728 1014 l 728 872 l 286 872 l 286 596 l 679 596 l 679 454 l 286 454 l 286 142 l 728 142 l 728 0 l 126 0 m 444 -308 q 364 -282 393 -308 q 335 -211 335 -256 q 364 -140 335 -167 q 444 -112 393 -112 q 525 -140 496 -112 q 554 -211 554 -167 q 525 -282 554 -256 q 444 -308 496 -308 z "},"È":{"ha":833,"x_min":126,"x_max":728,"o":"m 126 0 l 126 1014 l 728 1014 l 728 872 l 286 872 l 286 596 l 679 596 l 679 454 l 286 454 l 286 142 l 728 142 l 728 0 l 126 0 m 381 1125 l 219 1319 l 399 1319 l 547 1125 l 381 1125 z "},"Ẻ":{"ha":833,"x_min":126,"x_max":728,"o":"m 126 0 l 126 1014 l 728 1014 l 728 872 l 286 872 l 286 596 l 679 596 l 679 454 l 286 454 l 286 142 l 728 142 l 728 0 l 126 0 m 349 1108 l 414 1193 q 435 1236 435 1219 q 393 1261 435 1261 l 286 1261 l 286 1364 l 413 1364 q 518 1334 478 1364 q 558 1253 558 1304 q 531 1175 558 1211 l 482 1108 l 349 1108 z "},"Ē":{"ha":833,"x_min":126,"x_max":728,"o":"m 126 0 l 126 1014 l 728 1014 l 728 872 l 286 872 l 286 596 l 679 596 l 679 454 l 286 454 l 286 142 l 728 142 l 728 0 l 126 0 m 210 1154 l 210 1281 l 679 1281 l 679 1154 l 210 1154 z "},"Ę":{"ha":833,"x_min":126,"x_max":735,"o":"m 608 -296 q 481 -256 528 -296 q 433 -156 433 -217 q 466 -69 433 -112 q 567 14 499 -25 l 678 14 l 650 -10 q 593 -71 611 -43 q 575 -124 575 -99 q 594 -167 575 -149 q 646 -185 613 -185 l 735 -185 l 735 -296 l 608 -296 m 126 0 l 126 1014 l 728 1014 l 728 872 l 286 872 l 286 596 l 679 596 l 679 454 l 286 454 l 286 142 l 728 142 l 728 0 l 126 0 z "},"Ẽ":{"ha":833,"x_min":126,"x_max":728,"o":"m 126 0 l 126 1014 l 728 1014 l 728 872 l 286 872 l 286 596 l 679 596 l 679 454 l 286 454 l 286 142 l 728 142 l 728 0 l 126 0 m 542 1122 q 472 1136 499 1122 q 428 1168 446 1150 q 393 1200 410 1186 q 354 1214 376 1214 q 324 1201 336 1214 q 313 1167 313 1189 l 313 1129 l 210 1129 l 210 1175 q 248 1282 210 1242 q 347 1322 286 1322 q 417 1308 390 1322 q 461 1276 443 1294 q 496 1244 479 1258 q 535 1231 513 1231 q 565 1242 554 1231 q 576 1275 576 1253 l 576 1315 l 679 1315 l 679 1269 q 642 1163 679 1203 q 542 1122 604 1122 z "},"F":{"ha":833,"x_min":117,"x_max":739,"o":"m 117 0 l 117 1015 l 739 1015 l 739 865 l 275 865 l 275 578 l 703 578 l 703 428 l 278 428 l 278 0 l 117 0 z "},"G":{"ha":833,"x_min":106,"x_max":738,"o":"m 422 -14 q 255 22 326 -14 q 144 126 183 58 q 106 283 106 193 l 106 731 q 144 889 106 822 q 255 992 183 956 q 422 1028 326 1028 q 590 991 519 1028 q 699 888 660 954 q 738 731 738 822 l 576 731 q 536 845 576 806 q 422 885 496 885 q 308 845 349 885 q 267 731 267 806 l 267 283 q 308 169 267 210 q 422 128 349 128 q 536 169 496 128 q 576 285 576 210 l 576 392 l 394 392 l 394 533 l 738 533 l 738 283 q 699 126 738 193 q 590 23 660 60 q 422 -14 519 -14 z "},"Ǵ":{"ha":833,"x_min":106,"x_max":738,"o":"m 422 -14 q 255 22 326 -14 q 144 126 183 58 q 106 283 106 193 l 106 731 q 144 889 106 822 q 255 992 183 956 q 422 1028 326 1028 q 590 991 519 1028 q 699 888 660 954 q 738 731 738 822 l 576 731 q 536 845 576 806 q 422 885 496 885 q 308 845 349 885 q 267 731 267 806 l 267 283 q 308 169 267 210 q 422 128 349 128 q 536 169 496 128 q 576 285 576 210 l 576 392 l 394 392 l 394 533 l 738 533 l 738 283 q 699 126 738 193 q 590 23 660 60 q 422 -14 519 -14 m 318 1125 l 464 1319 l 639 1319 l 481 1125 l 318 1125 z "},"Ğ":{"ha":833,"x_min":106,"x_max":738,"o":"m 422 -14 q 255 22 326 -14 q 144 126 183 58 q 106 283 106 193 l 106 731 q 144 889 106 822 q 255 992 183 956 q 422 1028 326 1028 q 590 991 519 1028 q 699 888 660 954 q 738 731 738 822 l 576 731 q 536 845 576 806 q 422 885 496 885 q 308 845 349 885 q 267 731 267 806 l 267 283 q 308 169 267 210 q 422 128 349 128 q 536 169 496 128 q 576 285 576 210 l 576 392 l 394 392 l 394 533 l 738 533 l 738 283 q 699 126 738 193 q 590 23 660 60 q 422 -14 519 -14 m 417 1115 q 245 1172 311 1115 q 179 1319 179 1228 l 306 1319 q 335 1243 306 1272 q 415 1214 365 1214 q 498 1243 467 1214 q 529 1319 529 1272 l 654 1319 q 589 1172 654 1228 q 417 1115 524 1115 z "},"Ǧ":{"ha":833,"x_min":106,"x_max":738,"o":"m 422 -14 q 255 22 326 -14 q 144 126 183 58 q 106 283 106 193 l 106 731 q 144 889 106 822 q 255 992 183 956 q 422 1028 326 1028 q 590 991 519 1028 q 699 888 660 954 q 738 731 738 822 l 576 731 q 536 845 576 806 q 422 885 496 885 q 308 845 349 885 q 267 731 267 806 l 267 283 q 308 169 267 210 q 422 128 349 128 q 536 169 496 128 q 576 285 576 210 l 576 392 l 394 392 l 394 533 l 738 533 l 738 283 q 699 126 738 193 q 590 23 660 60 q 422 -14 519 -14 m 342 1125 l 150 1319 l 310 1319 l 418 1217 l 521 1319 l 683 1319 l 492 1125 l 342 1125 z "},"Ĝ":{"ha":833,"x_min":106,"x_max":738,"o":"m 422 -14 q 255 22 326 -14 q 144 126 183 58 q 106 283 106 193 l 106 731 q 144 889 106 822 q 255 992 183 956 q 422 1028 326 1028 q 590 991 519 1028 q 699 888 660 954 q 738 731 738 822 l 576 731 q 536 845 576 806 q 422 885 496 885 q 308 845 349 885 q 267 731 267 806 l 267 283 q 308 169 267 210 q 422 128 349 128 q 536 169 496 128 q 576 285 576 210 l 576 392 l 394 392 l 394 533 l 738 533 l 738 283 q 699 126 738 193 q 590 23 660 60 q 422 -14 519 -14 m 150 1125 l 342 1319 l 492 1319 l 683 1125 l 524 1125 l 415 1228 l 313 1125 l 150 1125 z "},"Ģ":{"ha":833,"x_min":106,"x_max":738,"o":"m 422 -14 q 255 22 326 -14 q 144 126 183 58 q 106 283 106 193 l 106 731 q 144 889 106 822 q 255 992 183 956 q 422 1028 326 1028 q 590 991 519 1028 q 699 888 660 954 q 738 731 738 822 l 576 731 q 536 845 576 806 q 422 885 496 885 q 308 845 349 885 q 267 731 267 806 l 267 283 q 308 169 267 210 q 422 128 349 128 q 536 169 496 128 q 576 285 576 210 l 576 392 l 394 392 l 394 533 l 738 533 l 738 283 q 699 126 738 193 q 590 23 660 60 q 422 -14 519 -14 m 260 -333 l 392 -132 l 565 -132 l 414 -333 l 260 -333 z "},"Ġ":{"ha":833,"x_min":106,"x_max":738,"o":"m 422 -14 q 255 22 326 -14 q 144 126 183 58 q 106 283 106 193 l 106 731 q 144 889 106 822 q 255 992 183 956 q 422 1028 326 1028 q 590 991 519 1028 q 699 888 660 954 q 738 731 738 822 l 576 731 q 536 845 576 806 q 422 885 496 885 q 308 845 349 885 q 267 731 267 806 l 267 283 q 308 169 267 210 q 422 128 349 128 q 536 169 496 128 q 576 285 576 210 l 576 392 l 394 392 l 394 533 l 738 533 l 738 283 q 699 126 738 193 q 590 23 660 60 q 422 -14 519 -14 m 417 1125 q 336 1151 365 1125 q 307 1222 307 1178 q 336 1293 307 1267 q 417 1319 365 1319 q 497 1293 468 1319 q 526 1222 526 1267 q 497 1151 526 1178 q 417 1125 468 1125 z "},"H":{"ha":833,"x_min":113,"x_max":721,"o":"m 113 0 l 113 1014 l 275 1014 l 275 600 l 558 600 l 558 1014 l 721 1014 l 721 0 l 558 0 l 558 450 l 275 450 l 275 0 l 113 0 z "},"Ħ":{"ha":833,"x_min":14,"x_max":819,"o":"m 14 729 l 14 846 l 819 846 l 819 729 l 14 729 m 113 0 l 113 1014 l 275 1014 l 275 600 l 558 600 l 558 1014 l 721 1014 l 721 0 l 558 0 l 558 450 l 275 450 l 275 0 l 113 0 z "},"Ĥ":{"ha":833,"x_min":113,"x_max":721,"o":"m 113 0 l 113 1014 l 275 1014 l 275 600 l 558 600 l 558 1014 l 721 1014 l 721 0 l 558 0 l 558 450 l 275 450 l 275 0 l 113 0 m 150 1125 l 342 1319 l 492 1319 l 683 1125 l 524 1125 l 415 1228 l 313 1125 l 150 1125 z "},"I":{"ha":833,"x_min":131,"x_max":703,"o":"m 131 0 l 131 143 l 335 143 l 335 871 l 131 871 l 131 1014 l 703 1014 l 703 871 l 499 871 l 499 143 l 703 143 l 703 0 l 131 0 z "},"Í":{"ha":833,"x_min":131,"x_max":703,"o":"m 131 0 l 131 143 l 335 143 l 335 871 l 131 871 l 131 1014 l 703 1014 l 703 871 l 499 871 l 499 143 l 703 143 l 703 0 l 131 0 m 318 1125 l 464 1319 l 639 1319 l 481 1125 l 318 1125 z "},"Ĭ":{"ha":833,"x_min":131,"x_max":703,"o":"m 131 0 l 131 143 l 335 143 l 335 871 l 131 871 l 131 1014 l 703 1014 l 703 871 l 499 871 l 499 143 l 703 143 l 703 0 l 131 0 m 417 1115 q 245 1172 311 1115 q 179 1319 179 1228 l 306 1319 q 335 1243 306 1272 q 415 1214 365 1214 q 498 1243 467 1214 q 529 1319 529 1272 l 654 1319 q 589 1172 654 1228 q 417 1115 524 1115 z "},"Î":{"ha":833,"x_min":131,"x_max":703,"o":"m 131 0 l 131 143 l 335 143 l 335 871 l 131 871 l 131 1014 l 703 1014 l 703 871 l 499 871 l 499 143 l 703 143 l 703 0 l 131 0 m 150 1125 l 342 1319 l 492 1319 l 683 1125 l 524 1125 l 415 1228 l 313 1125 l 150 1125 z "},"Ï":{"ha":833,"x_min":131,"x_max":703,"o":"m 131 0 l 131 143 l 335 143 l 335 871 l 131 871 l 131 1014 l 703 1014 l 703 871 l 499 871 l 499 143 l 703 143 l 703 0 l 131 0 m 578 1125 q 506 1151 532 1125 q 479 1222 479 1178 q 506 1294 479 1268 q 578 1321 532 1321 q 649 1294 622 1321 q 676 1222 676 1268 q 649 1151 676 1178 q 578 1125 622 1125 m 256 1125 q 184 1151 211 1125 q 157 1222 157 1178 q 184 1294 157 1268 q 256 1321 211 1321 q 328 1294 301 1321 q 354 1222 354 1268 q 328 1151 354 1178 q 256 1125 301 1125 z "},"İ":{"ha":833,"x_min":131,"x_max":703,"o":"m 131 0 l 131 143 l 335 143 l 335 871 l 131 871 l 131 1014 l 703 1014 l 703 871 l 499 871 l 499 143 l 703 143 l 703 0 l 131 0 m 417 1125 q 336 1151 365 1125 q 307 1222 307 1178 q 336 1293 307 1267 q 417 1319 365 1319 q 497 1293 468 1319 q 526 1222 526 1267 q 497 1151 526 1178 q 417 1125 468 1125 z "},"Ị":{"ha":833,"x_min":131,"x_max":703,"o":"m 131 0 l 131 143 l 335 143 l 335 871 l 131 871 l 131 1014 l 703 1014 l 703 871 l 499 871 l 499 143 l 703 143 l 703 0 l 131 0 m 422 -308 q 342 -282 371 -308 q 313 -211 313 -256 q 342 -140 313 -167 q 422 -112 371 -112 q 503 -140 474 -112 q 532 -211 532 -167 q 503 -282 532 -256 q 422 -308 474 -308 z "},"Ì":{"ha":833,"x_min":131,"x_max":703,"o":"m 131 0 l 131 143 l 335 143 l 335 871 l 131 871 l 131 1014 l 703 1014 l 703 871 l 499 871 l 499 143 l 703 143 l 703 0 l 131 0 m 353 1125 l 192 1319 l 371 1319 l 519 1125 l 353 1125 z "},"Ỉ":{"ha":833,"x_min":131,"x_max":703,"o":"m 131 0 l 131 143 l 335 143 l 335 871 l 131 871 l 131 1014 l 703 1014 l 703 871 l 499 871 l 499 143 l 703 143 l 703 0 l 131 0 m 372 1108 l 438 1193 q 458 1236 458 1219 q 417 1261 458 1261 l 310 1261 l 310 1364 l 436 1364 q 542 1334 501 1364 q 582 1253 582 1304 q 554 1175 582 1211 l 506 1108 l 372 1108 z "},"Ī":{"ha":833,"x_min":131,"x_max":703,"o":"m 131 0 l 131 143 l 335 143 l 335 871 l 131 871 l 131 1014 l 703 1014 l 703 871 l 499 871 l 499 143 l 703 143 l 703 0 l 131 0 m 182 1154 l 182 1281 l 651 1281 l 651 1154 l 182 1154 z "},"Į":{"ha":833,"x_min":131,"x_max":703,"o":"m 419 -296 q 292 -256 339 -296 q 244 -156 244 -217 q 278 -69 244 -112 q 379 14 311 -25 l 490 14 l 461 -10 q 405 -71 424 -43 q 386 -124 386 -99 q 406 -167 386 -149 q 457 -185 425 -185 l 546 -185 l 546 -296 l 419 -296 m 131 0 l 131 143 l 335 143 l 335 871 l 131 871 l 131 1014 l 703 1014 l 703 871 l 499 871 l 499 143 l 703 143 l 703 0 l 131 0 z "},"Ĩ":{"ha":833,"x_min":131,"x_max":703,"o":"m 131 0 l 131 143 l 335 143 l 335 871 l 131 871 l 131 1014 l 703 1014 l 703 871 l 499 871 l 499 143 l 703 143 l 703 0 l 131 0 m 514 1122 q 444 1136 471 1122 q 400 1168 418 1150 q 365 1200 382 1186 q 326 1214 349 1214 q 297 1201 308 1214 q 285 1167 285 1189 l 285 1129 l 182 1129 l 182 1175 q 220 1282 182 1242 q 319 1322 258 1322 q 389 1308 363 1322 q 433 1276 415 1294 q 468 1244 451 1258 q 507 1231 485 1231 q 538 1242 526 1231 q 549 1275 549 1253 l 549 1315 l 651 1315 l 651 1269 q 614 1163 651 1203 q 514 1122 576 1122 z "},"J":{"ha":833,"x_min":47,"x_max":703,"o":"m 375 -14 q 135 70 224 -14 q 47 297 47 154 l 208 297 q 253 173 208 218 q 375 128 297 128 q 497 172 453 128 q 542 297 542 217 l 542 864 l 304 864 l 304 1014 l 703 1014 l 703 297 q 615 69 703 153 q 375 -14 526 -14 z "},"Ĵ":{"ha":833,"x_min":47,"x_max":767,"o":"m 375 -14 q 135 70 224 -14 q 47 297 47 154 l 208 297 q 253 173 208 218 q 375 128 297 128 q 497 172 453 128 q 542 297 542 217 l 542 864 l 304 864 l 304 1014 l 703 1014 l 703 297 q 615 69 703 153 q 375 -14 526 -14 m 233 1125 l 425 1319 l 575 1319 l 767 1125 l 607 1125 l 499 1228 l 396 1125 l 233 1125 z "},"K":{"ha":833,"x_min":111,"x_max":788,"o":"m 111 0 l 111 1014 l 274 1014 l 274 597 l 400 597 l 600 1014 l 775 1014 l 543 528 l 788 0 l 606 0 l 399 451 l 274 451 l 274 0 l 111 0 z "},"Ķ":{"ha":833,"x_min":111,"x_max":788,"o":"m 111 0 l 111 1014 l 274 1014 l 274 597 l 400 597 l 600 1014 l 775 1014 l 543 528 l 788 0 l 606 0 l 399 451 l 274 451 l 274 0 l 111 0 m 254 -333 l 386 -132 l 560 -132 l 408 -333 l 254 -333 z "},"L":{"ha":833,"x_min":147,"x_max":746,"o":"m 147 0 l 147 1014 l 310 1014 l 310 150 l 746 150 l 746 0 l 147 0 z "},"Ĺ":{"ha":833,"x_min":131,"x_max":746,"o":"m 147 0 l 147 1014 l 310 1014 l 310 150 l 746 150 l 746 0 l 147 0 m 131 1125 l 276 1319 l 451 1319 l 293 1125 l 131 1125 z "},"Ľ":{"ha":833,"x_min":147,"x_max":746,"o":"m 147 0 l 147 1014 l 310 1014 l 310 150 l 746 150 l 746 0 l 147 0 m 488 764 l 501 1014 l 653 1014 l 625 764 l 488 764 z "},"Ļ":{"ha":833,"x_min":147,"x_max":746,"o":"m 147 0 l 147 1014 l 310 1014 l 310 150 l 746 150 l 746 0 l 147 0 m 282 -333 l 414 -132 l 588 -132 l 436 -333 l 282 -333 z "},"Ŀ":{"ha":833,"x_min":147,"x_max":760,"o":"m 147 0 l 147 1014 l 310 1014 l 310 150 l 746 150 l 746 0 l 147 0 z "},"Ł":{"ha":833,"x_min":28,"x_max":753,"o":"m 28 319 l 28 468 l 547 778 l 547 629 l 28 319 m 154 0 l 154 1014 l 315 1014 l 315 150 l 753 150 l 753 0 l 154 0 z "},"M":{"ha":833,"x_min":85,"x_max":749,"o":"m 85 0 l 85 1014 l 281 1014 l 381 690 q 406 602 396 643 q 419 542 415 561 q 433 602 424 561 q 457 690 443 643 l 553 1014 l 749 1014 l 749 0 l 596 0 l 596 328 q 600 476 596 396 q 610 639 604 557 q 624 795 617 721 q 638 924 632 869 l 494 439 l 342 439 l 196 924 q 210 799 203 871 q 223 647 217 728 q 233 483 229 565 q 238 328 238 401 l 238 0 l 85 0 z "},"N":{"ha":833,"x_min":107,"x_max":726,"o":"m 107 0 l 107 1014 l 307 1014 l 596 183 q 588 283 593 225 q 581 402 583 340 q 578 513 578 464 l 578 1014 l 726 1014 l 726 0 l 526 0 l 239 831 q 247 738 243 793 q 253 623 250 682 q 256 514 256 564 l 256 0 l 107 0 z "},"Ń":{"ha":833,"x_min":107,"x_max":726,"o":"m 107 0 l 107 1014 l 307 1014 l 596 183 q 588 283 593 225 q 581 402 583 340 q 578 513 578 464 l 578 1014 l 726 1014 l 726 0 l 526 0 l 239 831 q 247 738 243 793 q 253 623 250 682 q 256 514 256 564 l 256 0 l 107 0 m 318 1125 l 464 1319 l 639 1319 l 481 1125 l 318 1125 z "},"Ň":{"ha":833,"x_min":107,"x_max":726,"o":"m 107 0 l 107 1014 l 307 1014 l 596 183 q 588 283 593 225 q 581 402 583 340 q 578 513 578 464 l 578 1014 l 726 1014 l 726 0 l 526 0 l 239 831 q 247 738 243 793 q 253 623 250 682 q 256 514 256 564 l 256 0 l 107 0 m 342 1125 l 150 1319 l 310 1319 l 418 1217 l 521 1319 l 683 1319 l 492 1125 l 342 1125 z "},"Ņ":{"ha":833,"x_min":107,"x_max":726,"o":"m 107 0 l 107 1014 l 307 1014 l 596 183 q 588 283 593 225 q 581 402 583 340 q 578 513 578 464 l 578 1014 l 726 1014 l 726 0 l 526 0 l 239 831 q 247 738 243 793 q 253 623 250 682 q 256 514 256 564 l 256 0 l 107 0 m 254 -333 l 386 -132 l 560 -132 l 408 -333 l 254 -333 z "},"Ŋ":{"ha":833,"x_min":107,"x_max":726,"o":"m 339 -250 l 339 -97 l 426 -97 q 528 -61 492 -97 q 565 38 565 -25 l 239 831 q 247 738 243 793 q 253 623 250 682 q 256 514 256 564 l 256 0 l 107 0 l 107 1014 l 307 1014 l 596 300 q 588 401 593 343 q 581 520 583 458 q 578 631 578 582 l 578 1014 l 726 1014 l 726 26 q 688 -118 726 -56 q 581 -215 650 -181 q 421 -250 513 -250 l 339 -250 z "},"Ñ":{"ha":833,"x_min":107,"x_max":726,"o":"m 107 0 l 107 1014 l 307 1014 l 596 183 q 588 283 593 225 q 581 402 583 340 q 578 513 578 464 l 578 1014 l 726 1014 l 726 0 l 526 0 l 239 831 q 247 738 243 793 q 253 623 250 682 q 256 514 256 564 l 256 0 l 107 0 m 514 1122 q 444 1136 471 1122 q 400 1168 418 1150 q 365 1200 382 1186 q 326 1214 349 1214 q 297 1201 308 1214 q 285 1167 285 1189 l 285 1129 l 182 1129 l 182 1175 q 220 1282 182 1242 q 319 1322 258 1322 q 389 1308 363 1322 q 433 1276 415 1294 q 468 1244 451 1258 q 507 1231 485 1231 q 538 1242 526 1231 q 549 1275 549 1253 l 549 1315 l 651 1315 l 651 1269 q 614 1163 651 1203 q 514 1122 576 1122 z "},"O":{"ha":833,"x_min":106,"x_max":728,"o":"m 417 -14 q 251 22 321 -14 q 143 126 181 58 q 106 283 106 193 l 106 731 q 143 889 106 822 q 251 992 181 956 q 417 1028 321 1028 q 583 992 514 1028 q 690 889 653 956 q 728 731 728 822 l 728 283 q 690 126 728 193 q 583 22 653 58 q 417 -14 514 -14 m 417 129 q 528 169 490 129 q 567 283 567 210 l 567 731 q 528 845 567 806 q 417 885 490 885 q 305 845 343 885 q 267 731 267 806 l 267 283 q 306 169 267 210 q 417 129 344 129 z "},"Ó":{"ha":833,"x_min":106,"x_max":728,"o":"m 417 -14 q 251 22 321 -14 q 143 126 181 58 q 106 283 106 193 l 106 731 q 143 889 106 822 q 251 992 181 956 q 417 1028 321 1028 q 583 992 514 1028 q 690 889 653 956 q 728 731 728 822 l 728 283 q 690 126 728 193 q 583 22 653 58 q 417 -14 514 -14 m 417 129 q 528 169 490 129 q 567 283 567 210 l 567 731 q 528 845 567 806 q 417 885 490 885 q 305 845 343 885 q 267 731 267 806 l 267 283 q 306 169 267 210 q 417 129 344 129 m 318 1125 l 464 1319 l 639 1319 l 481 1125 l 318 1125 z "},"Ŏ":{"ha":833,"x_min":106,"x_max":728,"o":"m 417 -14 q 251 22 321 -14 q 143 126 181 58 q 106 283 106 193 l 106 731 q 143 889 106 822 q 251 992 181 956 q 417 1028 321 1028 q 583 992 514 1028 q 690 889 653 956 q 728 731 728 822 l 728 283 q 690 126 728 193 q 583 22 653 58 q 417 -14 514 -14 m 417 129 q 528 169 490 129 q 567 283 567 210 l 567 731 q 528 845 567 806 q 417 885 490 885 q 305 845 343 885 q 267 731 267 806 l 267 283 q 306 169 267 210 q 417 129 344 129 m 417 1115 q 245 1172 311 1115 q 179 1319 179 1228 l 306 1319 q 335 1243 306 1272 q 415 1214 365 1214 q 498 1243 467 1214 q 529 1319 529 1272 l 654 1319 q 589 1172 654 1228 q 417 1115 524 1115 z "},"Ô":{"ha":833,"x_min":106,"x_max":728,"o":"m 417 -14 q 251 22 321 -14 q 143 126 181 58 q 106 283 106 193 l 106 731 q 143 889 106 822 q 251 992 181 956 q 417 1028 321 1028 q 583 992 514 1028 q 690 889 653 956 q 728 731 728 822 l 728 283 q 690 126 728 193 q 583 22 653 58 q 417 -14 514 -14 m 417 129 q 528 169 490 129 q 567 283 567 210 l 567 731 q 528 845 567 806 q 417 885 490 885 q 305 845 343 885 q 267 731 267 806 l 267 283 q 306 169 267 210 q 417 129 344 129 m 150 1125 l 342 1319 l 492 1319 l 683 1125 l 524 1125 l 415 1228 l 313 1125 l 150 1125 z "},"Ố":{"ha":833,"x_min":106,"x_max":888,"o":"m 417 -14 q 251 22 321 -14 q 143 126 181 58 q 106 283 106 193 l 106 731 q 143 889 106 822 q 251 992 181 956 q 417 1028 321 1028 q 583 992 514 1028 q 690 889 653 956 q 728 731 728 822 l 728 283 q 690 126 728 193 q 583 22 653 58 q 417 -14 514 -14 m 417 129 q 528 169 490 129 q 567 283 567 210 l 567 731 q 528 845 567 806 q 417 885 490 885 q 305 845 343 885 q 267 731 267 806 l 267 283 q 306 169 267 210 q 417 129 344 129 m 574 1253 l 719 1417 l 888 1417 l 732 1253 l 574 1253 m 151 1083 l 342 1278 l 492 1278 l 683 1083 l 521 1083 l 417 1186 l 311 1083 l 151 1083 z "},"Ộ":{"ha":833,"x_min":106,"x_max":728,"o":"m 150 1125 l 342 1319 l 492 1319 l 683 1125 l 524 1125 l 415 1228 l 313 1125 l 150 1125 m 417 -14 q 251 22 321 -14 q 143 126 181 58 q 106 283 106 193 l 106 731 q 143 889 106 822 q 251 992 181 956 q 417 1028 321 1028 q 583 992 514 1028 q 690 889 653 956 q 728 731 728 822 l 728 283 q 690 126 728 193 q 583 22 653 58 q 417 -14 514 -14 m 417 129 q 528 169 490 129 q 567 283 567 210 l 567 731 q 528 845 567 806 q 417 885 490 885 q 305 845 343 885 q 267 731 267 806 l 267 283 q 306 169 267 210 q 417 129 344 129 m 417 -308 q 336 -282 365 -308 q 307 -211 307 -256 q 336 -140 307 -167 q 417 -112 365 -112 q 497 -140 468 -112 q 526 -211 526 -167 q 497 -282 526 -256 q 417 -308 468 -308 z "},"Ồ":{"ha":833,"x_min":106,"x_max":781,"o":"m 417 -14 q 251 22 321 -14 q 143 126 181 58 q 106 283 106 193 l 106 731 q 143 889 106 822 q 251 992 181 956 q 417 1028 321 1028 q 583 992 514 1028 q 690 889 653 956 q 728 731 728 822 l 728 283 q 690 126 728 193 q 583 22 653 58 q 417 -14 514 -14 m 417 129 q 528 169 490 129 q 567 283 567 210 l 567 731 q 528 845 567 806 q 417 885 490 885 q 305 845 343 885 q 267 731 267 806 l 267 283 q 306 169 267 210 q 417 129 344 129 m 624 1253 l 461 1417 l 628 1417 l 781 1253 l 624 1253 m 151 1083 l 342 1278 l 492 1278 l 683 1083 l 521 1083 l 417 1186 l 311 1083 l 151 1083 z "},"Ổ":{"ha":833,"x_min":106,"x_max":789,"o":"m 417 -14 q 251 22 321 -14 q 143 126 181 58 q 106 283 106 193 l 106 731 q 143 889 106 822 q 251 992 181 956 q 417 1028 321 1028 q 583 992 514 1028 q 690 889 653 956 q 728 731 728 822 l 728 283 q 690 126 728 193 q 583 22 653 58 q 417 -14 514 -14 m 417 129 q 528 169 490 129 q 567 283 567 210 l 567 731 q 528 845 567 806 q 417 885 490 885 q 305 845 343 885 q 267 731 267 806 l 267 283 q 306 169 267 210 q 417 129 344 129 m 594 1217 l 653 1274 q 667 1303 667 1288 q 640 1325 667 1325 l 546 1325 l 546 1417 l 669 1417 q 756 1390 724 1417 q 789 1318 789 1364 q 782 1282 789 1300 q 763 1253 775 1264 l 722 1217 l 594 1217 m 151 1083 l 342 1278 l 492 1278 l 683 1083 l 521 1083 l 417 1186 l 311 1083 l 151 1083 z "},"Ỗ":{"ha":833,"x_min":106,"x_max":728,"o":"m 417 -14 q 251 22 321 -14 q 143 126 181 58 q 106 283 106 193 l 106 731 q 143 889 106 822 q 251 992 181 956 q 417 1028 321 1028 q 583 992 514 1028 q 690 889 653 956 q 728 731 728 822 l 728 283 q 690 126 728 193 q 583 22 653 58 q 417 -14 514 -14 m 417 129 q 528 169 490 129 q 567 283 567 210 l 567 731 q 528 845 567 806 q 417 885 490 885 q 305 845 343 885 q 267 731 267 806 l 267 283 q 306 169 267 210 q 417 129 344 129 m 525 1272 q 455 1281 485 1272 q 403 1301 425 1289 q 361 1321 381 1313 q 319 1329 342 1329 q 292 1319 303 1329 q 281 1290 281 1308 l 281 1282 l 178 1282 l 178 1290 q 214 1383 178 1349 q 310 1417 250 1417 q 381 1408 351 1417 q 431 1388 410 1399 q 472 1367 453 1376 q 514 1358 492 1358 q 542 1369 532 1358 q 553 1397 553 1381 l 553 1406 l 656 1406 l 656 1397 q 621 1306 656 1340 q 525 1272 586 1272 m 151 1083 l 300 1232 l 533 1232 l 682 1083 l 521 1083 l 417 1186 l 311 1083 l 151 1083 z "},"Ö":{"ha":833,"x_min":106,"x_max":728,"o":"m 417 -14 q 251 22 321 -14 q 143 126 181 58 q 106 283 106 193 l 106 731 q 143 889 106 822 q 251 992 181 956 q 417 1028 321 1028 q 583 992 514 1028 q 690 889 653 956 q 728 731 728 822 l 728 283 q 690 126 728 193 q 583 22 653 58 q 417 -14 514 -14 m 417 129 q 528 169 490 129 q 567 283 567 210 l 567 731 q 528 845 567 806 q 417 885 490 885 q 305 845 343 885 q 267 731 267 806 l 267 283 q 306 169 267 210 q 417 129 344 129 m 578 1125 q 506 1151 532 1125 q 479 1222 479 1178 q 506 1294 479 1268 q 578 1321 532 1321 q 649 1294 622 1321 q 676 1222 676 1268 q 649 1151 676 1178 q 578 1125 622 1125 m 256 1125 q 184 1151 211 1125 q 157 1222 157 1178 q 184 1294 157 1268 q 256 1321 211 1321 q 328 1294 301 1321 q 354 1222 354 1268 q 328 1151 354 1178 q 256 1125 301 1125 z "},"Ọ":{"ha":833,"x_min":106,"x_max":728,"o":"m 417 -14 q 251 22 321 -14 q 143 126 181 58 q 106 283 106 193 l 106 731 q 143 889 106 822 q 251 992 181 956 q 417 1028 321 1028 q 583 992 514 1028 q 690 889 653 956 q 728 731 728 822 l 728 283 q 690 126 728 193 q 583 22 653 58 q 417 -14 514 -14 m 417 129 q 528 169 490 129 q 567 283 567 210 l 567 731 q 528 845 567 806 q 417 885 490 885 q 305 845 343 885 q 267 731 267 806 l 267 283 q 306 169 267 210 q 417 129 344 129 m 431 -308 q 350 -282 379 -308 q 321 -211 321 -256 q 350 -140 321 -167 q 431 -112 379 -112 q 511 -140 482 -112 q 540 -211 540 -167 q 511 -282 540 -256 q 431 -308 482 -308 z "},"Ò":{"ha":833,"x_min":106,"x_max":728,"o":"m 417 -14 q 251 22 321 -14 q 143 126 181 58 q 106 283 106 193 l 106 731 q 143 889 106 822 q 251 992 181 956 q 417 1028 321 1028 q 583 992 514 1028 q 690 889 653 956 q 728 731 728 822 l 728 283 q 690 126 728 193 q 583 22 653 58 q 417 -14 514 -14 m 417 129 q 528 169 490 129 q 567 283 567 210 l 567 731 q 528 845 567 806 q 417 885 490 885 q 305 845 343 885 q 267 731 267 806 l 267 283 q 306 169 267 210 q 417 129 344 129 m 353 1125 l 192 1319 l 371 1319 l 519 1125 l 353 1125 z "},"Ỏ":{"ha":833,"x_min":106,"x_max":728,"o":"m 417 -14 q 251 22 321 -14 q 143 126 181 58 q 106 283 106 193 l 106 731 q 143 889 106 822 q 251 992 181 956 q 417 1028 321 1028 q 583 992 514 1028 q 690 889 653 956 q 728 731 728 822 l 728 283 q 690 126 728 193 q 583 22 653 58 q 417 -14 514 -14 m 417 129 q 528 169 490 129 q 567 283 567 210 l 567 731 q 528 845 567 806 q 417 885 490 885 q 305 845 343 885 q 267 731 267 806 l 267 283 q 306 169 267 210 q 417 129 344 129 m 372 1108 l 438 1193 q 458 1236 458 1219 q 417 1261 458 1261 l 310 1261 l 310 1364 l 436 1364 q 542 1334 501 1364 q 582 1253 582 1304 q 554 1175 582 1211 l 506 1108 l 372 1108 z "},"Ơ":{"ha":833,"x_min":106,"x_max":771,"o":"m 544 861 l 544 972 l 590 972 q 626 985 613 972 q 639 1021 639 999 l 639 1125 l 771 1125 l 771 1017 q 724 903 771 946 q 600 861 678 861 l 544 861 m 417 -14 q 251 22 321 -14 q 143 126 181 58 q 106 283 106 193 l 106 731 q 143 889 106 822 q 251 992 181 956 q 417 1028 321 1028 q 583 992 514 1028 q 690 889 653 956 q 728 731 728 822 l 728 283 q 690 126 728 193 q 583 22 653 58 q 417 -14 514 -14 m 417 129 q 528 169 490 129 q 567 283 567 210 l 567 731 q 528 845 567 806 q 417 885 490 885 q 305 845 343 885 q 267 731 267 806 l 267 283 q 306 169 267 210 q 417 129 344 129 z "},"Ớ":{"ha":833,"x_min":106,"x_max":771,"o":"m 544 861 l 544 972 l 590 972 q 626 985 613 972 q 639 1021 639 999 l 639 1125 l 771 1125 l 771 1017 q 724 903 771 946 q 600 861 678 861 l 544 861 m 417 -14 q 251 22 321 -14 q 143 126 181 58 q 106 283 106 193 l 106 731 q 143 889 106 822 q 251 992 181 956 q 417 1028 321 1028 q 583 992 514 1028 q 690 889 653 956 q 728 731 728 822 l 728 283 q 690 126 728 193 q 583 22 653 58 q 417 -14 514 -14 m 417 129 q 528 169 490 129 q 567 283 567 210 l 567 731 q 528 845 567 806 q 417 885 490 885 q 305 845 343 885 q 267 731 267 806 l 267 283 q 306 169 267 210 q 417 129 344 129 m 304 1125 l 450 1319 l 625 1319 l 467 1125 l 304 1125 z "},"Ợ":{"ha":833,"x_min":106,"x_max":771,"o":"m 544 861 l 544 972 l 590 972 q 626 985 613 972 q 639 1021 639 999 l 639 1125 l 771 1125 l 771 1017 q 724 903 771 946 q 600 861 678 861 l 544 861 m 417 -14 q 251 22 321 -14 q 143 126 181 58 q 106 283 106 193 l 106 731 q 143 889 106 822 q 251 992 181 956 q 417 1028 321 1028 q 583 992 514 1028 q 690 889 653 956 q 728 731 728 822 l 728 283 q 690 126 728 193 q 583 22 653 58 q 417 -14 514 -14 m 417 129 q 528 169 490 129 q 567 283 567 210 l 567 731 q 528 845 567 806 q 417 885 490 885 q 305 845 343 885 q 267 731 267 806 l 267 283 q 306 169 267 210 q 417 129 344 129 m 431 -308 q 350 -282 379 -308 q 321 -211 321 -256 q 350 -140 321 -167 q 431 -112 379 -112 q 511 -140 482 -112 q 540 -211 540 -167 q 511 -282 540 -256 q 431 -308 482 -308 z "},"Ờ":{"ha":833,"x_min":106,"x_max":771,"o":"m 544 861 l 544 972 l 590 972 q 626 985 613 972 q 639 1021 639 999 l 639 1125 l 771 1125 l 771 1017 q 724 903 771 946 q 600 861 678 861 l 544 861 m 417 -14 q 251 22 321 -14 q 143 126 181 58 q 106 283 106 193 l 106 731 q 143 889 106 822 q 251 992 181 956 q 417 1028 321 1028 q 583 992 514 1028 q 690 889 653 956 q 728 731 728 822 l 728 283 q 690 126 728 193 q 583 22 653 58 q 417 -14 514 -14 m 417 129 q 528 169 490 129 q 567 283 567 210 l 567 731 q 528 845 567 806 q 417 885 490 885 q 305 845 343 885 q 267 731 267 806 l 267 283 q 306 169 267 210 q 417 129 344 129 m 339 1125 l 178 1319 l 357 1319 l 506 1125 l 339 1125 z "},"Ở":{"ha":833,"x_min":106,"x_max":771,"o":"m 544 861 l 544 972 l 590 972 q 626 985 613 972 q 639 1021 639 999 l 639 1125 l 771 1125 l 771 1017 q 724 903 771 946 q 600 861 678 861 l 544 861 m 417 -14 q 251 22 321 -14 q 143 126 181 58 q 106 283 106 193 l 106 731 q 143 889 106 822 q 251 992 181 956 q 417 1028 321 1028 q 583 992 514 1028 q 690 889 653 956 q 728 731 728 822 l 728 283 q 690 126 728 193 q 583 22 653 58 q 417 -14 514 -14 m 417 129 q 528 169 490 129 q 567 283 567 210 l 567 731 q 528 845 567 806 q 417 885 490 885 q 305 845 343 885 q 267 731 267 806 l 267 283 q 306 169 267 210 q 417 129 344 129 m 349 1108 l 414 1193 q 435 1236 435 1219 q 393 1261 435 1261 l 286 1261 l 286 1364 l 413 1364 q 518 1334 478 1364 q 558 1253 558 1304 q 531 1175 558 1211 l 482 1108 l 349 1108 z "},"Ỡ":{"ha":833,"x_min":106,"x_max":771,"o":"m 544 861 l 544 972 l 590 972 q 626 985 613 972 q 639 1021 639 999 l 639 1125 l 771 1125 l 771 1017 q 724 903 771 946 q 600 861 678 861 l 544 861 m 417 -14 q 251 22 321 -14 q 143 126 181 58 q 106 283 106 193 l 106 731 q 143 889 106 822 q 251 992 181 956 q 417 1028 321 1028 q 583 992 514 1028 q 690 889 653 956 q 728 731 728 822 l 728 283 q 690 126 728 193 q 583 22 653 58 q 417 -14 514 -14 m 417 129 q 528 169 490 129 q 567 283 567 210 l 567 731 q 528 845 567 806 q 417 885 490 885 q 305 845 343 885 q 267 731 267 806 l 267 283 q 306 169 267 210 q 417 129 344 129 m 500 1122 q 431 1136 457 1122 q 386 1168 404 1150 q 351 1200 368 1186 q 313 1214 335 1214 q 283 1201 294 1214 q 271 1167 271 1189 l 271 1129 l 168 1129 l 168 1175 q 206 1282 168 1242 q 306 1322 244 1322 q 375 1308 349 1322 q 419 1276 401 1294 q 454 1244 438 1258 q 493 1231 471 1231 q 524 1242 513 1231 q 535 1275 535 1253 l 535 1315 l 638 1315 l 638 1269 q 600 1163 638 1203 q 500 1122 563 1122 z "},"Ő":{"ha":833,"x_min":106,"x_max":760,"o":"m 417 -14 q 251 22 321 -14 q 143 126 181 58 q 106 283 106 193 l 106 731 q 143 889 106 822 q 251 992 181 956 q 417 1028 321 1028 q 583 992 514 1028 q 690 889 653 956 q 728 731 728 822 l 728 283 q 690 126 728 193 q 583 22 653 58 q 417 -14 514 -14 m 417 129 q 528 169 490 129 q 567 283 567 210 l 567 731 q 528 845 567 806 q 417 885 490 885 q 305 845 343 885 q 267 731 267 806 l 267 283 q 306 169 267 210 q 417 129 344 129 m 450 1125 l 600 1319 l 760 1319 l 600 1125 l 450 1125 m 178 1125 l 328 1319 l 488 1319 l 328 1125 l 178 1125 z "},"Ō":{"ha":833,"x_min":106,"x_max":728,"o":"m 417 -14 q 251 22 321 -14 q 143 126 181 58 q 106 283 106 193 l 106 731 q 143 889 106 822 q 251 992 181 956 q 417 1028 321 1028 q 583 992 514 1028 q 690 889 653 956 q 728 731 728 822 l 728 283 q 690 126 728 193 q 583 22 653 58 q 417 -14 514 -14 m 417 129 q 528 169 490 129 q 567 283 567 210 l 567 731 q 528 845 567 806 q 417 885 490 885 q 305 845 343 885 q 267 731 267 806 l 267 283 q 306 169 267 210 q 417 129 344 129 m 182 1154 l 182 1281 l 651 1281 l 651 1154 l 182 1154 z "},"Ǫ":{"ha":833,"x_min":106,"x_max":728,"o":"m 511 -296 q 383 -256 431 -296 q 336 -156 336 -217 q 351 -102 336 -131 q 394 -45 367 -74 q 456 6 421 -17 q 444 -6 454 1 q 417 -14 435 -14 q 251 22 321 -14 q 143 126 181 58 q 106 283 106 193 l 106 731 q 143 889 106 822 q 251 992 181 956 q 417 1028 321 1028 q 583 992 514 1028 q 690 889 653 956 q 728 731 728 822 l 728 283 q 694 135 728 200 q 600 32 660 69 l 547 -10 q 494 -70 510 -42 q 478 -122 478 -99 q 497 -167 478 -149 q 549 -185 517 -185 l 638 -185 l 638 -296 l 511 -296 m 417 129 q 528 169 490 129 q 567 283 567 210 l 567 731 q 528 845 567 806 q 417 885 490 885 q 305 845 343 885 q 267 731 267 806 l 267 283 q 306 169 267 210 q 417 129 344 129 z "},"Ø":{"ha":833,"x_min":36,"x_max":797,"o":"m 36 -56 l 660 1042 l 797 1042 l 174 -56 l 36 -56 m 417 -14 q 251 22 321 -14 q 143 126 181 58 q 106 283 106 193 l 106 731 q 143 889 106 822 q 251 992 181 956 q 417 1028 321 1028 q 583 992 514 1028 q 690 889 653 956 q 728 731 728 822 l 728 283 q 690 126 728 193 q 583 22 653 58 q 417 -14 514 -14 m 417 129 q 530 169 490 129 q 569 283 569 210 l 569 731 q 530 845 569 806 q 417 885 490 885 q 303 845 343 885 q 264 731 264 806 l 264 283 q 303 169 264 210 q 417 129 343 129 z "},"Ǿ":{"ha":833,"x_min":36,"x_max":797,"o":"m 36 -56 l 660 1042 l 797 1042 l 174 -56 l 36 -56 m 417 -14 q 251 22 321 -14 q 143 126 181 58 q 106 283 106 193 l 106 731 q 143 889 106 822 q 251 992 181 956 q 417 1028 321 1028 q 583 992 514 1028 q 690 889 653 956 q 728 731 728 822 l 728 283 q 690 126 728 193 q 583 22 653 58 q 417 -14 514 -14 m 417 129 q 530 169 490 129 q 569 283 569 210 l 569 731 q 530 845 569 806 q 417 885 490 885 q 303 845 343 885 q 264 731 264 806 l 264 283 q 303 169 264 210 q 417 129 343 129 m 318 1125 l 464 1319 l 639 1319 l 481 1125 l 318 1125 z "},"Õ":{"ha":833,"x_min":106,"x_max":728,"o":"m 417 -14 q 251 22 321 -14 q 143 126 181 58 q 106 283 106 193 l 106 731 q 143 889 106 822 q 251 992 181 956 q 417 1028 321 1028 q 583 992 514 1028 q 690 889 653 956 q 728 731 728 822 l 728 283 q 690 126 728 193 q 583 22 653 58 q 417 -14 514 -14 m 417 129 q 528 169 490 129 q 567 283 567 210 l 567 731 q 528 845 567 806 q 417 885 490 885 q 305 845 343 885 q 267 731 267 806 l 267 283 q 306 169 267 210 q 417 129 344 129 m 514 1122 q 444 1136 471 1122 q 400 1168 418 1150 q 365 1200 382 1186 q 326 1214 349 1214 q 297 1201 308 1214 q 285 1167 285 1189 l 285 1129 l 182 1129 l 182 1175 q 220 1282 182 1242 q 319 1322 258 1322 q 389 1308 363 1322 q 433 1276 415 1294 q 468 1244 451 1258 q 507 1231 485 1231 q 538 1242 526 1231 q 549 1275 549 1253 l 549 1315 l 651 1315 l 651 1269 q 614 1163 651 1203 q 514 1122 576 1122 z "},"Œ":{"ha":833,"x_min":50,"x_max":801,"o":"m 258 -10 q 147 22 194 -10 q 75 115 100 54 q 50 260 50 176 l 50 758 q 75 903 50 843 q 147 996 100 964 q 258 1028 194 1028 q 340 1008 308 1028 q 390 959 372 988 q 411 903 408 931 l 418 903 l 418 1014 l 801 1014 l 801 874 l 565 874 l 565 592 l 767 592 l 767 451 l 565 451 l 565 140 l 801 140 l 801 0 l 418 0 l 418 115 l 411 115 q 390 60 408 89 q 340 10 372 31 q 258 -10 308 -10 m 310 129 q 386 164 358 129 q 414 260 414 199 l 414 758 q 386 854 414 819 q 310 889 358 889 q 233 854 261 889 q 206 758 206 819 l 206 260 q 233 164 206 199 q 310 129 261 129 z "},"P":{"ha":833,"x_min":111,"x_max":776,"o":"m 111 0 l 111 1014 l 447 1014 q 621 976 547 1014 q 735 868 694 938 q 776 704 776 799 q 735 542 776 613 q 621 434 694 472 q 447 396 547 396 l 274 396 l 274 0 l 111 0 m 274 542 l 447 542 q 567 586 522 542 q 613 704 613 631 q 567 824 613 781 q 447 868 522 868 l 274 868 l 274 542 z "},"Þ":{"ha":833,"x_min":113,"x_max":776,"o":"m 113 0 l 113 1014 l 275 1014 l 275 815 l 467 815 q 631 780 563 815 q 738 681 700 744 q 776 528 776 617 q 693 318 776 396 q 467 240 610 240 l 275 240 l 275 0 l 113 0 m 275 379 l 451 379 q 570 419 528 379 q 613 528 613 458 q 569 638 613 599 q 451 676 526 676 l 275 676 l 275 379 z "},"Q":{"ha":833,"x_min":99,"x_max":749,"o":"m 572 -250 l 421 0 l 447 -12 q 434 -13 442 -12 q 417 -14 426 -14 q 249 24 321 -14 q 138 129 178 61 q 99 288 99 197 l 99 726 q 138 885 99 818 q 249 990 178 953 q 417 1028 321 1028 q 585 990 514 1028 q 695 885 656 953 q 735 726 735 818 l 735 288 q 695 127 735 196 q 583 22 656 58 l 749 -250 l 572 -250 m 417 129 q 532 172 492 129 q 572 288 572 214 l 572 726 q 531 844 572 801 q 417 886 489 886 q 303 844 344 886 q 261 726 261 801 l 261 288 q 302 172 261 214 q 417 129 343 129 z "},"R":{"ha":833,"x_min":111,"x_max":769,"o":"m 111 0 l 111 1014 l 431 1014 q 602 977 529 1014 q 715 873 675 940 q 756 715 756 806 q 704 538 756 614 q 565 432 653 463 l 769 0 l 588 0 l 406 410 l 272 410 l 272 0 l 111 0 m 272 553 l 431 553 q 548 595 504 553 q 592 711 592 638 q 548 828 592 785 q 431 871 504 871 l 272 871 l 272 553 z "},"Ŕ":{"ha":833,"x_min":111,"x_max":769,"o":"m 111 0 l 111 1014 l 431 1014 q 602 977 529 1014 q 715 873 675 940 q 756 715 756 806 q 704 538 756 614 q 565 432 653 463 l 769 0 l 588 0 l 406 410 l 272 410 l 272 0 l 111 0 m 272 553 l 431 553 q 548 595 504 553 q 592 711 592 638 q 548 828 592 785 q 431 871 504 871 l 272 871 l 272 553 m 318 1125 l 464 1319 l 639 1319 l 481 1125 l 318 1125 z "},"Ř":{"ha":833,"x_min":111,"x_max":769,"o":"m 111 0 l 111 1014 l 431 1014 q 602 977 529 1014 q 715 873 675 940 q 756 715 756 806 q 704 538 756 614 q 565 432 653 463 l 769 0 l 588 0 l 406 410 l 272 410 l 272 0 l 111 0 m 272 553 l 431 553 q 548 595 504 553 q 592 711 592 638 q 548 828 592 785 q 431 871 504 871 l 272 871 l 272 553 m 342 1125 l 150 1319 l 310 1319 l 418 1217 l 521 1319 l 683 1319 l 492 1125 l 342 1125 z "},"Ŗ":{"ha":833,"x_min":111,"x_max":769,"o":"m 111 0 l 111 1014 l 431 1014 q 602 977 529 1014 q 715 873 675 940 q 756 715 756 806 q 704 538 756 614 q 565 432 653 463 l 769 0 l 588 0 l 406 410 l 272 410 l 272 0 l 111 0 m 272 553 l 431 553 q 548 595 504 553 q 592 711 592 638 q 548 828 592 785 q 431 871 504 871 l 272 871 l 272 553 m 254 -333 l 386 -132 l 560 -132 l 408 -333 l 254 -333 z "},"S":{"ha":833,"x_min":85,"x_max":749,"o":"m 419 -14 q 242 21 317 -14 q 126 119 167 56 q 85 269 85 183 l 246 269 q 293 167 246 204 q 422 129 340 129 q 543 166 499 129 q 588 268 588 203 q 557 362 588 322 q 469 415 526 401 l 347 450 q 169 560 232 482 q 107 747 107 639 q 145 896 107 833 q 253 994 183 958 q 419 1029 324 1029 q 649 953 564 1029 q 735 751 733 878 l 572 751 q 532 850 572 814 q 418 886 492 886 q 308 852 347 886 q 268 758 268 818 q 298 664 268 703 q 383 608 328 625 l 510 572 q 687 464 625 542 q 749 274 749 386 q 708 123 749 188 q 593 22 667 58 q 419 -14 519 -14 z "},"Ś":{"ha":833,"x_min":85,"x_max":749,"o":"m 419 -14 q 242 21 317 -14 q 126 119 167 56 q 85 269 85 183 l 246 269 q 293 167 246 204 q 422 129 340 129 q 543 166 499 129 q 588 268 588 203 q 557 362 588 322 q 469 415 526 401 l 347 450 q 169 560 232 482 q 107 747 107 639 q 145 896 107 833 q 253 994 183 958 q 419 1029 324 1029 q 649 953 564 1029 q 735 751 733 878 l 572 751 q 532 850 572 814 q 418 886 492 886 q 308 852 347 886 q 268 758 268 818 q 298 664 268 703 q 383 608 328 625 l 510 572 q 687 464 625 542 q 749 274 749 386 q 708 123 749 188 q 593 22 667 58 q 419 -14 519 -14 m 318 1125 l 464 1319 l 639 1319 l 481 1125 l 318 1125 z "},"Š":{"ha":833,"x_min":85,"x_max":749,"o":"m 419 -14 q 242 21 317 -14 q 126 119 167 56 q 85 269 85 183 l 246 269 q 293 167 246 204 q 422 129 340 129 q 543 166 499 129 q 588 268 588 203 q 557 362 588 322 q 469 415 526 401 l 347 450 q 169 560 232 482 q 107 747 107 639 q 145 896 107 833 q 253 994 183 958 q 419 1029 324 1029 q 649 953 564 1029 q 735 751 733 878 l 572 751 q 532 850 572 814 q 418 886 492 886 q 308 852 347 886 q 268 758 268 818 q 298 664 268 703 q 383 608 328 625 l 510 572 q 687 464 625 542 q 749 274 749 386 q 708 123 749 188 q 593 22 667 58 q 419 -14 519 -14 m 342 1125 l 150 1319 l 310 1319 l 418 1217 l 521 1319 l 683 1319 l 492 1125 l 342 1125 z "},"Ş":{"ha":833,"x_min":85,"x_max":749,"o":"m 279 -296 l 279 -210 l 382 -210 q 434 -194 414 -210 q 454 -160 454 -178 q 414 -114 454 -132 q 301 -96 374 -96 l 350 31 l 439 31 l 411 -51 q 492 -69 450 -54 q 562 -110 533 -83 q 590 -175 590 -136 q 542 -260 590 -224 q 413 -296 493 -296 l 279 -296 m 419 -14 q 242 21 317 -14 q 126 119 167 56 q 85 269 85 183 l 246 269 q 293 167 246 204 q 422 129 340 129 q 543 166 499 129 q 588 268 588 203 q 557 362 588 322 q 469 415 526 401 l 347 450 q 169 560 232 482 q 107 747 107 639 q 145 896 107 833 q 253 994 183 958 q 419 1029 324 1029 q 649 953 564 1029 q 735 751 733 878 l 572 751 q 532 850 572 814 q 418 886 492 886 q 308 852 347 886 q 268 758 268 818 q 298 664 268 703 q 383 608 328 625 l 510 572 q 687 464 625 542 q 749 274 749 386 q 708 123 749 188 q 593 22 667 58 q 419 -14 519 -14 z "},"Ŝ":{"ha":833,"x_min":85,"x_max":749,"o":"m 419 -14 q 242 21 317 -14 q 126 119 167 56 q 85 269 85 183 l 246 269 q 293 167 246 204 q 422 129 340 129 q 543 166 499 129 q 588 268 588 203 q 557 362 588 322 q 469 415 526 401 l 347 450 q 169 560 232 482 q 107 747 107 639 q 145 896 107 833 q 253 994 183 958 q 419 1029 324 1029 q 649 953 564 1029 q 735 751 733 878 l 572 751 q 532 850 572 814 q 418 886 492 886 q 308 852 347 886 q 268 758 268 818 q 298 664 268 703 q 383 608 328 625 l 510 572 q 687 464 625 542 q 749 274 749 386 q 708 123 749 188 q 593 22 667 58 q 419 -14 519 -14 m 150 1125 l 342 1319 l 492 1319 l 683 1125 l 524 1125 l 415 1228 l 313 1125 l 150 1125 z "},"Ș":{"ha":833,"x_min":85,"x_max":749,"o":"m 419 -14 q 242 21 317 -14 q 126 119 167 56 q 85 269 85 183 l 246 269 q 293 167 246 204 q 422 129 340 129 q 543 166 499 129 q 588 268 588 203 q 557 362 588 322 q 469 415 526 401 l 347 450 q 169 560 232 482 q 107 747 107 639 q 145 896 107 833 q 253 994 183 958 q 419 1029 324 1029 q 649 953 564 1029 q 735 751 733 878 l 572 751 q 532 850 572 814 q 418 886 492 886 q 308 852 347 886 q 268 758 268 818 q 298 664 268 703 q 383 608 328 625 l 510 572 q 687 464 625 542 q 749 274 749 386 q 708 123 749 188 q 593 22 667 58 q 419 -14 519 -14 m 254 -333 l 386 -132 l 560 -132 l 408 -333 l 254 -333 z "},"ẞ":{"ha":833,"x_min":108,"x_max":761,"o":"m 108 0 l 108 719 q 146 875 108 808 q 253 978 183 942 q 415 1014 324 1014 l 746 1014 l 746 860 l 486 540 l 478 589 q 628 555 564 590 q 726 453 692 519 q 761 299 761 388 q 722 142 761 210 q 611 38 682 75 q 443 0 540 0 l 358 0 l 358 140 l 432 140 q 552 185 508 140 q 596 306 596 231 q 551 424 596 381 q 432 468 507 468 l 368 468 l 368 597 l 589 874 l 415 874 q 303 833 344 874 q 261 719 261 792 l 261 0 l 108 0 z "},"Ə":{"ha":833,"x_min":107,"x_max":726,"o":"m 417 -14 q 253 23 322 -14 q 145 127 183 60 q 107 283 107 194 l 107 565 l 565 565 l 565 731 q 528 846 565 806 q 417 886 490 886 q 307 846 344 886 q 269 731 269 806 l 108 731 q 146 888 108 821 q 252 992 183 956 q 417 1028 321 1028 q 584 992 515 1028 q 690 889 653 956 q 726 731 726 822 l 726 283 q 689 127 726 194 q 582 23 651 60 q 417 -14 513 -14 m 417 115 q 531 159 496 115 q 565 283 565 203 l 565 443 l 257 443 l 268 456 l 268 283 q 305 158 268 200 q 417 115 342 115 z "},"T":{"ha":833,"x_min":67,"x_max":767,"o":"m 336 0 l 336 865 l 67 865 l 67 1015 l 767 1015 l 767 865 l 497 865 l 497 0 l 336 0 z "},"Ŧ":{"ha":833,"x_min":67,"x_max":767,"o":"m 147 397 l 147 526 l 686 526 l 686 397 l 147 397 m 336 0 l 336 865 l 67 865 l 67 1015 l 767 1015 l 767 865 l 497 865 l 497 0 l 336 0 z "},"Ť":{"ha":833,"x_min":67,"x_max":767,"o":"m 336 0 l 336 865 l 67 865 l 67 1015 l 767 1015 l 767 865 l 497 865 l 497 0 l 336 0 m 342 1125 l 150 1319 l 310 1319 l 418 1217 l 521 1319 l 683 1319 l 492 1125 l 342 1125 z "},"Ţ":{"ha":833,"x_min":67,"x_max":767,"o":"m 349 -296 l 349 -210 l 451 -210 q 503 -194 483 -210 q 524 -160 524 -178 q 483 -114 524 -132 q 371 -96 443 -96 l 419 31 l 497 0 l 481 -51 q 561 -69 519 -54 q 632 -110 603 -83 q 661 -175 661 -136 q 612 -260 661 -224 q 482 -296 563 -296 l 349 -296 m 336 0 l 336 865 l 67 865 l 67 1015 l 767 1015 l 767 865 l 497 865 l 497 0 l 336 0 z "},"Ț":{"ha":833,"x_min":67,"x_max":767,"o":"m 336 0 l 336 865 l 67 865 l 67 1015 l 767 1015 l 767 865 l 497 865 l 497 0 l 336 0 m 203 -333 l 335 -132 l 508 -132 l 357 -333 l 203 -333 z "},"U":{"ha":833,"x_min":107,"x_max":726,"o":"m 417 -14 q 188 67 269 -14 q 107 286 107 147 l 107 1014 l 268 1014 l 268 288 q 306 170 268 213 q 417 128 343 128 q 527 170 489 128 q 565 288 565 213 l 565 1014 l 726 1014 l 726 286 q 646 67 726 147 q 417 -14 565 -14 z "},"Ú":{"ha":833,"x_min":107,"x_max":726,"o":"m 417 -14 q 188 67 269 -14 q 107 286 107 147 l 107 1014 l 268 1014 l 268 288 q 306 170 268 213 q 417 128 343 128 q 527 170 489 128 q 565 288 565 213 l 565 1014 l 726 1014 l 726 286 q 646 67 726 147 q 417 -14 565 -14 m 318 1125 l 464 1319 l 639 1319 l 481 1125 l 318 1125 z "},"Ŭ":{"ha":833,"x_min":107,"x_max":726,"o":"m 417 -14 q 188 67 269 -14 q 107 286 107 147 l 107 1014 l 268 1014 l 268 288 q 306 170 268 213 q 417 128 343 128 q 527 170 489 128 q 565 288 565 213 l 565 1014 l 726 1014 l 726 286 q 646 67 726 147 q 417 -14 565 -14 m 417 1115 q 245 1172 311 1115 q 179 1319 179 1228 l 306 1319 q 335 1243 306 1272 q 415 1214 365 1214 q 498 1243 467 1214 q 529 1319 529 1272 l 654 1319 q 589 1172 654 1228 q 417 1115 524 1115 z "},"Û":{"ha":833,"x_min":107,"x_max":726,"o":"m 417 -14 q 188 67 269 -14 q 107 286 107 147 l 107 1014 l 268 1014 l 268 288 q 306 170 268 213 q 417 128 343 128 q 527 170 489 128 q 565 288 565 213 l 565 1014 l 726 1014 l 726 286 q 646 67 726 147 q 417 -14 565 -14 m 150 1125 l 342 1319 l 492 1319 l 683 1125 l 524 1125 l 415 1228 l 313 1125 l 150 1125 z "},"Ü":{"ha":833,"x_min":107,"x_max":726,"o":"m 417 -14 q 188 67 269 -14 q 107 286 107 147 l 107 1014 l 268 1014 l 268 288 q 306 170 268 213 q 417 128 343 128 q 527 170 489 128 q 565 288 565 213 l 565 1014 l 726 1014 l 726 286 q 646 67 726 147 q 417 -14 565 -14 m 578 1125 q 506 1151 532 1125 q 479 1222 479 1178 q 506 1294 479 1268 q 578 1321 532 1321 q 649 1294 622 1321 q 676 1222 676 1268 q 649 1151 676 1178 q 578 1125 622 1125 m 256 1125 q 184 1151 211 1125 q 157 1222 157 1178 q 184 1294 157 1268 q 256 1321 211 1321 q 328 1294 301 1321 q 354 1222 354 1268 q 328 1151 354 1178 q 256 1125 301 1125 z "},"Ụ":{"ha":833,"x_min":107,"x_max":726,"o":"m 417 -14 q 188 67 269 -14 q 107 286 107 147 l 107 1014 l 268 1014 l 268 288 q 306 170 268 213 q 417 128 343 128 q 527 170 489 128 q 565 288 565 213 l 565 1014 l 726 1014 l 726 286 q 646 67 726 147 q 417 -14 565 -14 m 417 -308 q 336 -282 365 -308 q 307 -211 307 -256 q 336 -140 307 -167 q 417 -112 365 -112 q 497 -140 468 -112 q 526 -211 526 -167 q 497 -282 526 -256 q 417 -308 468 -308 z "},"Ù":{"ha":833,"x_min":107,"x_max":726,"o":"m 417 -14 q 188 67 269 -14 q 107 286 107 147 l 107 1014 l 268 1014 l 268 288 q 306 170 268 213 q 417 128 343 128 q 527 170 489 128 q 565 288 565 213 l 565 1014 l 726 1014 l 726 286 q 646 67 726 147 q 417 -14 565 -14 m 353 1125 l 192 1319 l 371 1319 l 519 1125 l 353 1125 z "},"Ủ":{"ha":833,"x_min":107,"x_max":726,"o":"m 417 -14 q 188 67 269 -14 q 107 286 107 147 l 107 1014 l 268 1014 l 268 288 q 306 170 268 213 q 417 128 343 128 q 527 170 489 128 q 565 288 565 213 l 565 1014 l 726 1014 l 726 286 q 646 67 726 147 q 417 -14 565 -14 m 349 1108 l 414 1193 q 435 1236 435 1219 q 393 1261 435 1261 l 286 1261 l 286 1364 l 413 1364 q 518 1334 478 1364 q 558 1253 558 1304 q 531 1175 558 1211 l 482 1108 l 349 1108 z "},"Ư":{"ha":833,"x_min":107,"x_max":861,"o":"m 611 903 l 611 1014 l 681 1014 q 716 1027 703 1014 q 729 1063 729 1040 l 729 1167 l 861 1167 l 861 1058 q 815 945 861 988 q 690 903 768 903 l 611 903 m 417 -14 q 188 67 269 -14 q 107 286 107 147 l 107 1014 l 268 1014 l 268 288 q 306 170 268 213 q 417 128 343 128 q 527 170 489 128 q 565 288 565 213 l 565 1014 l 726 1014 l 726 286 q 646 67 726 147 q 417 -14 565 -14 z "},"Ứ":{"ha":833,"x_min":107,"x_max":861,"o":"m 611 903 l 611 1014 l 681 1014 q 716 1027 703 1014 q 729 1063 729 1040 l 729 1167 l 861 1167 l 861 1058 q 815 945 861 988 q 690 903 768 903 l 611 903 m 417 -14 q 188 67 269 -14 q 107 286 107 147 l 107 1014 l 268 1014 l 268 288 q 306 170 268 213 q 417 128 343 128 q 527 170 489 128 q 565 288 565 213 l 565 1014 l 726 1014 l 726 286 q 646 67 726 147 q 417 -14 565 -14 m 318 1125 l 464 1319 l 639 1319 l 481 1125 l 318 1125 z "},"Ự":{"ha":833,"x_min":107,"x_max":861,"o":"m 431 -308 q 350 -282 379 -308 q 321 -211 321 -256 q 350 -140 321 -167 q 431 -112 379 -112 q 511 -140 482 -112 q 540 -211 540 -167 q 511 -282 540 -256 q 431 -308 482 -308 m 611 903 l 611 1014 l 681 1014 q 716 1027 703 1014 q 729 1063 729 1040 l 729 1167 l 861 1167 l 861 1058 q 815 945 861 988 q 690 903 768 903 l 611 903 m 417 -14 q 188 67 269 -14 q 107 286 107 147 l 107 1014 l 268 1014 l 268 288 q 306 170 268 213 q 417 128 343 128 q 527 170 489 128 q 565 288 565 213 l 565 1014 l 726 1014 l 726 286 q 646 67 726 147 q 417 -14 565 -14 z "},"Ừ":{"ha":833,"x_min":107,"x_max":861,"o":"m 611 903 l 611 1014 l 681 1014 q 716 1027 703 1014 q 729 1063 729 1040 l 729 1167 l 861 1167 l 861 1058 q 815 945 861 988 q 690 903 768 903 l 611 903 m 417 -14 q 188 67 269 -14 q 107 286 107 147 l 107 1014 l 268 1014 l 268 288 q 306 170 268 213 q 417 128 343 128 q 527 170 489 128 q 565 288 565 213 l 565 1014 l 726 1014 l 726 286 q 646 67 726 147 q 417 -14 565 -14 m 353 1125 l 192 1319 l 371 1319 l 519 1125 l 353 1125 z "},"Ử":{"ha":833,"x_min":107,"x_max":861,"o":"m 611 903 l 611 1014 l 681 1014 q 716 1027 703 1014 q 729 1063 729 1040 l 729 1167 l 861 1167 l 861 1058 q 815 945 861 988 q 690 903 768 903 l 611 903 m 417 -14 q 188 67 269 -14 q 107 286 107 147 l 107 1014 l 268 1014 l 268 288 q 306 170 268 213 q 417 128 343 128 q 527 170 489 128 q 565 288 565 213 l 565 1014 l 726 1014 l 726 286 q 646 67 726 147 q 417 -14 565 -14 m 349 1108 l 414 1193 q 435 1236 435 1219 q 393 1261 435 1261 l 286 1261 l 286 1364 l 413 1364 q 518 1334 478 1364 q 558 1253 558 1304 q 531 1175 558 1211 l 482 1108 l 349 1108 z "},"Ữ":{"ha":833,"x_min":107,"x_max":861,"o":"m 611 903 l 611 1014 l 681 1014 q 716 1027 703 1014 q 729 1063 729 1040 l 729 1167 l 861 1167 l 861 1058 q 815 945 861 988 q 690 903 768 903 l 611 903 m 417 -14 q 188 67 269 -14 q 107 286 107 147 l 107 1014 l 268 1014 l 268 288 q 306 170 268 213 q 417 128 343 128 q 527 170 489 128 q 565 288 565 213 l 565 1014 l 726 1014 l 726 286 q 646 67 726 147 q 417 -14 565 -14 m 514 1122 q 444 1136 471 1122 q 400 1168 418 1150 q 365 1200 382 1186 q 326 1214 349 1214 q 297 1201 308 1214 q 285 1167 285 1189 l 285 1129 l 182 1129 l 182 1175 q 220 1282 182 1242 q 319 1322 258 1322 q 389 1308 363 1322 q 433 1276 415 1294 q 468 1244 451 1258 q 507 1231 485 1231 q 538 1242 526 1231 q 549 1275 549 1253 l 549 1315 l 651 1315 l 651 1269 q 614 1163 651 1203 q 514 1122 576 1122 z "},"Ű":{"ha":833,"x_min":107,"x_max":760,"o":"m 417 -14 q 188 67 269 -14 q 107 286 107 147 l 107 1014 l 268 1014 l 268 288 q 306 170 268 213 q 417 128 343 128 q 527 170 489 128 q 565 288 565 213 l 565 1014 l 726 1014 l 726 286 q 646 67 726 147 q 417 -14 565 -14 m 450 1125 l 600 1319 l 760 1319 l 600 1125 l 450 1125 m 178 1125 l 328 1319 l 488 1319 l 328 1125 l 178 1125 z "},"Ū":{"ha":833,"x_min":107,"x_max":726,"o":"m 417 -14 q 188 67 269 -14 q 107 286 107 147 l 107 1014 l 268 1014 l 268 288 q 306 170 268 213 q 417 128 343 128 q 527 170 489 128 q 565 288 565 213 l 565 1014 l 726 1014 l 726 286 q 646 67 726 147 q 417 -14 565 -14 m 182 1154 l 182 1281 l 651 1281 l 651 1154 l 182 1154 z "},"Ų":{"ha":833,"x_min":107,"x_max":726,"o":"m 511 -296 q 383 -256 431 -296 q 336 -156 336 -217 q 351 -102 336 -131 q 394 -45 367 -74 q 456 6 421 -17 q 444 -6 454 1 q 417 -14 435 -14 q 251 22 321 -14 q 144 126 182 58 q 107 283 107 193 l 107 1014 l 268 1014 l 268 283 q 306 169 268 210 q 417 129 344 129 q 528 169 490 129 q 565 283 565 210 l 565 1014 l 726 1014 l 726 283 q 693 135 726 200 q 600 32 660 69 l 547 -10 q 494 -70 510 -42 q 478 -122 478 -99 q 497 -167 478 -149 q 549 -185 517 -185 l 638 -185 l 638 -296 l 511 -296 z "},"Ů":{"ha":833,"x_min":107,"x_max":726,"o":"m 417 -14 q 188 67 269 -14 q 107 286 107 147 l 107 1014 l 268 1014 l 268 288 q 306 170 268 213 q 417 128 343 128 q 527 170 489 128 q 565 288 565 213 l 565 1014 l 726 1014 l 726 286 q 646 67 726 147 q 417 -14 565 -14 m 417 1056 q 287 1101 336 1056 q 238 1222 238 1147 q 287 1343 238 1297 q 417 1389 336 1389 q 547 1343 497 1389 q 596 1222 596 1297 q 547 1101 596 1147 q 417 1056 497 1056 m 417 1140 q 477 1163 454 1140 q 500 1222 500 1185 q 477 1283 500 1260 q 417 1306 454 1306 q 356 1283 379 1306 q 333 1222 333 1260 q 356 1163 333 1185 q 417 1140 379 1140 z "},"Ũ":{"ha":833,"x_min":107,"x_max":726,"o":"m 417 -14 q 188 67 269 -14 q 107 286 107 147 l 107 1014 l 268 1014 l 268 288 q 306 170 268 213 q 417 128 343 128 q 527 170 489 128 q 565 288 565 213 l 565 1014 l 726 1014 l 726 286 q 646 67 726 147 q 417 -14 565 -14 m 514 1122 q 444 1136 471 1122 q 400 1168 418 1150 q 365 1200 382 1186 q 326 1214 349 1214 q 297 1201 308 1214 q 285 1167 285 1189 l 285 1129 l 182 1129 l 182 1175 q 220 1282 182 1242 q 319 1322 258 1322 q 389 1308 363 1322 q 433 1276 415 1294 q 468 1244 451 1258 q 507 1231 485 1231 q 538 1242 526 1231 q 549 1275 549 1253 l 549 1315 l 651 1315 l 651 1269 q 614 1163 651 1203 q 514 1122 576 1122 z "},"V":{"ha":833,"x_min":54,"x_max":779,"o":"m 311 0 l 54 1014 l 221 1014 l 379 346 q 404 235 393 292 q 421 143 415 178 q 437 235 426 178 q 461 347 447 292 l 617 1014 l 779 1014 l 522 0 l 311 0 z "},"W":{"ha":833,"x_min":25,"x_max":808,"o":"m 132 0 l 25 1014 l 168 1014 l 233 296 q 237 237 235 271 q 241 169 239 203 q 243 111 243 136 q 249 169 246 136 q 256 237 251 203 q 263 296 260 271 l 349 1014 l 490 1014 l 571 296 q 577 237 574 271 q 585 169 581 203 q 590 111 589 136 q 594 169 592 136 q 599 237 596 203 q 603 296 601 271 l 668 1014 l 808 1014 l 696 0 l 513 0 l 435 724 q 429 786 432 753 q 424 853 426 819 q 418 910 421 886 q 414 853 417 886 q 408 786 411 819 q 401 724 406 753 l 317 0 l 132 0 z "},"Ẃ":{"ha":833,"x_min":25,"x_max":808,"o":"m 132 0 l 25 1014 l 168 1014 l 233 296 q 237 237 235 271 q 241 169 239 203 q 243 111 243 136 q 249 169 246 136 q 256 237 251 203 q 263 296 260 271 l 349 1014 l 490 1014 l 571 296 q 577 237 574 271 q 585 169 581 203 q 590 111 589 136 q 594 169 592 136 q 599 237 596 203 q 603 296 601 271 l 668 1014 l 808 1014 l 696 0 l 513 0 l 435 724 q 429 786 432 753 q 424 853 426 819 q 418 910 421 886 q 414 853 417 886 q 408 786 411 819 q 401 724 406 753 l 317 0 l 132 0 m 318 1125 l 464 1319 l 639 1319 l 481 1125 l 318 1125 z "},"Ŵ":{"ha":833,"x_min":25,"x_max":808,"o":"m 132 0 l 25 1014 l 168 1014 l 233 296 q 237 237 235 271 q 241 169 239 203 q 243 111 243 136 q 249 169 246 136 q 256 237 251 203 q 263 296 260 271 l 349 1014 l 490 1014 l 571 296 q 577 237 574 271 q 585 169 581 203 q 590 111 589 136 q 594 169 592 136 q 599 237 596 203 q 603 296 601 271 l 668 1014 l 808 1014 l 696 0 l 513 0 l 435 724 q 429 786 432 753 q 424 853 426 819 q 418 910 421 886 q 414 853 417 886 q 408 786 411 819 q 401 724 406 753 l 317 0 l 132 0 m 150 1125 l 342 1319 l 492 1319 l 683 1125 l 524 1125 l 415 1228 l 313 1125 l 150 1125 z "},"Ẅ":{"ha":833,"x_min":25,"x_max":808,"o":"m 132 0 l 25 1014 l 168 1014 l 233 296 q 237 237 235 271 q 241 169 239 203 q 243 111 243 136 q 249 169 246 136 q 256 237 251 203 q 263 296 260 271 l 349 1014 l 490 1014 l 571 296 q 577 237 574 271 q 585 169 581 203 q 590 111 589 136 q 594 169 592 136 q 599 237 596 203 q 603 296 601 271 l 668 1014 l 808 1014 l 696 0 l 513 0 l 435 724 q 429 786 432 753 q 424 853 426 819 q 418 910 421 886 q 414 853 417 886 q 408 786 411 819 q 401 724 406 753 l 317 0 l 132 0 m 578 1125 q 506 1151 532 1125 q 479 1222 479 1178 q 506 1294 479 1268 q 578 1321 532 1321 q 649 1294 622 1321 q 676 1222 676 1268 q 649 1151 676 1178 q 578 1125 622 1125 m 256 1125 q 184 1151 211 1125 q 157 1222 157 1178 q 184 1294 157 1268 q 256 1321 211 1321 q 328 1294 301 1321 q 354 1222 354 1268 q 328 1151 354 1178 q 256 1125 301 1125 z "},"Ẁ":{"ha":833,"x_min":25,"x_max":808,"o":"m 132 0 l 25 1014 l 168 1014 l 233 296 q 237 237 235 271 q 241 169 239 203 q 243 111 243 136 q 249 169 246 136 q 256 237 251 203 q 263 296 260 271 l 349 1014 l 490 1014 l 571 296 q 577 237 574 271 q 585 169 581 203 q 590 111 589 136 q 594 169 592 136 q 599 237 596 203 q 603 296 601 271 l 668 1014 l 808 1014 l 696 0 l 513 0 l 435 724 q 429 786 432 753 q 424 853 426 819 q 418 910 421 886 q 414 853 417 886 q 408 786 411 819 q 401 724 406 753 l 317 0 l 132 0 m 353 1125 l 192 1319 l 371 1319 l 519 1125 l 353 1125 z "},"X":{"ha":833,"x_min":43,"x_max":790,"o":"m 43 0 l 326 518 l 60 1014 l 242 1014 l 376 749 q 402 696 390 722 q 419 656 414 669 q 436 696 425 669 q 461 749 447 722 l 599 1014 l 774 1014 l 507 522 l 790 0 l 608 0 l 458 290 q 433 344 444 317 q 414 386 421 371 q 397 344 408 371 q 371 292 385 318 l 219 0 l 43 0 z "},"Y":{"ha":833,"x_min":36,"x_max":797,"o":"m 336 0 l 336 371 l 36 1014 l 204 1014 l 374 646 q 403 571 392 607 q 419 514 415 535 q 435 571 424 535 q 464 646 447 607 l 629 1014 l 797 1014 l 497 371 l 497 0 l 336 0 z "},"Ý":{"ha":833,"x_min":36,"x_max":797,"o":"m 336 0 l 336 371 l 36 1014 l 204 1014 l 374 646 q 403 571 392 607 q 419 514 415 535 q 435 571 424 535 q 464 646 447 607 l 629 1014 l 797 1014 l 497 371 l 497 0 l 336 0 m 318 1125 l 464 1319 l 639 1319 l 481 1125 l 318 1125 z "},"Ŷ":{"ha":833,"x_min":36,"x_max":797,"o":"m 336 0 l 336 371 l 36 1014 l 204 1014 l 374 646 q 403 571 392 607 q 419 514 415 535 q 435 571 424 535 q 464 646 447 607 l 629 1014 l 797 1014 l 497 371 l 497 0 l 336 0 m 150 1125 l 342 1319 l 492 1319 l 683 1125 l 524 1125 l 415 1228 l 313 1125 l 150 1125 z "},"Ÿ":{"ha":833,"x_min":36,"x_max":797,"o":"m 336 0 l 336 371 l 36 1014 l 204 1014 l 374 646 q 403 571 392 607 q 419 514 415 535 q 435 571 424 535 q 464 646 447 607 l 629 1014 l 797 1014 l 497 371 l 497 0 l 336 0 m 578 1125 q 506 1151 532 1125 q 479 1222 479 1178 q 506 1294 479 1268 q 578 1321 532 1321 q 649 1294 622 1321 q 676 1222 676 1268 q 649 1151 676 1178 q 578 1125 622 1125 m 256 1125 q 184 1151 211 1125 q 157 1222 157 1178 q 184 1294 157 1268 q 256 1321 211 1321 q 328 1294 301 1321 q 354 1222 354 1268 q 328 1151 354 1178 q 256 1125 301 1125 z "},"Ỵ":{"ha":833,"x_min":36,"x_max":797,"o":"m 336 0 l 336 371 l 36 1014 l 204 1014 l 374 646 q 403 571 392 607 q 419 514 415 535 q 435 571 424 535 q 464 646 447 607 l 629 1014 l 797 1014 l 497 371 l 497 0 l 336 0 m 431 -308 q 350 -282 379 -308 q 321 -211 321 -256 q 350 -140 321 -167 q 431 -112 379 -112 q 511 -140 482 -112 q 540 -211 540 -167 q 511 -282 540 -256 q 431 -308 482 -308 z "},"Ỳ":{"ha":833,"x_min":36,"x_max":797,"o":"m 336 0 l 336 371 l 36 1014 l 204 1014 l 374 646 q 403 571 392 607 q 419 514 415 535 q 435 571 424 535 q 464 646 447 607 l 629 1014 l 797 1014 l 497 371 l 497 0 l 336 0 m 353 1125 l 192 1319 l 371 1319 l 519 1125 l 353 1125 z "},"Ỷ":{"ha":833,"x_min":36,"x_max":797,"o":"m 336 0 l 336 371 l 36 1014 l 204 1014 l 374 646 q 403 571 392 607 q 419 514 415 535 q 435 571 424 535 q 464 646 447 607 l 629 1014 l 797 1014 l 497 371 l 497 0 l 336 0 m 349 1108 l 414 1193 q 435 1236 435 1219 q 393 1261 435 1261 l 286 1261 l 286 1364 l 413 1364 q 518 1334 478 1364 q 558 1253 558 1304 q 531 1175 558 1211 l 482 1108 l 349 1108 z "},"Ȳ":{"ha":833,"x_min":36,"x_max":797,"o":"m 336 0 l 336 371 l 36 1014 l 204 1014 l 374 646 q 403 571 392 607 q 419 514 415 535 q 435 571 424 535 q 464 646 447 607 l 629 1014 l 797 1014 l 497 371 l 497 0 l 336 0 m 182 1154 l 182 1281 l 651 1281 l 651 1154 l 182 1154 z "},"Ỹ":{"ha":833,"x_min":36,"x_max":797,"o":"m 336 0 l 336 371 l 36 1014 l 204 1014 l 374 646 q 403 571 392 607 q 419 514 415 535 q 435 571 424 535 q 464 646 447 607 l 629 1014 l 797 1014 l 497 371 l 497 0 l 336 0 m 514 1122 q 444 1136 471 1122 q 400 1168 418 1150 q 365 1200 382 1186 q 326 1214 349 1214 q 297 1201 308 1214 q 285 1167 285 1189 l 285 1129 l 182 1129 l 182 1175 q 220 1282 182 1242 q 319 1322 258 1322 q 389 1308 363 1322 q 433 1276 415 1294 q 468 1244 451 1258 q 507 1231 485 1231 q 538 1242 526 1231 q 549 1275 549 1253 l 549 1315 l 651 1315 l 651 1269 q 614 1163 651 1203 q 514 1122 576 1122 z "},"Z":{"ha":833,"x_min":113,"x_max":721,"o":"m 113 0 l 113 156 l 532 864 l 121 864 l 121 1014 l 707 1014 l 707 858 l 288 150 l 721 150 l 721 0 l 113 0 z "},"Ź":{"ha":833,"x_min":113,"x_max":721,"o":"m 113 0 l 113 156 l 532 864 l 121 864 l 121 1014 l 707 1014 l 707 858 l 288 150 l 721 150 l 721 0 l 113 0 m 318 1125 l 464 1319 l 639 1319 l 481 1125 l 318 1125 z "},"Ž":{"ha":833,"x_min":113,"x_max":721,"o":"m 113 0 l 113 156 l 532 864 l 121 864 l 121 1014 l 707 1014 l 707 858 l 288 150 l 721 150 l 721 0 l 113 0 m 342 1125 l 150 1319 l 310 1319 l 418 1217 l 521 1319 l 683 1319 l 492 1125 l 342 1125 z "},"Ż":{"ha":833,"x_min":113,"x_max":721,"o":"m 113 0 l 113 156 l 532 864 l 121 864 l 121 1014 l 707 1014 l 707 858 l 288 150 l 721 150 l 721 0 l 113 0 m 417 1125 q 336 1151 365 1125 q 307 1222 307 1178 q 336 1293 307 1267 q 417 1319 365 1319 q 497 1293 468 1319 q 526 1222 526 1267 q 497 1151 526 1178 q 417 1125 468 1125 z "},"a":{"ha":833,"x_min":81,"x_max":725,"o":"m 336 -14 q 149 48 218 -14 q 81 217 81 110 q 155 389 81 328 q 361 450 229 450 l 563 450 l 563 518 q 525 610 563 576 q 421 643 488 643 q 322 617 361 643 q 275 547 282 592 l 117 547 q 213 715 129 653 q 425 778 297 778 q 644 708 564 778 q 725 519 725 639 l 725 0 l 567 0 l 567 136 l 540 136 l 568 169 q 504 35 568 85 q 336 -14 440 -14 m 388 108 q 513 148 464 108 q 563 249 563 188 l 563 346 l 364 346 q 275 315 308 346 q 242 231 242 283 q 281 141 242 174 q 388 108 319 108 z "},"á":{"ha":833,"x_min":81,"x_max":725,"o":"m 336 -14 q 149 48 218 -14 q 81 217 81 110 q 155 389 81 328 q 361 450 229 450 l 563 450 l 563 518 q 525 610 563 576 q 421 643 488 643 q 322 617 361 643 q 275 547 282 592 l 117 547 q 213 715 129 653 q 425 778 297 778 q 644 708 564 778 q 725 519 725 639 l 725 0 l 567 0 l 567 136 l 540 136 l 568 169 q 504 35 568 85 q 336 -14 440 -14 m 388 108 q 513 148 464 108 q 563 249 563 188 l 563 346 l 364 346 q 275 315 308 346 q 242 231 242 283 q 281 141 242 174 q 388 108 319 108 m 325 896 l 471 1090 l 646 1090 l 488 896 l 325 896 z "},"ă":{"ha":833,"x_min":81,"x_max":725,"o":"m 336 -14 q 149 48 218 -14 q 81 217 81 110 q 155 389 81 328 q 361 450 229 450 l 563 450 l 563 518 q 525 610 563 576 q 421 643 488 643 q 322 617 361 643 q 275 547 282 592 l 117 547 q 213 715 129 653 q 425 778 297 778 q 644 708 564 778 q 725 519 725 639 l 725 0 l 567 0 l 567 136 l 540 136 l 568 169 q 504 35 568 85 q 336 -14 440 -14 m 388 108 q 513 148 464 108 q 563 249 563 188 l 563 346 l 364 346 q 275 315 308 346 q 242 231 242 283 q 281 141 242 174 q 388 108 319 108 m 424 886 q 252 942 318 886 q 186 1090 186 999 l 311 1090 q 342 1014 311 1043 q 422 985 372 985 q 505 1014 474 985 q 536 1090 536 1043 l 661 1090 q 596 942 661 999 q 424 886 531 886 z "},"ắ":{"ha":833,"x_min":81,"x_max":725,"o":"m 336 -14 q 149 48 218 -14 q 81 217 81 110 q 155 389 81 328 q 361 450 229 450 l 563 450 l 563 518 q 525 610 563 576 q 421 643 488 643 q 322 617 361 643 q 275 547 282 592 l 117 547 q 213 715 129 653 q 425 778 297 778 q 644 708 564 778 q 725 519 725 639 l 725 0 l 567 0 l 567 136 l 540 136 l 568 169 q 504 35 568 85 q 336 -14 440 -14 m 388 108 q 513 148 464 108 q 563 249 563 188 l 563 346 l 364 346 q 275 315 308 346 q 242 231 242 283 q 281 141 242 174 q 388 108 319 108 m 417 889 q 240 940 308 889 q 171 1075 171 992 l 293 1075 q 326 1014 293 1038 q 417 990 360 990 q 507 1014 474 990 q 540 1075 540 1038 l 663 1075 q 594 940 663 992 q 417 889 526 889 m 328 1074 l 488 1261 l 642 1261 l 472 1074 l 328 1074 z "},"ặ":{"ha":833,"x_min":81,"x_max":725,"o":"m 426 886 q 255 942 321 886 q 189 1090 189 999 l 314 1090 q 344 1014 314 1043 q 425 985 375 985 q 508 1014 476 985 q 539 1090 539 1043 l 664 1090 q 599 942 664 999 q 426 886 533 886 m 336 -14 q 149 48 218 -14 q 81 217 81 110 q 155 389 81 328 q 361 450 229 450 l 563 450 l 563 518 q 525 610 563 576 q 421 643 488 643 q 322 617 361 643 q 275 547 282 592 l 117 547 q 213 715 129 653 q 425 778 297 778 q 644 708 564 778 q 725 519 725 639 l 725 0 l 567 0 l 567 136 l 540 136 l 568 169 q 504 35 568 85 q 336 -14 440 -14 m 388 108 q 513 148 464 108 q 563 249 563 188 l 563 346 l 364 346 q 275 315 308 346 q 242 231 242 283 q 281 141 242 174 q 388 108 319 108 m 424 -308 q 343 -282 372 -308 q 314 -211 314 -256 q 343 -140 314 -167 q 424 -112 372 -112 q 504 -140 475 -112 q 533 -211 533 -167 q 504 -282 533 -256 q 424 -308 475 -308 z "},"ằ":{"ha":833,"x_min":81,"x_max":725,"o":"m 336 -14 q 149 48 218 -14 q 81 217 81 110 q 155 389 81 328 q 361 450 229 450 l 563 450 l 563 518 q 525 610 563 576 q 421 643 488 643 q 322 617 361 643 q 275 547 282 592 l 117 547 q 213 715 129 653 q 425 778 297 778 q 644 708 564 778 q 725 519 725 639 l 725 0 l 567 0 l 567 136 l 540 136 l 568 169 q 504 35 568 85 q 336 -14 440 -14 m 388 108 q 513 148 464 108 q 563 249 563 188 l 563 346 l 364 346 q 275 315 308 346 q 242 231 242 283 q 281 141 242 174 q 388 108 319 108 m 417 889 q 240 940 308 889 q 171 1075 171 992 l 293 1075 q 326 1014 293 1038 q 417 990 360 990 q 507 1014 474 990 q 540 1075 540 1038 l 663 1075 q 594 940 663 992 q 417 889 526 889 m 361 1074 l 192 1261 l 346 1261 l 506 1074 l 361 1074 z "},"ẳ":{"ha":833,"x_min":81,"x_max":725,"o":"m 336 -14 q 149 48 218 -14 q 81 217 81 110 q 155 389 81 328 q 361 450 229 450 l 563 450 l 563 518 q 525 610 563 576 q 421 643 488 643 q 322 617 361 643 q 275 547 282 592 l 117 547 q 213 715 129 653 q 425 778 297 778 q 644 708 564 778 q 725 519 725 639 l 725 0 l 567 0 l 567 136 l 540 136 l 568 169 q 504 35 568 85 q 336 -14 440 -14 m 388 108 q 513 148 464 108 q 563 249 563 188 l 563 346 l 364 346 q 275 315 308 346 q 242 231 242 283 q 281 141 242 174 q 388 108 319 108 m 417 889 q 240 940 308 889 q 171 1075 171 992 l 293 1075 q 326 1014 293 1038 q 417 990 360 990 q 507 1014 474 990 q 540 1075 540 1038 l 663 1075 q 594 940 663 992 q 417 889 526 889 m 343 1074 l 406 1154 q 422 1192 422 1174 q 413 1213 422 1206 q 385 1221 404 1221 l 297 1221 l 297 1319 l 408 1319 q 508 1290 469 1319 q 546 1211 546 1260 q 539 1172 546 1192 q 518 1136 532 1151 l 472 1074 l 343 1074 z "},"ẵ":{"ha":833,"x_min":81,"x_max":725,"o":"m 336 -14 q 149 48 218 -14 q 81 217 81 110 q 155 389 81 328 q 361 450 229 450 l 563 450 l 563 518 q 525 610 563 576 q 421 643 488 643 q 322 617 361 643 q 275 547 282 592 l 117 547 q 213 715 129 653 q 425 778 297 778 q 644 708 564 778 q 725 519 725 639 l 725 0 l 567 0 l 567 136 l 540 136 l 568 169 q 504 35 568 85 q 336 -14 440 -14 m 388 108 q 513 148 464 108 q 563 249 563 188 l 563 346 l 364 346 q 275 315 308 346 q 242 231 242 283 q 281 141 242 174 q 388 108 319 108 m 417 893 q 245 944 311 893 q 179 1079 179 996 l 297 1079 q 329 1017 297 1040 q 415 994 361 994 q 503 1017 471 994 q 536 1079 536 1040 l 654 1079 q 588 944 654 996 q 417 893 522 893 m 511 1124 q 440 1138 467 1124 q 397 1169 414 1151 q 365 1201 381 1188 q 326 1215 349 1215 q 296 1204 307 1215 q 285 1172 285 1193 l 285 1133 l 182 1133 l 182 1169 q 221 1271 182 1233 q 322 1308 260 1308 q 393 1294 367 1308 q 436 1263 419 1281 q 469 1231 453 1244 q 507 1217 485 1217 q 549 1257 549 1217 l 549 1299 l 651 1299 l 651 1263 q 613 1162 651 1200 q 511 1124 574 1124 z "},"ǎ":{"ha":833,"x_min":81,"x_max":725,"o":"m 336 -14 q 149 48 218 -14 q 81 217 81 110 q 155 389 81 328 q 361 450 229 450 l 563 450 l 563 518 q 525 610 563 576 q 421 643 488 643 q 322 617 361 643 q 275 547 282 592 l 117 547 q 213 715 129 653 q 425 778 297 778 q 644 708 564 778 q 725 519 725 639 l 725 0 l 567 0 l 567 136 l 540 136 l 568 169 q 504 35 568 85 q 336 -14 440 -14 m 388 108 q 513 148 464 108 q 563 249 563 188 l 563 346 l 364 346 q 275 315 308 346 q 242 231 242 283 q 281 141 242 174 q 388 108 319 108 m 349 896 l 157 1090 l 317 1090 l 425 988 l 528 1090 l 690 1090 l 499 896 l 349 896 z "},"â":{"ha":833,"x_min":81,"x_max":725,"o":"m 336 -14 q 149 48 218 -14 q 81 217 81 110 q 155 389 81 328 q 361 450 229 450 l 563 450 l 563 518 q 525 610 563 576 q 421 643 488 643 q 322 617 361 643 q 275 547 282 592 l 117 547 q 213 715 129 653 q 425 778 297 778 q 644 708 564 778 q 725 519 725 639 l 725 0 l 567 0 l 567 136 l 540 136 l 568 169 q 504 35 568 85 q 336 -14 440 -14 m 388 108 q 513 148 464 108 q 563 249 563 188 l 563 346 l 364 346 q 275 315 308 346 q 242 231 242 283 q 281 141 242 174 q 388 108 319 108 m 157 896 l 349 1090 l 499 1090 l 690 896 l 531 896 l 422 999 l 319 896 l 157 896 z "},"ấ":{"ha":833,"x_min":81,"x_max":906,"o":"m 336 -14 q 149 48 218 -14 q 81 217 81 110 q 155 389 81 328 q 361 450 229 450 l 563 450 l 563 518 q 525 610 563 576 q 421 643 488 643 q 322 617 361 643 q 275 547 282 592 l 117 547 q 213 715 129 653 q 425 778 297 778 q 644 708 564 778 q 725 519 725 639 l 725 0 l 567 0 l 567 136 l 540 136 l 568 169 q 504 35 568 85 q 336 -14 440 -14 m 388 108 q 513 148 464 108 q 563 249 563 188 l 563 346 l 364 346 q 275 315 308 346 q 242 231 242 283 q 281 141 242 174 q 388 108 319 108 m 575 1056 l 739 1250 l 906 1250 l 732 1056 l 575 1056 m 151 896 l 342 1090 l 492 1090 l 683 896 l 521 896 l 417 999 l 311 896 l 151 896 z "},"ậ":{"ha":833,"x_min":81,"x_max":725,"o":"m 157 896 l 349 1090 l 499 1090 l 690 896 l 531 896 l 422 999 l 319 896 l 157 896 m 336 -14 q 149 48 218 -14 q 81 217 81 110 q 155 389 81 328 q 361 450 229 450 l 563 450 l 563 518 q 525 610 563 576 q 421 643 488 643 q 322 617 361 643 q 275 547 282 592 l 117 547 q 213 715 129 653 q 425 778 297 778 q 644 708 564 778 q 725 519 725 639 l 725 0 l 567 0 l 567 136 l 540 136 l 568 169 q 504 35 568 85 q 336 -14 440 -14 m 388 108 q 513 148 464 108 q 563 249 563 188 l 563 346 l 364 346 q 275 315 308 346 q 242 231 242 283 q 281 141 242 174 q 388 108 319 108 m 424 -308 q 343 -282 372 -308 q 314 -211 314 -256 q 343 -140 314 -167 q 424 -112 372 -112 q 504 -140 475 -112 q 533 -211 533 -167 q 504 -282 533 -256 q 424 -308 475 -308 z "},"ầ":{"ha":833,"x_min":81,"x_max":797,"o":"m 336 -14 q 149 48 218 -14 q 81 217 81 110 q 155 389 81 328 q 361 450 229 450 l 563 450 l 563 518 q 525 610 563 576 q 421 643 488 643 q 322 617 361 643 q 275 547 282 592 l 117 547 q 213 715 129 653 q 425 778 297 778 q 644 708 564 778 q 725 519 725 639 l 725 0 l 567 0 l 567 136 l 540 136 l 568 169 q 504 35 568 85 q 336 -14 440 -14 m 388 108 q 513 148 464 108 q 563 249 563 188 l 563 346 l 364 346 q 275 315 308 346 q 242 231 242 283 q 281 141 242 174 q 388 108 319 108 m 640 1056 l 460 1250 l 626 1250 l 797 1056 l 640 1056 m 151 896 l 342 1090 l 492 1090 l 683 896 l 521 896 l 417 999 l 311 896 l 151 896 z "},"ẩ":{"ha":833,"x_min":81,"x_max":789,"o":"m 336 -14 q 149 48 218 -14 q 81 217 81 110 q 155 389 81 328 q 361 450 229 450 l 563 450 l 563 518 q 525 610 563 576 q 421 643 488 643 q 322 617 361 643 q 275 547 282 592 l 117 547 q 213 715 129 653 q 425 778 297 778 q 644 708 564 778 q 725 519 725 639 l 725 0 l 567 0 l 567 136 l 540 136 l 568 169 q 504 35 568 85 q 336 -14 440 -14 m 388 108 q 513 148 464 108 q 563 249 563 188 l 563 346 l 364 346 q 275 315 308 346 q 242 231 242 283 q 281 141 242 174 q 388 108 319 108 m 588 1056 l 653 1139 q 668 1175 668 1160 q 658 1197 668 1190 q 628 1204 647 1204 l 539 1204 l 539 1303 l 646 1303 q 750 1273 711 1303 q 789 1193 789 1243 q 782 1156 789 1174 q 761 1119 775 1138 l 713 1056 l 588 1056 m 151 896 l 342 1090 l 492 1090 l 683 896 l 521 896 l 417 999 l 311 896 l 151 896 z "},"ẫ":{"ha":833,"x_min":81,"x_max":725,"o":"m 336 -14 q 149 48 218 -14 q 81 217 81 110 q 155 389 81 328 q 361 450 229 450 l 563 450 l 563 518 q 525 610 563 576 q 421 643 488 643 q 322 617 361 643 q 275 547 282 592 l 117 547 q 213 715 129 653 q 425 778 297 778 q 644 708 564 778 q 725 519 725 639 l 725 0 l 567 0 l 567 136 l 540 136 l 568 169 q 504 35 568 85 q 336 -14 440 -14 m 388 108 q 513 148 464 108 q 563 249 563 188 l 563 346 l 364 346 q 275 315 308 346 q 242 231 242 283 q 281 141 242 174 q 388 108 319 108 m 511 1136 q 440 1149 467 1136 q 397 1179 414 1163 q 365 1208 381 1196 q 326 1221 349 1221 q 296 1210 307 1221 q 285 1178 285 1199 l 285 1144 l 182 1144 l 182 1176 q 221 1277 182 1239 q 322 1315 260 1315 q 393 1302 367 1315 q 436 1272 419 1289 q 469 1242 453 1256 q 507 1229 485 1229 q 549 1269 549 1229 l 549 1304 l 651 1304 l 651 1275 q 613 1174 651 1213 q 511 1136 574 1136 m 151 896 l 342 1090 l 492 1090 l 683 896 l 521 896 l 417 999 l 311 896 l 151 896 z "},"ä":{"ha":833,"x_min":81,"x_max":725,"o":"m 336 -14 q 149 48 218 -14 q 81 217 81 110 q 155 389 81 328 q 361 450 229 450 l 563 450 l 563 518 q 525 610 563 576 q 421 643 488 643 q 322 617 361 643 q 275 547 282 592 l 117 547 q 213 715 129 653 q 425 778 297 778 q 644 708 564 778 q 725 519 725 639 l 725 0 l 567 0 l 567 136 l 540 136 l 568 169 q 504 35 568 85 q 336 -14 440 -14 m 388 108 q 513 148 464 108 q 563 249 563 188 l 563 346 l 364 346 q 275 315 308 346 q 242 231 242 283 q 281 141 242 174 q 388 108 319 108 m 585 894 q 513 920 539 894 q 486 990 486 946 q 513 1063 486 1036 q 585 1089 539 1089 q 656 1063 629 1089 q 683 990 683 1036 q 656 920 683 946 q 585 894 629 894 m 263 894 q 191 920 218 894 q 164 990 164 946 q 191 1063 164 1036 q 263 1089 218 1089 q 335 1063 308 1089 q 361 990 361 1036 q 335 920 361 946 q 263 894 308 894 z "},"ạ":{"ha":833,"x_min":81,"x_max":725,"o":"m 336 -14 q 149 48 218 -14 q 81 217 81 110 q 155 389 81 328 q 361 450 229 450 l 563 450 l 563 518 q 525 610 563 576 q 421 643 488 643 q 322 617 361 643 q 275 547 282 592 l 117 547 q 213 715 129 653 q 425 778 297 778 q 644 708 564 778 q 725 519 725 639 l 725 0 l 567 0 l 567 136 l 540 136 l 568 169 q 504 35 568 85 q 336 -14 440 -14 m 388 108 q 513 148 464 108 q 563 249 563 188 l 563 346 l 364 346 q 275 315 308 346 q 242 231 242 283 q 281 141 242 174 q 388 108 319 108 m 424 -308 q 343 -282 372 -308 q 314 -211 314 -256 q 343 -140 314 -167 q 424 -112 372 -112 q 504 -140 475 -112 q 533 -211 533 -167 q 504 -282 533 -256 q 424 -308 475 -308 z "},"à":{"ha":833,"x_min":81,"x_max":725,"o":"m 336 -14 q 149 48 218 -14 q 81 217 81 110 q 155 389 81 328 q 361 450 229 450 l 563 450 l 563 518 q 525 610 563 576 q 421 643 488 643 q 322 617 361 643 q 275 547 282 592 l 117 547 q 213 715 129 653 q 425 778 297 778 q 644 708 564 778 q 725 519 725 639 l 725 0 l 567 0 l 567 136 l 540 136 l 568 169 q 504 35 568 85 q 336 -14 440 -14 m 388 108 q 513 148 464 108 q 563 249 563 188 l 563 346 l 364 346 q 275 315 308 346 q 242 231 242 283 q 281 141 242 174 q 388 108 319 108 m 360 896 l 199 1090 l 378 1090 l 526 896 l 360 896 z "},"ả":{"ha":833,"x_min":81,"x_max":725,"o":"m 336 -14 q 149 48 218 -14 q 81 217 81 110 q 155 389 81 328 q 361 450 229 450 l 563 450 l 563 518 q 525 610 563 576 q 421 643 488 643 q 322 617 361 643 q 275 547 282 592 l 117 547 q 213 715 129 653 q 425 778 297 778 q 644 708 564 778 q 725 519 725 639 l 725 0 l 567 0 l 567 136 l 540 136 l 568 169 q 504 35 568 85 q 336 -14 440 -14 m 388 108 q 513 148 464 108 q 563 249 563 188 l 563 346 l 364 346 q 275 315 308 346 q 242 231 242 283 q 281 141 242 174 q 388 108 319 108 m 356 896 l 425 981 q 444 1022 444 1006 q 404 1049 444 1049 l 293 1049 l 293 1151 l 439 1151 q 533 1122 497 1151 q 568 1042 568 1092 q 542 963 568 996 l 489 896 l 356 896 z "},"ā":{"ha":833,"x_min":81,"x_max":725,"o":"m 336 -14 q 149 48 218 -14 q 81 217 81 110 q 155 389 81 328 q 361 450 229 450 l 563 450 l 563 518 q 525 610 563 576 q 421 643 488 643 q 322 617 361 643 q 275 547 282 592 l 117 547 q 213 715 129 653 q 425 778 297 778 q 644 708 564 778 q 725 519 725 639 l 725 0 l 567 0 l 567 136 l 540 136 l 568 169 q 504 35 568 85 q 336 -14 440 -14 m 388 108 q 513 148 464 108 q 563 249 563 188 l 563 346 l 364 346 q 275 315 308 346 q 242 231 242 283 q 281 141 242 174 q 388 108 319 108 m 189 921 l 189 1047 l 658 1047 l 658 921 l 189 921 z "},"ą":{"ha":833,"x_min":81,"x_max":797,"o":"m 671 -296 q 543 -256 590 -296 q 496 -156 496 -217 q 528 -69 496 -112 q 629 14 561 -25 l 725 0 q 658 -69 678 -40 q 638 -124 638 -99 q 656 -167 638 -149 q 708 -185 675 -185 l 797 -185 l 797 -296 l 671 -296 m 336 -14 q 149 48 218 -14 q 81 217 81 110 q 155 389 81 328 q 361 450 229 450 l 563 450 l 563 518 q 525 610 563 576 q 421 643 488 643 q 322 617 361 643 q 275 547 282 592 l 117 547 q 213 715 129 653 q 425 778 297 778 q 644 708 564 778 q 725 519 725 639 l 725 0 l 567 0 l 567 136 l 540 136 l 568 169 q 504 35 568 85 q 336 -14 440 -14 m 388 108 q 513 148 464 108 q 563 249 563 188 l 563 346 l 364 346 q 275 315 308 346 q 242 231 242 283 q 281 141 242 174 q 388 108 319 108 z "},"å":{"ha":833,"x_min":81,"x_max":725,"o":"m 336 -14 q 149 48 218 -14 q 81 217 81 110 q 155 389 81 328 q 361 450 229 450 l 563 450 l 563 518 q 525 610 563 576 q 421 643 488 643 q 322 617 361 643 q 275 547 282 592 l 117 547 q 213 715 129 653 q 425 778 297 778 q 644 708 564 778 q 725 519 725 639 l 725 0 l 567 0 l 567 136 l 540 136 l 568 169 q 504 35 568 85 q 336 -14 440 -14 m 388 108 q 513 148 464 108 q 563 249 563 188 l 563 346 l 364 346 q 275 315 308 346 q 242 231 242 283 q 281 141 242 174 q 388 108 319 108 m 424 839 q 294 885 343 839 q 244 1006 244 931 q 294 1126 244 1079 q 424 1172 343 1172 q 553 1126 504 1172 q 603 1006 603 1079 q 553 885 603 931 q 424 839 504 839 m 424 924 q 484 946 461 924 q 507 1006 507 968 q 484 1066 507 1043 q 424 1089 461 1089 q 363 1066 386 1089 q 340 1006 340 1043 q 363 946 340 968 q 424 924 386 924 z "},"ã":{"ha":833,"x_min":81,"x_max":725,"o":"m 336 -14 q 149 48 218 -14 q 81 217 81 110 q 155 389 81 328 q 361 450 229 450 l 563 450 l 563 518 q 525 610 563 576 q 421 643 488 643 q 322 617 361 643 q 275 547 282 592 l 117 547 q 213 715 129 653 q 425 778 297 778 q 644 708 564 778 q 725 519 725 639 l 725 0 l 567 0 l 567 136 l 540 136 l 568 169 q 504 35 568 85 q 336 -14 440 -14 m 388 108 q 513 148 464 108 q 563 249 563 188 l 563 346 l 364 346 q 275 315 308 346 q 242 231 242 283 q 281 141 242 174 q 388 108 319 108 m 521 893 q 451 907 478 893 q 407 939 425 921 q 372 971 389 957 q 333 985 356 985 q 303 972 315 985 q 292 938 292 960 l 292 900 l 189 900 l 189 946 q 227 1053 189 1013 q 326 1093 265 1093 q 396 1079 369 1093 q 440 1047 422 1065 q 475 1015 458 1029 q 514 1001 492 1001 q 544 1013 533 1001 q 556 1046 556 1024 l 556 1086 l 658 1086 l 658 1040 q 621 933 658 974 q 521 893 583 893 z "},"æ":{"ha":833,"x_min":49,"x_max":785,"o":"m 238 -14 q 100 41 151 -14 q 49 186 49 96 l 49 264 q 109 402 49 350 q 268 454 169 454 l 353 454 l 353 561 q 333 634 353 610 q 274 658 314 658 q 216 635 238 658 q 194 571 194 613 l 58 571 q 111 721 58 664 q 250 778 164 778 q 340 760 304 778 q 393 718 375 743 q 415 669 411 693 l 424 669 q 445 718 428 693 q 497 760 463 743 q 583 778 532 778 q 731 719 676 778 q 785 561 785 661 l 785 351 l 485 351 l 485 203 q 507 132 485 158 q 565 106 529 106 q 626 127 604 106 q 649 186 649 149 l 785 186 q 729 42 785 97 q 583 -14 674 -14 q 497 3 532 -14 q 445 46 463 21 q 424 94 428 71 l 415 94 q 391 46 411 71 q 333 3 371 21 q 238 -14 296 -14 m 269 106 q 330 132 307 106 q 353 203 353 158 l 353 351 l 269 351 q 210 328 232 351 q 189 264 189 306 l 189 186 q 210 127 189 149 q 269 106 232 106 m 485 454 l 649 454 l 649 561 q 626 633 649 607 q 565 658 604 658 q 506 633 528 658 q 485 561 485 607 l 485 454 z "},"ǽ":{"ha":833,"x_min":49,"x_max":785,"o":"m 238 -14 q 100 41 151 -14 q 49 186 49 96 l 49 264 q 109 402 49 350 q 268 454 169 454 l 353 454 l 353 561 q 333 634 353 610 q 274 658 314 658 q 216 635 238 658 q 194 571 194 613 l 58 571 q 111 721 58 664 q 250 778 164 778 q 340 760 304 778 q 393 718 375 743 q 415 669 411 693 l 424 669 q 445 718 428 693 q 497 760 463 743 q 583 778 532 778 q 731 719 676 778 q 785 561 785 661 l 785 351 l 485 351 l 485 203 q 507 132 485 158 q 565 106 529 106 q 626 127 604 106 q 649 186 649 149 l 785 186 q 729 42 785 97 q 583 -14 674 -14 q 497 3 532 -14 q 445 46 463 21 q 424 94 428 71 l 415 94 q 391 46 411 71 q 333 3 371 21 q 238 -14 296 -14 m 269 106 q 330 132 307 106 q 353 203 353 158 l 353 351 l 269 351 q 210 328 232 351 q 189 264 189 306 l 189 186 q 210 127 189 149 q 269 106 232 106 m 485 454 l 649 454 l 649 561 q 626 633 649 607 q 565 658 604 658 q 506 633 528 658 q 485 561 485 607 l 485 454 m 318 896 l 464 1090 l 639 1090 l 481 896 l 318 896 z "},"b":{"ha":833,"x_min":111,"x_max":731,"o":"m 476 -14 q 326 39 382 -14 q 271 183 271 92 l 306 146 l 271 146 l 271 0 l 111 0 l 111 1014 l 274 1014 l 274 797 l 269 618 l 306 618 l 271 581 q 327 725 271 672 q 476 778 383 778 q 661 699 592 778 q 731 488 731 621 l 731 276 q 661 65 731 143 q 476 -14 592 -14 m 419 126 q 530 167 490 126 q 569 283 569 208 l 569 481 q 530 597 569 556 q 419 638 490 638 q 313 596 353 638 q 274 481 274 554 l 274 283 q 313 168 274 210 q 419 126 353 126 z "},"c":{"ha":833,"x_min":103,"x_max":736,"o":"m 422 -14 q 253 22 325 -14 q 142 126 182 58 q 103 283 103 193 l 103 481 q 142 639 103 572 q 253 742 182 706 q 422 778 325 778 q 647 704 563 778 q 736 504 732 631 l 575 504 q 531 601 571 567 q 422 636 490 636 q 306 596 349 636 q 264 481 264 556 l 264 283 q 306 169 264 210 q 422 128 349 128 q 531 163 490 128 q 575 260 571 197 l 736 260 q 647 60 732 133 q 422 -14 563 -14 z "},"ć":{"ha":833,"x_min":103,"x_max":736,"o":"m 422 -14 q 253 22 325 -14 q 142 126 182 58 q 103 283 103 193 l 103 481 q 142 639 103 572 q 253 742 182 706 q 422 778 325 778 q 647 704 563 778 q 736 504 732 631 l 575 504 q 531 601 571 567 q 422 636 490 636 q 306 596 349 636 q 264 481 264 556 l 264 283 q 306 169 264 210 q 422 128 349 128 q 531 163 490 128 q 575 260 571 197 l 736 260 q 647 60 732 133 q 422 -14 563 -14 m 324 896 l 469 1090 l 644 1090 l 486 896 l 324 896 z "},"č":{"ha":833,"x_min":103,"x_max":736,"o":"m 422 -14 q 253 22 325 -14 q 142 126 182 58 q 103 283 103 193 l 103 481 q 142 639 103 572 q 253 742 182 706 q 422 778 325 778 q 647 704 563 778 q 736 504 732 631 l 575 504 q 531 601 571 567 q 422 636 490 636 q 306 596 349 636 q 264 481 264 556 l 264 283 q 306 169 264 210 q 422 128 349 128 q 531 163 490 128 q 575 260 571 197 l 736 260 q 647 60 732 133 q 422 -14 563 -14 m 347 896 l 156 1090 l 315 1090 l 424 988 l 526 1090 l 689 1090 l 497 896 l 347 896 z "},"ç":{"ha":833,"x_min":103,"x_max":736,"o":"m 281 -296 l 281 -210 l 383 -210 q 436 -194 417 -210 q 456 -160 456 -178 q 415 -114 456 -132 q 303 -96 375 -96 l 351 31 l 440 31 l 413 -51 q 493 -69 451 -54 q 564 -110 535 -83 q 593 -175 593 -136 q 544 -260 593 -224 q 414 -296 494 -296 l 281 -296 m 422 -14 q 253 22 325 -14 q 142 126 182 58 q 103 283 103 193 l 103 481 q 142 639 103 572 q 253 742 182 706 q 422 778 325 778 q 647 704 563 778 q 736 504 732 631 l 575 504 q 531 601 571 567 q 422 636 490 636 q 306 596 349 636 q 264 481 264 556 l 264 283 q 306 169 264 210 q 422 128 349 128 q 531 163 490 128 q 575 260 571 197 l 736 260 q 647 60 732 133 q 422 -14 563 -14 z "},"ĉ":{"ha":833,"x_min":103,"x_max":736,"o":"m 422 -14 q 253 22 325 -14 q 142 126 182 58 q 103 283 103 193 l 103 481 q 142 639 103 572 q 253 742 182 706 q 422 778 325 778 q 647 704 563 778 q 736 504 732 631 l 575 504 q 531 601 571 567 q 422 636 490 636 q 306 596 349 636 q 264 481 264 556 l 264 283 q 306 169 264 210 q 422 128 349 128 q 531 163 490 128 q 575 260 571 197 l 736 260 q 647 60 732 133 q 422 -14 563 -14 m 150 896 l 342 1090 l 492 1090 l 683 896 l 524 896 l 415 999 l 313 896 l 150 896 z "},"ċ":{"ha":833,"x_min":103,"x_max":736,"o":"m 422 -14 q 253 22 325 -14 q 142 126 182 58 q 103 283 103 193 l 103 481 q 142 639 103 572 q 253 742 182 706 q 422 778 325 778 q 647 704 563 778 q 736 504 732 631 l 575 504 q 531 601 571 567 q 422 636 490 636 q 306 596 349 636 q 264 481 264 556 l 264 283 q 306 169 264 210 q 422 128 349 128 q 531 163 490 128 q 575 260 571 197 l 736 260 q 647 60 732 133 q 422 -14 563 -14 m 417 894 q 336 920 365 894 q 307 990 307 946 q 336 1063 307 1036 q 417 1089 365 1089 q 497 1063 468 1089 q 526 990 526 1036 q 497 920 526 946 q 417 894 468 894 z "},"d":{"ha":833,"x_min":103,"x_max":722,"o":"m 357 -14 q 172 65 242 -14 q 103 276 103 143 l 103 488 q 172 699 103 621 q 357 778 242 778 q 507 725 451 778 q 563 581 563 672 l 528 618 l 564 618 l 560 797 l 560 1014 l 722 1014 l 722 0 l 563 0 l 563 146 l 528 146 l 563 183 q 507 39 563 92 q 357 -14 451 -14 m 414 126 q 521 168 482 126 q 560 283 560 210 l 560 481 q 521 596 560 554 q 414 638 482 638 q 303 597 343 638 q 264 481 264 556 l 264 283 q 303 167 264 208 q 414 126 343 126 z "},"ð":{"ha":833,"x_min":79,"x_max":754,"o":"m 415 -8 q 239 32 315 -8 q 121 144 163 72 q 79 311 79 217 q 115 473 79 404 q 217 580 151 542 q 367 618 282 618 q 446 603 411 618 q 506 566 481 588 q 543 525 531 544 l 557 525 q 531 572 554 535 q 460 672 508 610 l 378 785 l 156 692 l 156 818 l 306 882 l 207 1014 l 390 1014 l 444 939 l 660 1028 l 660 901 l 517 842 l 610 711 q 718 515 682 613 q 754 326 754 417 q 713 150 754 225 q 595 33 671 75 q 415 -8 519 -8 m 415 131 q 544 180 496 131 q 593 311 593 229 q 571 406 593 365 q 509 468 549 446 q 415 490 469 490 q 289 441 338 490 q 240 311 240 392 q 289 180 240 229 q 415 131 338 131 z "},"ď":{"ha":833,"x_min":74,"x_max":843,"o":"m 706 764 l 706 1014 l 843 1014 l 829 764 l 706 764 m 301 -14 q 135 63 196 -14 q 74 269 74 139 l 74 494 q 135 701 74 625 q 301 778 196 778 q 434 724 385 778 q 483 581 483 671 l 447 618 l 485 618 l 481 797 l 481 1014 l 636 1014 l 636 0 l 483 0 l 483 146 l 447 146 l 483 183 q 434 40 483 93 q 301 -14 385 -14 m 358 121 q 449 162 417 121 q 481 276 481 203 l 481 488 q 449 602 481 561 q 358 643 417 643 q 263 602 297 643 q 229 488 229 561 l 229 276 q 263 162 229 203 q 358 121 297 121 z "},"đ":{"ha":833,"x_min":107,"x_max":833,"o":"m 357 -14 q 174 65 242 -14 q 107 276 107 143 l 107 404 q 174 616 107 538 q 357 694 242 694 q 506 642 451 694 q 561 497 561 589 l 526 535 l 563 535 l 558 714 l 558 1014 l 719 1014 l 719 0 l 561 0 l 561 146 l 526 146 l 561 183 q 506 39 561 92 q 357 -14 451 -14 m 414 126 q 520 168 482 126 q 558 283 558 210 l 558 397 q 520 513 558 471 q 414 554 482 554 q 306 513 343 554 q 268 397 268 472 l 268 283 q 306 167 268 208 q 414 126 343 126 m 342 782 l 342 896 l 833 896 l 833 782 l 342 782 z "},"e":{"ha":833,"x_min":103,"x_max":731,"o":"m 417 -14 q 251 23 322 -14 q 142 127 181 60 q 103 283 103 194 l 103 481 q 142 637 103 569 q 251 741 181 704 q 417 778 322 778 q 583 741 513 778 q 692 637 653 704 q 731 481 731 569 l 731 343 l 258 343 l 258 283 q 299 158 258 201 q 418 115 340 115 q 519 138 481 115 q 567 200 557 160 l 726 200 q 624 44 708 103 q 417 -14 539 -14 m 575 438 l 575 481 q 535 606 575 563 q 417 650 496 650 q 299 606 340 650 q 258 481 258 561 l 258 449 l 586 450 l 575 438 z "},"é":{"ha":833,"x_min":103,"x_max":731,"o":"m 417 -14 q 251 23 322 -14 q 142 127 181 60 q 103 283 103 194 l 103 481 q 142 637 103 569 q 251 741 181 704 q 417 778 322 778 q 583 741 513 778 q 692 637 653 704 q 731 481 731 569 l 731 343 l 258 343 l 258 283 q 299 158 258 201 q 418 115 340 115 q 519 138 481 115 q 567 200 557 160 l 726 200 q 624 44 708 103 q 417 -14 539 -14 m 575 438 l 575 481 q 535 606 575 563 q 417 650 496 650 q 299 606 340 650 q 258 481 258 561 l 258 449 l 586 450 l 575 438 m 318 896 l 464 1090 l 639 1090 l 481 896 l 318 896 z "},"ĕ":{"ha":833,"x_min":103,"x_max":731,"o":"m 417 -14 q 251 23 322 -14 q 142 127 181 60 q 103 283 103 194 l 103 481 q 142 637 103 569 q 251 741 181 704 q 417 778 322 778 q 583 741 513 778 q 692 637 653 704 q 731 481 731 569 l 731 343 l 258 343 l 258 283 q 299 158 258 201 q 418 115 340 115 q 519 138 481 115 q 567 200 557 160 l 726 200 q 624 44 708 103 q 417 -14 539 -14 m 575 438 l 575 481 q 535 606 575 563 q 417 650 496 650 q 299 606 340 650 q 258 481 258 561 l 258 449 l 586 450 l 575 438 m 417 886 q 245 942 311 886 q 179 1090 179 999 l 304 1090 q 335 1014 304 1043 q 415 985 365 985 q 498 1014 467 985 q 529 1090 529 1043 l 654 1090 q 589 942 654 999 q 417 886 524 886 z "},"ě":{"ha":833,"x_min":103,"x_max":731,"o":"m 417 -14 q 251 23 322 -14 q 142 127 181 60 q 103 283 103 194 l 103 481 q 142 637 103 569 q 251 741 181 704 q 417 778 322 778 q 583 741 513 778 q 692 637 653 704 q 731 481 731 569 l 731 343 l 258 343 l 258 283 q 299 158 258 201 q 418 115 340 115 q 519 138 481 115 q 567 200 557 160 l 726 200 q 624 44 708 103 q 417 -14 539 -14 m 575 438 l 575 481 q 535 606 575 563 q 417 650 496 650 q 299 606 340 650 q 258 481 258 561 l 258 449 l 586 450 l 575 438 m 342 896 l 150 1090 l 310 1090 l 418 988 l 521 1090 l 683 1090 l 492 896 l 342 896 z "},"ê":{"ha":833,"x_min":103,"x_max":731,"o":"m 417 -14 q 251 23 322 -14 q 142 127 181 60 q 103 283 103 194 l 103 481 q 142 637 103 569 q 251 741 181 704 q 417 778 322 778 q 583 741 513 778 q 692 637 653 704 q 731 481 731 569 l 731 343 l 258 343 l 258 283 q 299 158 258 201 q 418 115 340 115 q 519 138 481 115 q 567 200 557 160 l 726 200 q 624 44 708 103 q 417 -14 539 -14 m 575 438 l 575 481 q 535 606 575 563 q 417 650 496 650 q 299 606 340 650 q 258 481 258 561 l 258 449 l 586 450 l 575 438 m 150 896 l 342 1090 l 492 1090 l 683 896 l 524 896 l 415 999 l 313 896 l 150 896 z "},"ế":{"ha":833,"x_min":103,"x_max":906,"o":"m 417 -14 q 251 23 322 -14 q 142 127 181 60 q 103 283 103 194 l 103 481 q 142 637 103 569 q 251 741 181 704 q 417 778 322 778 q 583 741 513 778 q 692 637 653 704 q 731 481 731 569 l 731 343 l 258 343 l 258 283 q 299 158 258 201 q 418 115 340 115 q 519 138 481 115 q 567 200 557 160 l 726 200 q 624 44 708 103 q 417 -14 539 -14 m 575 438 l 575 481 q 535 606 575 563 q 417 650 496 650 q 299 606 340 650 q 258 481 258 561 l 258 449 l 586 450 l 575 438 m 575 1056 l 739 1250 l 906 1250 l 732 1056 l 575 1056 m 151 896 l 342 1090 l 492 1090 l 683 896 l 521 896 l 417 999 l 311 896 l 151 896 z "},"ệ":{"ha":833,"x_min":103,"x_max":731,"o":"m 156 896 l 347 1090 l 497 1090 l 689 896 l 529 896 l 421 999 l 318 896 l 156 896 m 417 -14 q 251 23 322 -14 q 142 127 181 60 q 103 283 103 194 l 103 481 q 142 637 103 569 q 251 741 181 704 q 417 778 322 778 q 583 741 513 778 q 692 637 653 704 q 731 481 731 569 l 731 343 l 258 343 l 258 283 q 299 158 258 201 q 418 115 340 115 q 519 138 481 115 q 567 200 557 160 l 726 200 q 624 44 708 103 q 417 -14 539 -14 m 575 438 l 575 481 q 535 606 575 563 q 417 650 496 650 q 299 606 340 650 q 258 481 258 561 l 258 449 l 586 450 l 575 438 m 417 -308 q 336 -282 365 -308 q 307 -211 307 -256 q 336 -140 307 -167 q 417 -112 365 -112 q 497 -140 468 -112 q 526 -211 526 -167 q 497 -282 526 -256 q 417 -308 468 -308 z "},"ề":{"ha":833,"x_min":103,"x_max":797,"o":"m 417 -14 q 251 23 322 -14 q 142 127 181 60 q 103 283 103 194 l 103 481 q 142 637 103 569 q 251 741 181 704 q 417 778 322 778 q 583 741 513 778 q 692 637 653 704 q 731 481 731 569 l 731 343 l 258 343 l 258 283 q 299 158 258 201 q 418 115 340 115 q 519 138 481 115 q 567 200 557 160 l 726 200 q 624 44 708 103 q 417 -14 539 -14 m 575 438 l 575 481 q 535 606 575 563 q 417 650 496 650 q 299 606 340 650 q 258 481 258 561 l 258 449 l 586 450 l 575 438 m 640 1056 l 460 1250 l 626 1250 l 797 1056 l 640 1056 m 151 896 l 342 1090 l 492 1090 l 683 896 l 521 896 l 417 999 l 311 896 l 151 896 z "},"ể":{"ha":833,"x_min":103,"x_max":789,"o":"m 417 -14 q 251 23 322 -14 q 142 127 181 60 q 103 283 103 194 l 103 481 q 142 637 103 569 q 251 741 181 704 q 417 778 322 778 q 583 741 513 778 q 692 637 653 704 q 731 481 731 569 l 731 343 l 258 343 l 258 283 q 299 158 258 201 q 418 115 340 115 q 519 138 481 115 q 567 200 557 160 l 726 200 q 624 44 708 103 q 417 -14 539 -14 m 575 438 l 575 481 q 535 606 575 563 q 417 650 496 650 q 299 606 340 650 q 258 481 258 561 l 258 449 l 586 450 l 575 438 m 588 1056 l 653 1139 q 668 1175 668 1160 q 658 1197 668 1190 q 628 1204 647 1204 l 539 1204 l 539 1303 l 646 1303 q 750 1273 711 1303 q 789 1193 789 1243 q 782 1156 789 1174 q 761 1119 775 1138 l 713 1056 l 588 1056 m 151 896 l 342 1090 l 492 1090 l 683 896 l 521 896 l 417 999 l 311 896 l 151 896 z "},"ễ":{"ha":833,"x_min":103,"x_max":731,"o":"m 417 -14 q 251 23 322 -14 q 142 127 181 60 q 103 283 103 194 l 103 481 q 142 637 103 569 q 251 741 181 704 q 417 778 322 778 q 583 741 513 778 q 692 637 653 704 q 731 481 731 569 l 731 343 l 258 343 l 258 283 q 299 158 258 201 q 418 115 340 115 q 519 138 481 115 q 567 200 557 160 l 726 200 q 624 44 708 103 q 417 -14 539 -14 m 575 438 l 575 481 q 535 606 575 563 q 417 650 496 650 q 299 606 340 650 q 258 481 258 561 l 258 449 l 586 450 l 575 438 m 511 1136 q 440 1149 467 1136 q 397 1179 414 1163 q 365 1208 381 1196 q 326 1221 349 1221 q 296 1210 307 1221 q 285 1178 285 1199 l 285 1144 l 182 1144 l 182 1176 q 221 1277 182 1239 q 322 1315 260 1315 q 393 1302 367 1315 q 436 1272 419 1289 q 469 1242 453 1256 q 507 1229 485 1229 q 549 1269 549 1229 l 549 1304 l 651 1304 l 651 1275 q 613 1174 651 1213 q 511 1136 574 1136 m 151 896 l 342 1090 l 492 1090 l 683 896 l 521 896 l 417 999 l 311 896 l 151 896 z "},"ë":{"ha":833,"x_min":103,"x_max":731,"o":"m 417 -14 q 251 23 322 -14 q 142 127 181 60 q 103 283 103 194 l 103 481 q 142 637 103 569 q 251 741 181 704 q 417 778 322 778 q 583 741 513 778 q 692 637 653 704 q 731 481 731 569 l 731 343 l 258 343 l 258 283 q 299 158 258 201 q 418 115 340 115 q 519 138 481 115 q 567 200 557 160 l 726 200 q 624 44 708 103 q 417 -14 539 -14 m 575 438 l 575 481 q 535 606 575 563 q 417 650 496 650 q 299 606 340 650 q 258 481 258 561 l 258 449 l 586 450 l 575 438 m 578 894 q 506 920 532 894 q 479 990 479 946 q 506 1063 479 1036 q 578 1089 532 1089 q 649 1063 622 1089 q 676 990 676 1036 q 649 920 676 946 q 578 894 622 894 m 256 894 q 184 920 211 894 q 157 990 157 946 q 184 1063 157 1036 q 256 1089 211 1089 q 328 1063 301 1089 q 354 990 354 1036 q 328 920 354 946 q 256 894 301 894 z "},"ė":{"ha":833,"x_min":103,"x_max":731,"o":"m 417 -14 q 251 23 322 -14 q 142 127 181 60 q 103 283 103 194 l 103 481 q 142 637 103 569 q 251 741 181 704 q 417 778 322 778 q 583 741 513 778 q 692 637 653 704 q 731 481 731 569 l 731 343 l 258 343 l 258 283 q 299 158 258 201 q 418 115 340 115 q 519 138 481 115 q 567 200 557 160 l 726 200 q 624 44 708 103 q 417 -14 539 -14 m 575 438 l 575 481 q 535 606 575 563 q 417 650 496 650 q 299 606 340 650 q 258 481 258 561 l 258 449 l 586 450 l 575 438 m 417 894 q 336 920 365 894 q 307 990 307 946 q 336 1063 307 1036 q 417 1089 365 1089 q 497 1063 468 1089 q 526 990 526 1036 q 497 920 526 946 q 417 894 468 894 z "},"ẹ":{"ha":833,"x_min":103,"x_max":731,"o":"m 417 -14 q 251 23 322 -14 q 142 127 181 60 q 103 283 103 194 l 103 481 q 142 637 103 569 q 251 741 181 704 q 417 778 322 778 q 583 741 513 778 q 692 637 653 704 q 731 481 731 569 l 731 343 l 258 343 l 258 283 q 299 158 258 201 q 418 115 340 115 q 519 138 481 115 q 567 200 557 160 l 726 200 q 624 44 708 103 q 417 -14 539 -14 m 575 438 l 575 481 q 535 606 575 563 q 417 650 496 650 q 299 606 340 650 q 258 481 258 561 l 258 449 l 586 450 l 575 438 m 417 -308 q 336 -282 365 -308 q 307 -211 307 -256 q 336 -140 307 -167 q 417 -112 365 -112 q 497 -140 468 -112 q 526 -211 526 -167 q 497 -282 526 -256 q 417 -308 468 -308 z "},"è":{"ha":833,"x_min":103,"x_max":731,"o":"m 417 -14 q 251 23 322 -14 q 142 127 181 60 q 103 283 103 194 l 103 481 q 142 637 103 569 q 251 741 181 704 q 417 778 322 778 q 583 741 513 778 q 692 637 653 704 q 731 481 731 569 l 731 343 l 258 343 l 258 283 q 299 158 258 201 q 418 115 340 115 q 519 138 481 115 q 567 200 557 160 l 726 200 q 624 44 708 103 q 417 -14 539 -14 m 575 438 l 575 481 q 535 606 575 563 q 417 650 496 650 q 299 606 340 650 q 258 481 258 561 l 258 449 l 586 450 l 575 438 m 353 896 l 192 1090 l 371 1090 l 519 896 l 353 896 z "},"ẻ":{"ha":833,"x_min":103,"x_max":731,"o":"m 417 -14 q 251 23 322 -14 q 142 127 181 60 q 103 283 103 194 l 103 481 q 142 637 103 569 q 251 741 181 704 q 417 778 322 778 q 583 741 513 778 q 692 637 653 704 q 731 481 731 569 l 731 343 l 258 343 l 258 283 q 299 158 258 201 q 418 115 340 115 q 519 138 481 115 q 567 200 557 160 l 726 200 q 624 44 708 103 q 417 -14 539 -14 m 575 438 l 575 481 q 535 606 575 563 q 417 650 496 650 q 299 606 340 650 q 258 481 258 561 l 258 449 l 586 450 l 575 438 m 349 896 l 418 981 q 438 1022 438 1006 q 397 1049 438 1049 l 286 1049 l 286 1151 l 432 1151 q 526 1122 490 1151 q 561 1042 561 1092 q 535 963 561 996 l 482 896 l 349 896 z "},"ē":{"ha":833,"x_min":103,"x_max":731,"o":"m 417 -14 q 251 23 322 -14 q 142 127 181 60 q 103 283 103 194 l 103 481 q 142 637 103 569 q 251 741 181 704 q 417 778 322 778 q 583 741 513 778 q 692 637 653 704 q 731 481 731 569 l 731 343 l 258 343 l 258 283 q 299 158 258 201 q 418 115 340 115 q 519 138 481 115 q 567 200 557 160 l 726 200 q 624 44 708 103 q 417 -14 539 -14 m 575 438 l 575 481 q 535 606 575 563 q 417 650 496 650 q 299 606 340 650 q 258 481 258 561 l 258 449 l 586 450 l 575 438 m 182 921 l 182 1047 l 651 1047 l 651 921 l 182 921 z "},"ę":{"ha":833,"x_min":106,"x_max":728,"o":"m 510 -296 q 383 -256 431 -296 q 335 -156 335 -217 q 367 -74 335 -117 q 461 10 399 -32 q 447 -6 460 1 q 417 -14 435 -14 q 252 23 322 -14 q 144 127 182 60 q 106 283 106 194 l 106 481 q 144 637 106 569 q 252 741 182 704 q 417 778 322 778 q 582 741 513 778 q 690 637 651 704 q 728 481 728 569 l 728 343 l 261 343 l 261 283 q 301 158 261 201 q 418 115 340 115 q 517 138 481 115 q 564 200 554 160 l 724 200 q 680 101 714 144 q 596 29 646 57 l 551 -10 q 496 -71 514 -43 q 478 -124 478 -99 q 497 -167 478 -149 q 549 -185 515 -185 l 638 -185 l 638 -296 l 510 -296 m 572 413 l 572 481 q 534 606 572 563 q 417 650 496 650 q 301 606 340 650 q 261 481 261 561 l 261 449 l 610 450 l 572 413 z "},"ẽ":{"ha":833,"x_min":103,"x_max":731,"o":"m 417 -14 q 251 23 322 -14 q 142 127 181 60 q 103 283 103 194 l 103 481 q 142 637 103 569 q 251 741 181 704 q 417 778 322 778 q 583 741 513 778 q 692 637 653 704 q 731 481 731 569 l 731 343 l 258 343 l 258 283 q 299 158 258 201 q 418 115 340 115 q 519 138 481 115 q 567 200 557 160 l 726 200 q 624 44 708 103 q 417 -14 539 -14 m 575 438 l 575 481 q 535 606 575 563 q 417 650 496 650 q 299 606 340 650 q 258 481 258 561 l 258 449 l 586 450 l 575 438 m 514 893 q 444 907 471 893 q 400 939 418 921 q 365 971 382 957 q 326 985 349 985 q 297 972 308 985 q 285 938 285 960 l 285 900 l 182 900 l 182 946 q 220 1053 182 1013 q 319 1093 258 1093 q 389 1079 363 1093 q 433 1047 415 1065 q 468 1015 451 1029 q 507 1001 485 1001 q 538 1013 526 1001 q 549 1046 549 1024 l 549 1086 l 651 1086 l 651 1040 q 614 933 651 974 q 514 893 576 893 z "},"ə":{"ha":833,"x_min":107,"x_max":726,"o":"m 417 -14 q 251 23 321 -14 q 144 127 182 60 q 107 283 107 194 l 107 421 l 571 421 l 571 481 q 532 606 571 563 q 415 649 493 649 q 317 626 353 649 q 271 564 282 604 l 111 564 q 212 719 129 661 q 417 778 294 778 q 582 741 513 778 q 689 637 651 704 q 726 481 726 569 l 726 283 q 689 127 726 194 q 582 23 651 60 q 417 -14 513 -14 m 417 115 q 533 159 494 115 q 571 283 571 203 l 571 315 l 251 315 l 263 328 l 263 283 q 301 159 263 203 q 417 115 339 115 z "},"f":{"ha":833,"x_min":76,"x_max":750,"o":"m 290 0 l 290 535 l 76 535 l 76 682 l 290 682 l 290 801 q 354 956 290 899 q 526 1014 418 1014 l 750 1014 l 750 871 l 529 871 q 472 852 493 871 q 451 799 451 833 l 451 682 l 750 682 l 750 535 l 451 535 l 451 0 l 290 0 z "},"g":{"ha":833,"x_min":106,"x_max":721,"o":"m 214 -250 l 214 -112 l 444 -112 q 532 -85 503 -112 q 561 -4 561 -57 l 561 64 l 564 206 l 528 206 l 563 239 q 508 97 563 149 q 360 46 453 46 q 174 124 242 46 q 106 336 106 203 l 106 488 q 174 699 106 621 q 360 778 242 778 q 508 726 453 778 q 563 585 563 675 l 528 618 l 563 618 l 560 764 l 721 764 l 721 -7 q 648 -185 721 -119 q 447 -250 575 -250 l 214 -250 m 414 186 q 521 228 482 186 q 560 343 560 269 l 560 481 q 521 596 560 554 q 414 638 482 638 q 305 597 343 638 q 267 481 267 556 l 267 343 q 305 227 267 268 q 414 186 343 186 z "},"ǵ":{"ha":833,"x_min":106,"x_max":721,"o":"m 214 -250 l 214 -112 l 444 -112 q 532 -85 503 -112 q 561 -4 561 -57 l 561 64 l 564 206 l 528 206 l 563 239 q 508 97 563 149 q 360 46 453 46 q 174 124 242 46 q 106 336 106 203 l 106 488 q 174 699 106 621 q 360 778 242 778 q 508 726 453 778 q 563 585 563 675 l 528 618 l 563 618 l 560 764 l 721 764 l 721 -7 q 648 -185 721 -119 q 447 -250 575 -250 l 214 -250 m 414 186 q 521 228 482 186 q 560 343 560 269 l 560 481 q 521 596 560 554 q 414 638 482 638 q 305 597 343 638 q 267 481 267 556 l 267 343 q 305 227 267 268 q 414 186 343 186 m 319 896 l 465 1090 l 640 1090 l 482 896 l 319 896 z "},"ğ":{"ha":833,"x_min":106,"x_max":721,"o":"m 214 -250 l 214 -112 l 444 -112 q 532 -85 503 -112 q 561 -4 561 -57 l 561 64 l 564 206 l 528 206 l 563 239 q 508 97 563 149 q 360 46 453 46 q 174 124 242 46 q 106 336 106 203 l 106 488 q 174 699 106 621 q 360 778 242 778 q 508 726 453 778 q 563 585 563 675 l 528 618 l 563 618 l 560 764 l 721 764 l 721 -7 q 648 -185 721 -119 q 447 -250 575 -250 l 214 -250 m 414 186 q 521 228 482 186 q 560 343 560 269 l 560 481 q 521 596 560 554 q 414 638 482 638 q 305 597 343 638 q 267 481 267 556 l 267 343 q 305 227 267 268 q 414 186 343 186 m 413 886 q 241 942 307 886 q 175 1090 175 999 l 300 1090 q 331 1014 300 1043 q 411 985 361 985 q 494 1014 463 985 q 525 1090 525 1043 l 650 1090 q 585 942 650 999 q 413 886 519 886 z "},"ǧ":{"ha":833,"x_min":106,"x_max":721,"o":"m 214 -250 l 214 -112 l 444 -112 q 532 -85 503 -112 q 561 -4 561 -57 l 561 64 l 564 206 l 528 206 l 563 239 q 508 97 563 149 q 360 46 453 46 q 174 124 242 46 q 106 336 106 203 l 106 488 q 174 699 106 621 q 360 778 242 778 q 508 726 453 778 q 563 585 563 675 l 528 618 l 563 618 l 560 764 l 721 764 l 721 -7 q 648 -185 721 -119 q 447 -250 575 -250 l 214 -250 m 414 186 q 521 228 482 186 q 560 343 560 269 l 560 481 q 521 596 560 554 q 414 638 482 638 q 305 597 343 638 q 267 481 267 556 l 267 343 q 305 227 267 268 q 414 186 343 186 m 338 896 l 146 1090 l 306 1090 l 414 988 l 517 1090 l 679 1090 l 488 896 l 338 896 z "},"ĝ":{"ha":833,"x_min":106,"x_max":721,"o":"m 214 -250 l 214 -112 l 444 -112 q 532 -85 503 -112 q 561 -4 561 -57 l 561 64 l 564 206 l 528 206 l 563 239 q 508 97 563 149 q 360 46 453 46 q 174 124 242 46 q 106 336 106 203 l 106 488 q 174 699 106 621 q 360 778 242 778 q 508 726 453 778 q 563 585 563 675 l 528 618 l 563 618 l 560 764 l 721 764 l 721 -7 q 648 -185 721 -119 q 447 -250 575 -250 l 214 -250 m 414 186 q 521 228 482 186 q 560 343 560 269 l 560 481 q 521 596 560 554 q 414 638 482 638 q 305 597 343 638 q 267 481 267 556 l 267 343 q 305 227 267 268 q 414 186 343 186 m 146 896 l 338 1090 l 488 1090 l 679 896 l 519 896 l 411 999 l 308 896 l 146 896 z "},"ģ":{"ha":833,"x_min":106,"x_max":721,"o":"m 214 -250 l 214 -112 l 444 -112 q 532 -85 503 -112 q 561 -4 561 -57 l 561 64 l 564 206 l 528 206 l 563 239 q 508 97 563 149 q 360 46 453 46 q 174 124 242 46 q 106 336 106 203 l 106 488 q 174 699 106 621 q 360 778 242 778 q 508 726 453 778 q 563 585 563 675 l 528 618 l 563 618 l 560 764 l 721 764 l 721 -7 q 648 -185 721 -119 q 447 -250 575 -250 l 214 -250 m 414 186 q 521 228 482 186 q 560 343 560 269 l 560 481 q 521 596 560 554 q 414 638 482 638 q 305 597 343 638 q 267 481 267 556 l 267 343 q 305 227 267 268 q 414 186 343 186 m 588 1222 l 476 896 l 275 896 l 456 1222 l 588 1222 z "},"ġ":{"ha":833,"x_min":106,"x_max":721,"o":"m 214 -250 l 214 -112 l 444 -112 q 532 -85 503 -112 q 561 -4 561 -57 l 561 64 l 564 206 l 528 206 l 563 239 q 508 97 563 149 q 360 46 453 46 q 174 124 242 46 q 106 336 106 203 l 106 488 q 174 699 106 621 q 360 778 242 778 q 508 726 453 778 q 563 585 563 675 l 528 618 l 563 618 l 560 764 l 721 764 l 721 -7 q 648 -185 721 -119 q 447 -250 575 -250 l 214 -250 m 414 186 q 521 228 482 186 q 560 343 560 269 l 560 481 q 521 596 560 554 q 414 638 482 638 q 305 597 343 638 q 267 481 267 556 l 267 343 q 305 227 267 268 q 414 186 343 186 m 413 894 q 332 920 361 894 q 303 990 303 946 q 332 1063 303 1036 q 413 1089 361 1089 q 493 1063 464 1089 q 522 990 522 1036 q 493 920 522 946 q 413 894 464 894 z "},"h":{"ha":833,"x_min":111,"x_max":725,"o":"m 111 0 l 111 1014 l 274 1014 l 274 764 l 271 618 l 313 618 l 271 581 q 326 726 271 674 q 475 778 381 778 q 657 704 589 778 q 725 504 725 631 l 725 0 l 563 0 l 563 488 q 524 599 563 560 q 419 639 486 639 q 313 597 351 639 q 274 481 274 556 l 274 0 l 111 0 z "},"ħ":{"ha":833,"x_min":0,"x_max":725,"o":"m 0 782 l 0 896 l 111 896 l 111 1014 l 274 1014 l 274 896 l 492 896 l 492 782 l 274 782 l 274 681 l 271 535 l 274 535 q 338 653 285 611 q 475 694 390 694 q 657 621 589 694 q 725 421 725 547 l 725 0 l 563 0 l 563 404 q 524 516 563 476 q 419 556 486 556 q 313 514 351 556 q 274 397 274 472 l 274 0 l 111 0 l 111 782 l 0 782 z "},"ĥ":{"ha":833,"x_min":-58,"x_max":725,"o":"m 111 0 l 111 1014 l 274 1014 l 274 764 l 271 618 l 313 618 l 271 581 q 326 726 271 674 q 475 778 381 778 q 657 704 589 778 q 725 504 725 631 l 725 0 l 563 0 l 563 488 q 524 599 563 560 q 419 639 486 639 q 313 597 351 639 q 274 481 274 556 l 274 0 l 111 0 m -58 1118 l 133 1313 l 283 1313 l 475 1118 l 315 1118 l 207 1221 l 104 1118 l -58 1118 z "},"i":{"ha":833,"x_min":108,"x_max":774,"o":"m 108 0 l 108 147 l 376 147 l 376 618 l 143 618 l 143 764 l 532 764 l 532 147 l 774 147 l 774 0 l 108 0 m 440 894 q 360 920 389 894 q 331 990 331 946 q 360 1063 331 1036 q 440 1089 389 1089 q 521 1063 492 1089 q 550 990 550 1036 q 521 920 550 946 q 440 894 492 894 z "},"ı":{"ha":833,"x_min":108,"x_max":774,"o":"m 108 0 l 108 147 l 376 147 l 376 618 l 143 618 l 143 764 l 532 764 l 532 147 l 774 147 l 774 0 l 108 0 z "},"í":{"ha":833,"x_min":108,"x_max":774,"o":"m 108 0 l 108 147 l 376 147 l 376 618 l 143 618 l 143 764 l 532 764 l 532 147 l 774 147 l 774 0 l 108 0 m 342 896 l 488 1090 l 663 1090 l 504 896 l 342 896 z "},"ĭ":{"ha":833,"x_min":108,"x_max":774,"o":"m 108 0 l 108 147 l 376 147 l 376 618 l 143 618 l 143 764 l 532 764 l 532 147 l 774 147 l 774 0 l 108 0 m 440 886 q 269 942 335 886 q 203 1090 203 999 l 328 1090 q 358 1014 328 1043 q 439 985 389 985 q 522 1014 490 985 q 553 1090 553 1043 l 678 1090 q 613 942 678 999 q 440 886 547 886 z "},"î":{"ha":833,"x_min":108,"x_max":774,"o":"m 108 0 l 108 147 l 376 147 l 376 618 l 143 618 l 143 764 l 532 764 l 532 147 l 774 147 l 774 0 l 108 0 m 174 896 l 365 1090 l 515 1090 l 707 896 l 547 896 l 439 999 l 336 896 l 174 896 z "},"ï":{"ha":833,"x_min":108,"x_max":774,"o":"m 108 0 l 108 147 l 376 147 l 376 618 l 143 618 l 143 764 l 532 764 l 532 147 l 774 147 l 774 0 l 108 0 m 601 894 q 529 920 556 894 q 503 990 503 946 q 529 1063 503 1036 q 601 1089 556 1089 q 673 1063 646 1089 q 700 990 700 1036 q 673 920 700 946 q 601 894 646 894 m 279 894 q 208 920 235 894 q 181 990 181 946 q 208 1063 181 1036 q 279 1089 235 1089 q 351 1063 325 1089 q 378 990 378 1036 q 351 920 378 946 q 279 894 325 894 z "},"ị":{"ha":833,"x_min":108,"x_max":774,"o":"m 108 0 l 108 147 l 376 147 l 376 618 l 143 618 l 143 764 l 532 764 l 532 147 l 774 147 l 774 0 l 108 0 m 440 894 q 360 920 389 894 q 331 990 331 946 q 360 1063 331 1036 q 440 1089 389 1089 q 521 1063 492 1089 q 550 990 550 1036 q 521 920 550 946 q 440 894 492 894 m 440 -308 q 360 -282 389 -308 q 331 -211 331 -256 q 360 -140 331 -167 q 440 -112 389 -112 q 521 -140 492 -112 q 550 -211 550 -167 q 521 -282 550 -256 q 440 -308 492 -308 z "},"ì":{"ha":833,"x_min":108,"x_max":774,"o":"m 108 0 l 108 147 l 376 147 l 376 618 l 143 618 l 143 764 l 532 764 l 532 147 l 774 147 l 774 0 l 108 0 m 376 896 l 215 1090 l 394 1090 l 543 896 l 376 896 z "},"ỉ":{"ha":833,"x_min":108,"x_max":774,"o":"m 108 0 l 108 147 l 376 147 l 376 618 l 143 618 l 143 764 l 532 764 l 532 147 l 774 147 l 774 0 l 108 0 m 372 896 l 442 981 q 461 1022 461 1006 q 421 1049 461 1049 l 310 1049 l 310 1151 l 456 1151 q 549 1122 514 1151 q 585 1042 585 1092 q 558 963 585 996 l 506 896 l 372 896 z "},"ī":{"ha":833,"x_min":108,"x_max":774,"o":"m 108 0 l 108 147 l 376 147 l 376 618 l 143 618 l 143 764 l 532 764 l 532 147 l 774 147 l 774 0 l 108 0 m 206 921 l 206 1047 l 675 1047 l 675 921 l 206 921 z "},"į":{"ha":833,"x_min":108,"x_max":774,"o":"m 443 -296 q 316 -256 364 -296 q 268 -156 268 -217 q 301 -69 268 -112 q 403 14 335 -25 l 514 14 l 485 -10 q 429 -71 447 -43 q 411 -124 411 -99 q 430 -167 411 -149 q 482 -185 449 -185 l 571 -185 l 571 -296 l 443 -296 m 108 0 l 108 147 l 376 147 l 376 618 l 143 618 l 143 764 l 532 764 l 532 147 l 774 147 l 774 0 l 108 0 m 440 894 q 360 920 390 894 q 331 990 331 946 q 360 1063 331 1036 q 440 1089 390 1089 q 522 1063 492 1089 q 551 990 551 1036 q 522 920 551 946 q 440 894 492 894 z "},"ĩ":{"ha":833,"x_min":108,"x_max":774,"o":"m 108 0 l 108 147 l 376 147 l 376 618 l 143 618 l 143 764 l 532 764 l 532 147 l 774 147 l 774 0 l 108 0 m 538 893 q 468 907 494 893 q 424 939 442 921 q 389 971 406 957 q 350 985 372 985 q 320 972 332 985 q 308 938 308 960 l 308 900 l 206 900 l 206 946 q 244 1053 206 1013 q 343 1093 282 1093 q 413 1079 386 1093 q 457 1047 439 1065 q 492 1015 475 1029 q 531 1001 508 1001 q 561 1013 550 1001 q 572 1046 572 1024 l 572 1086 l 675 1086 l 675 1040 q 638 933 675 974 q 538 893 600 893 z "},"j":{"ha":833,"x_min":115,"x_max":651,"o":"m 115 -250 l 115 -100 l 314 -100 q 426 -60 386 -100 q 467 51 467 -21 l 467 614 l 157 614 l 157 764 l 629 764 l 629 49 q 546 -169 629 -89 q 319 -250 463 -250 l 115 -250 m 540 894 q 460 920 489 894 q 431 990 431 946 q 460 1063 431 1036 q 540 1089 489 1089 q 621 1063 592 1089 q 650 990 650 1036 q 621 920 650 946 q 540 894 592 894 z "},"ȷ":{"ha":833,"x_min":115,"x_max":629,"o":"m 115 -250 l 115 -100 l 314 -100 q 426 -60 386 -100 q 467 51 467 -21 l 467 614 l 157 614 l 157 764 l 629 764 l 629 49 q 546 -169 629 -89 q 319 -250 463 -250 l 115 -250 z "},"ĵ":{"ha":833,"x_min":115,"x_max":724,"o":"m 115 -250 l 115 -100 l 314 -100 q 426 -60 386 -100 q 467 51 467 -21 l 467 614 l 157 614 l 157 764 l 629 764 l 629 49 q 546 -169 629 -89 q 319 -250 463 -250 l 115 -250 m 190 896 l 382 1090 l 532 1090 l 724 896 l 564 896 l 456 999 l 353 896 l 190 896 z "},"k":{"ha":833,"x_min":115,"x_max":786,"o":"m 115 0 l 115 1014 l 278 1014 l 278 460 l 406 460 l 600 764 l 782 764 l 544 396 l 786 0 l 601 0 l 406 322 l 278 322 l 278 0 l 115 0 z "},"ķ":{"ha":833,"x_min":115,"x_max":786,"o":"m 115 0 l 115 1014 l 278 1014 l 278 460 l 406 460 l 600 764 l 782 764 l 544 396 l 786 0 l 601 0 l 406 322 l 278 322 l 278 0 l 115 0 m 254 -333 l 386 -132 l 560 -132 l 408 -333 l 254 -333 z "},"ĸ":{"ha":833,"x_min":118,"x_max":779,"o":"m 118 0 l 118 764 l 279 764 l 279 460 l 397 460 l 592 764 l 775 764 l 538 396 l 779 0 l 593 0 l 397 322 l 279 322 l 279 0 l 118 0 z "},"l":{"ha":833,"x_min":39,"x_max":774,"o":"m 531 0 q 402 30 457 0 q 317 114 347 60 q 286 240 286 168 l 286 868 l 39 868 l 39 1014 l 449 1014 l 449 240 q 473 172 449 197 q 539 146 497 146 l 774 146 l 774 0 l 531 0 z "},"ĺ":{"ha":833,"x_min":39,"x_max":774,"o":"m 531 0 q 402 30 457 0 q 317 114 347 60 q 286 240 286 168 l 286 868 l 39 868 l 39 1014 l 449 1014 l 449 240 q 473 172 449 197 q 539 146 497 146 l 774 146 l 774 0 l 531 0 m 261 1125 l 407 1319 l 582 1319 l 424 1125 l 261 1125 z "},"ľ":{"ha":833,"x_min":39,"x_max":783,"o":"m 531 0 q 402 30 457 0 q 317 114 347 60 q 286 240 286 168 l 286 868 l 39 868 l 39 1014 l 449 1014 l 449 240 q 473 172 449 197 q 539 146 497 146 l 774 146 l 774 0 l 531 0 m 618 764 l 632 1014 l 783 1014 l 756 764 l 618 764 z "},"ļ":{"ha":833,"x_min":39,"x_max":774,"o":"m 531 0 q 402 30 457 0 q 317 114 347 60 q 286 240 286 168 l 286 868 l 39 868 l 39 1014 l 449 1014 l 449 240 q 473 172 449 197 q 539 146 497 146 l 774 146 l 774 0 l 531 0 m 282 -333 l 414 -132 l 588 -132 l 436 -333 l 282 -333 z "},"ŀ":{"ha":833,"x_min":11,"x_max":900,"o":"m 503 0 q 374 30 429 0 q 289 114 319 60 q 258 240 258 168 l 258 868 l 11 868 l 11 1014 l 421 1014 l 421 240 q 445 172 421 197 q 511 146 469 146 l 746 146 l 746 0 l 503 0 z "},"ł":{"ha":833,"x_min":39,"x_max":774,"o":"m 139 319 l 139 468 l 658 778 l 658 629 l 139 319 m 531 0 q 402 30 457 0 q 317 114 347 60 q 286 240 286 168 l 286 868 l 39 868 l 39 1014 l 449 1014 l 449 240 q 473 172 449 197 q 539 146 497 146 l 774 146 l 774 0 l 531 0 z "},"m":{"ha":833,"x_min":76,"x_max":757,"o":"m 76 0 l 76 764 l 211 764 l 211 664 l 239 664 l 217 636 q 252 740 217 701 q 344 778 288 778 q 441 728 407 778 q 475 594 475 679 l 443 664 l 493 664 l 472 636 q 508 740 472 701 q 604 778 544 778 q 716 724 675 778 q 757 582 757 671 l 757 0 l 614 0 l 614 576 q 597 639 614 617 q 546 661 579 661 q 494 640 513 661 q 476 578 476 618 l 476 0 l 357 0 l 357 576 q 339 640 357 618 q 288 661 321 661 q 238 640 254 661 q 221 578 221 618 l 221 0 l 76 0 z "},"n":{"ha":833,"x_min":111,"x_max":725,"o":"m 111 0 l 111 764 l 271 764 l 271 618 l 313 618 l 271 581 q 326 726 271 674 q 475 778 381 778 q 657 704 589 778 q 725 504 725 631 l 725 0 l 563 0 l 563 488 q 524 599 563 560 q 419 638 486 638 q 313 597 351 638 q 274 481 274 556 l 274 0 l 111 0 z "},"ń":{"ha":833,"x_min":111,"x_max":725,"o":"m 111 0 l 111 764 l 271 764 l 271 618 l 313 618 l 271 581 q 326 726 271 674 q 475 778 381 778 q 657 704 589 778 q 725 504 725 631 l 725 0 l 563 0 l 563 488 q 524 599 563 560 q 419 638 486 638 q 313 597 351 638 q 274 481 274 556 l 274 0 l 111 0 m 325 896 l 471 1090 l 646 1090 l 488 896 l 325 896 z "},"ŉ":{"ha":833,"x_min":-10,"x_max":725,"o":"m 111 0 l 111 764 l 271 764 l 271 618 l 313 618 l 271 581 q 326 726 271 674 q 475 778 381 778 q 657 704 589 778 q 725 504 725 631 l 725 0 l 563 0 l 563 488 q 524 599 563 560 q 419 638 486 638 q 313 597 351 638 q 274 481 274 556 l 274 0 l 111 0 m -10 896 l 122 1097 l 296 1097 l 144 896 l -10 896 z "},"ň":{"ha":833,"x_min":111,"x_max":725,"o":"m 111 0 l 111 764 l 271 764 l 271 618 l 313 618 l 271 581 q 326 726 271 674 q 475 778 381 778 q 657 704 589 778 q 725 504 725 631 l 725 0 l 563 0 l 563 488 q 524 599 563 560 q 419 638 486 638 q 313 597 351 638 q 274 481 274 556 l 274 0 l 111 0 m 349 896 l 157 1090 l 317 1090 l 425 988 l 528 1090 l 690 1090 l 499 896 l 349 896 z "},"ņ":{"ha":833,"x_min":111,"x_max":725,"o":"m 111 0 l 111 764 l 271 764 l 271 618 l 313 618 l 271 581 q 326 726 271 674 q 475 778 381 778 q 657 704 589 778 q 725 504 725 631 l 725 0 l 563 0 l 563 488 q 524 599 563 560 q 419 638 486 638 q 313 597 351 638 q 274 481 274 556 l 274 0 l 111 0 m 254 -333 l 386 -132 l 560 -132 l 408 -333 l 254 -333 z "},"ŋ":{"ha":833,"x_min":114,"x_max":722,"o":"m 338 -250 l 338 -97 l 422 -97 q 524 -61 488 -97 q 561 38 561 -25 l 561 488 q 524 599 561 560 q 419 639 486 639 q 313 597 351 639 q 275 481 275 556 l 275 0 l 114 0 l 114 764 l 272 764 l 272 618 l 314 618 l 272 581 q 326 726 272 674 q 475 778 381 778 q 656 704 589 778 q 722 504 722 631 l 722 26 q 684 -118 722 -56 q 577 -215 646 -181 q 417 -250 508 -250 l 338 -250 z "},"ñ":{"ha":833,"x_min":111,"x_max":725,"o":"m 111 0 l 111 764 l 271 764 l 271 618 l 313 618 l 271 581 q 326 726 271 674 q 475 778 381 778 q 657 704 589 778 q 725 504 725 631 l 725 0 l 563 0 l 563 488 q 524 599 563 560 q 419 638 486 638 q 313 597 351 638 q 274 481 274 556 l 274 0 l 111 0 m 521 893 q 451 907 478 893 q 407 939 425 921 q 372 971 389 957 q 333 985 356 985 q 303 972 315 985 q 292 938 292 960 l 292 900 l 189 900 l 189 946 q 227 1053 189 1013 q 326 1093 265 1093 q 396 1079 369 1093 q 440 1047 422 1065 q 475 1015 458 1029 q 514 1001 492 1001 q 544 1013 533 1001 q 556 1046 556 1024 l 556 1086 l 658 1086 l 658 1040 q 621 933 658 974 q 521 893 583 893 z "},"o":{"ha":833,"x_min":103,"x_max":731,"o":"m 417 -12 q 251 24 321 -12 q 142 127 181 60 q 103 286 103 194 l 103 478 q 142 637 103 569 q 251 740 181 704 q 417 776 321 776 q 583 740 514 776 q 692 637 653 704 q 731 479 731 569 l 731 286 q 692 127 731 194 q 583 24 653 60 q 417 -12 514 -12 m 417 129 q 529 169 489 129 q 569 286 569 210 l 569 478 q 529 595 569 556 q 417 635 489 635 q 305 595 346 635 q 264 478 264 556 l 264 286 q 305 169 264 210 q 417 129 346 129 z "},"ó":{"ha":833,"x_min":103,"x_max":731,"o":"m 417 -12 q 251 24 321 -12 q 142 127 181 60 q 103 286 103 194 l 103 478 q 142 637 103 569 q 251 740 181 704 q 417 776 321 776 q 583 740 514 776 q 692 637 653 704 q 731 479 731 569 l 731 286 q 692 127 731 194 q 583 24 653 60 q 417 -12 514 -12 m 417 129 q 529 169 489 129 q 569 286 569 210 l 569 478 q 529 595 569 556 q 417 635 489 635 q 305 595 346 635 q 264 478 264 556 l 264 286 q 305 169 264 210 q 417 129 346 129 m 318 896 l 464 1090 l 639 1090 l 481 896 l 318 896 z "},"ŏ":{"ha":833,"x_min":103,"x_max":731,"o":"m 417 -12 q 251 24 321 -12 q 142 127 181 60 q 103 286 103 194 l 103 478 q 142 637 103 569 q 251 740 181 704 q 417 776 321 776 q 583 740 514 776 q 692 637 653 704 q 731 479 731 569 l 731 286 q 692 127 731 194 q 583 24 653 60 q 417 -12 514 -12 m 417 129 q 529 169 489 129 q 569 286 569 210 l 569 478 q 529 595 569 556 q 417 635 489 635 q 305 595 346 635 q 264 478 264 556 l 264 286 q 305 169 264 210 q 417 129 346 129 m 417 886 q 245 942 311 886 q 179 1090 179 999 l 304 1090 q 335 1014 304 1043 q 415 985 365 985 q 498 1014 467 985 q 529 1090 529 1043 l 654 1090 q 589 942 654 999 q 417 886 524 886 z "},"ô":{"ha":833,"x_min":103,"x_max":731,"o":"m 417 -12 q 251 24 321 -12 q 142 127 181 60 q 103 286 103 194 l 103 478 q 142 637 103 569 q 251 740 181 704 q 417 776 321 776 q 583 740 514 776 q 692 637 653 704 q 731 479 731 569 l 731 286 q 692 127 731 194 q 583 24 653 60 q 417 -12 514 -12 m 417 129 q 529 169 489 129 q 569 286 569 210 l 569 478 q 529 595 569 556 q 417 635 489 635 q 305 595 346 635 q 264 478 264 556 l 264 286 q 305 169 264 210 q 417 129 346 129 m 150 896 l 342 1090 l 492 1090 l 683 896 l 524 896 l 415 999 l 313 896 l 150 896 z "},"ố":{"ha":833,"x_min":103,"x_max":906,"o":"m 417 -12 q 251 24 321 -12 q 142 127 181 60 q 103 286 103 194 l 103 478 q 142 637 103 569 q 251 740 181 704 q 417 776 321 776 q 583 740 514 776 q 692 637 653 704 q 731 479 731 569 l 731 286 q 692 127 731 194 q 583 24 653 60 q 417 -12 514 -12 m 417 129 q 529 169 489 129 q 569 286 569 210 l 569 478 q 529 595 569 556 q 417 635 489 635 q 305 595 346 635 q 264 478 264 556 l 264 286 q 305 169 264 210 q 417 129 346 129 m 575 1056 l 739 1250 l 906 1250 l 732 1056 l 575 1056 m 151 896 l 342 1090 l 492 1090 l 683 896 l 521 896 l 417 999 l 311 896 l 151 896 z "},"ộ":{"ha":833,"x_min":103,"x_max":731,"o":"m 150 896 l 342 1090 l 492 1090 l 683 896 l 524 896 l 415 999 l 313 896 l 150 896 m 417 -12 q 251 24 321 -12 q 142 127 181 60 q 103 286 103 194 l 103 478 q 142 637 103 569 q 251 740 181 704 q 417 776 321 776 q 583 740 514 776 q 692 637 653 704 q 731 479 731 569 l 731 286 q 692 127 731 194 q 583 24 653 60 q 417 -12 514 -12 m 417 129 q 529 169 489 129 q 569 286 569 210 l 569 478 q 529 595 569 556 q 417 635 489 635 q 305 595 346 635 q 264 478 264 556 l 264 286 q 305 169 264 210 q 417 129 346 129 m 431 -308 q 350 -282 379 -308 q 321 -211 321 -256 q 350 -140 321 -167 q 431 -112 379 -112 q 511 -140 482 -112 q 540 -211 540 -167 q 511 -282 540 -256 q 431 -308 482 -308 z "},"ồ":{"ha":833,"x_min":103,"x_max":797,"o":"m 417 -12 q 251 24 321 -12 q 142 127 181 60 q 103 286 103 194 l 103 478 q 142 637 103 569 q 251 740 181 704 q 417 776 321 776 q 583 740 514 776 q 692 637 653 704 q 731 479 731 569 l 731 286 q 692 127 731 194 q 583 24 653 60 q 417 -12 514 -12 m 417 129 q 529 169 489 129 q 569 286 569 210 l 569 478 q 529 595 569 556 q 417 635 489 635 q 305 595 346 635 q 264 478 264 556 l 264 286 q 305 169 264 210 q 417 129 346 129 m 640 1056 l 460 1250 l 626 1250 l 797 1056 l 640 1056 m 151 896 l 342 1090 l 492 1090 l 683 896 l 521 896 l 417 999 l 311 896 l 151 896 z "},"ổ":{"ha":833,"x_min":103,"x_max":789,"o":"m 417 -12 q 251 24 321 -12 q 142 127 181 60 q 103 286 103 194 l 103 478 q 142 637 103 569 q 251 740 181 704 q 417 776 321 776 q 583 740 514 776 q 692 637 653 704 q 731 479 731 569 l 731 286 q 692 127 731 194 q 583 24 653 60 q 417 -12 514 -12 m 417 129 q 529 169 489 129 q 569 286 569 210 l 569 478 q 529 595 569 556 q 417 635 489 635 q 305 595 346 635 q 264 478 264 556 l 264 286 q 305 169 264 210 q 417 129 346 129 m 588 1056 l 653 1139 q 668 1175 668 1160 q 658 1197 668 1190 q 628 1204 647 1204 l 539 1204 l 539 1303 l 646 1303 q 750 1273 711 1303 q 789 1193 789 1243 q 782 1156 789 1174 q 761 1119 775 1138 l 713 1056 l 588 1056 m 151 896 l 342 1090 l 492 1090 l 683 896 l 521 896 l 417 999 l 311 896 l 151 896 z "},"ỗ":{"ha":833,"x_min":103,"x_max":731,"o":"m 417 -12 q 251 24 321 -12 q 142 127 181 60 q 103 286 103 194 l 103 478 q 142 637 103 569 q 251 740 181 704 q 417 776 321 776 q 583 740 514 776 q 692 637 653 704 q 731 479 731 569 l 731 286 q 692 127 731 194 q 583 24 653 60 q 417 -12 514 -12 m 417 129 q 529 169 489 129 q 569 286 569 210 l 569 478 q 529 595 569 556 q 417 635 489 635 q 305 595 346 635 q 264 478 264 556 l 264 286 q 305 169 264 210 q 417 129 346 129 m 511 1136 q 440 1149 467 1136 q 397 1179 414 1163 q 365 1208 381 1196 q 326 1221 349 1221 q 296 1210 307 1221 q 285 1178 285 1199 l 285 1144 l 182 1144 l 182 1176 q 221 1277 182 1239 q 322 1315 260 1315 q 393 1302 367 1315 q 436 1272 419 1289 q 469 1242 453 1256 q 507 1229 485 1229 q 549 1269 549 1229 l 549 1304 l 651 1304 l 651 1275 q 613 1174 651 1213 q 511 1136 574 1136 m 151 896 l 342 1090 l 492 1090 l 683 896 l 521 896 l 417 999 l 311 896 l 151 896 z "},"ö":{"ha":833,"x_min":103,"x_max":731,"o":"m 417 -12 q 251 24 321 -12 q 142 127 181 60 q 103 286 103 194 l 103 478 q 142 637 103 569 q 251 740 181 704 q 417 776 321 776 q 583 740 514 776 q 692 637 653 704 q 731 479 731 569 l 731 286 q 692 127 731 194 q 583 24 653 60 q 417 -12 514 -12 m 417 129 q 529 169 489 129 q 569 286 569 210 l 569 478 q 529 595 569 556 q 417 635 489 635 q 305 595 346 635 q 264 478 264 556 l 264 286 q 305 169 264 210 q 417 129 346 129 m 578 894 q 506 920 532 894 q 479 990 479 946 q 506 1063 479 1036 q 578 1089 532 1089 q 649 1063 622 1089 q 676 990 676 1036 q 649 920 676 946 q 578 894 622 894 m 256 894 q 184 920 211 894 q 157 990 157 946 q 184 1063 157 1036 q 256 1089 211 1089 q 328 1063 301 1089 q 354 990 354 1036 q 328 920 354 946 q 256 894 301 894 z "},"ọ":{"ha":833,"x_min":103,"x_max":731,"o":"m 417 -12 q 251 24 321 -12 q 142 127 181 60 q 103 286 103 194 l 103 478 q 142 637 103 569 q 251 740 181 704 q 417 776 321 776 q 583 740 514 776 q 692 637 653 704 q 731 479 731 569 l 731 286 q 692 127 731 194 q 583 24 653 60 q 417 -12 514 -12 m 417 129 q 529 169 489 129 q 569 286 569 210 l 569 478 q 529 595 569 556 q 417 635 489 635 q 305 595 346 635 q 264 478 264 556 l 264 286 q 305 169 264 210 q 417 129 346 129 m 431 -308 q 350 -282 379 -308 q 321 -211 321 -256 q 350 -140 321 -167 q 431 -112 379 -112 q 511 -140 482 -112 q 540 -211 540 -167 q 511 -282 540 -256 q 431 -308 482 -308 z "},"ò":{"ha":833,"x_min":103,"x_max":731,"o":"m 417 -12 q 251 24 321 -12 q 142 127 181 60 q 103 286 103 194 l 103 478 q 142 637 103 569 q 251 740 181 704 q 417 776 321 776 q 583 740 514 776 q 692 637 653 704 q 731 479 731 569 l 731 286 q 692 127 731 194 q 583 24 653 60 q 417 -12 514 -12 m 417 129 q 529 169 489 129 q 569 286 569 210 l 569 478 q 529 595 569 556 q 417 635 489 635 q 305 595 346 635 q 264 478 264 556 l 264 286 q 305 169 264 210 q 417 129 346 129 m 353 896 l 192 1090 l 371 1090 l 519 896 l 353 896 z "},"ỏ":{"ha":833,"x_min":103,"x_max":731,"o":"m 417 -12 q 251 24 321 -12 q 142 127 181 60 q 103 286 103 194 l 103 478 q 142 637 103 569 q 251 740 181 704 q 417 776 321 776 q 583 740 514 776 q 692 637 653 704 q 731 479 731 569 l 731 286 q 692 127 731 194 q 583 24 653 60 q 417 -12 514 -12 m 417 129 q 529 169 489 129 q 569 286 569 210 l 569 478 q 529 595 569 556 q 417 635 489 635 q 305 595 346 635 q 264 478 264 556 l 264 286 q 305 169 264 210 q 417 129 346 129 m 349 896 l 418 981 q 438 1022 438 1006 q 397 1049 438 1049 l 286 1049 l 286 1151 l 432 1151 q 526 1122 490 1151 q 561 1042 561 1092 q 535 963 561 996 l 482 896 l 349 896 z "},"ơ":{"ha":833,"x_min":103,"x_max":775,"o":"m 531 625 l 531 736 l 594 736 q 631 749 618 736 q 643 785 643 761 l 643 889 l 775 889 l 775 781 q 728 667 775 710 q 604 625 681 625 l 531 625 m 417 -12 q 251 24 321 -12 q 142 127 181 60 q 103 286 103 194 l 103 478 q 142 637 103 569 q 251 740 181 704 q 417 776 321 776 q 583 740 514 776 q 692 637 653 704 q 731 479 731 569 l 731 286 q 692 127 731 194 q 583 24 653 60 q 417 -12 514 -12 m 417 129 q 529 169 489 129 q 569 286 569 210 l 569 478 q 529 595 569 556 q 417 635 489 635 q 305 595 346 635 q 264 478 264 556 l 264 286 q 305 169 264 210 q 417 129 346 129 z "},"ớ":{"ha":833,"x_min":103,"x_max":775,"o":"m 531 625 l 531 736 l 594 736 q 631 749 618 736 q 643 785 643 761 l 643 889 l 775 889 l 775 781 q 728 667 775 710 q 604 625 681 625 l 531 625 m 417 -12 q 251 24 321 -12 q 142 127 181 60 q 103 286 103 194 l 103 478 q 142 637 103 569 q 251 740 181 704 q 417 776 321 776 q 583 740 514 776 q 692 637 653 704 q 731 479 731 569 l 731 286 q 692 127 731 194 q 583 24 653 60 q 417 -12 514 -12 m 417 129 q 529 169 489 129 q 569 286 569 210 l 569 478 q 529 595 569 556 q 417 635 489 635 q 305 595 346 635 q 264 478 264 556 l 264 286 q 305 169 264 210 q 417 129 346 129 m 304 896 l 450 1090 l 625 1090 l 467 896 l 304 896 z "},"ợ":{"ha":833,"x_min":103,"x_max":775,"o":"m 531 625 l 531 736 l 594 736 q 631 749 618 736 q 643 785 643 761 l 643 889 l 775 889 l 775 781 q 728 667 775 710 q 604 625 681 625 l 531 625 m 417 -12 q 251 24 321 -12 q 142 127 181 60 q 103 286 103 194 l 103 478 q 142 637 103 569 q 251 740 181 704 q 417 776 321 776 q 583 740 514 776 q 692 637 653 704 q 731 479 731 569 l 731 286 q 692 127 731 194 q 583 24 653 60 q 417 -12 514 -12 m 417 129 q 529 169 489 129 q 569 286 569 210 l 569 478 q 529 595 569 556 q 417 635 489 635 q 305 595 346 635 q 264 478 264 556 l 264 286 q 305 169 264 210 q 417 129 346 129 m 431 -308 q 350 -282 379 -308 q 321 -211 321 -256 q 350 -140 321 -167 q 431 -112 379 -112 q 511 -140 482 -112 q 540 -211 540 -167 q 511 -282 540 -256 q 431 -308 482 -308 z "},"ờ":{"ha":833,"x_min":103,"x_max":775,"o":"m 531 625 l 531 736 l 594 736 q 631 749 618 736 q 643 785 643 761 l 643 889 l 775 889 l 775 781 q 728 667 775 710 q 604 625 681 625 l 531 625 m 417 -12 q 251 24 321 -12 q 142 127 181 60 q 103 286 103 194 l 103 478 q 142 637 103 569 q 251 740 181 704 q 417 776 321 776 q 583 740 514 776 q 692 637 653 704 q 731 479 731 569 l 731 286 q 692 127 731 194 q 583 24 653 60 q 417 -12 514 -12 m 417 129 q 529 169 489 129 q 569 286 569 210 l 569 478 q 529 595 569 556 q 417 635 489 635 q 305 595 346 635 q 264 478 264 556 l 264 286 q 305 169 264 210 q 417 129 346 129 m 339 896 l 178 1090 l 357 1090 l 506 896 l 339 896 z "},"ở":{"ha":833,"x_min":103,"x_max":775,"o":"m 531 625 l 531 736 l 594 736 q 631 749 618 736 q 643 785 643 761 l 643 889 l 775 889 l 775 781 q 728 667 775 710 q 604 625 681 625 l 531 625 m 417 -12 q 251 24 321 -12 q 142 127 181 60 q 103 286 103 194 l 103 478 q 142 637 103 569 q 251 740 181 704 q 417 776 321 776 q 583 740 514 776 q 692 637 653 704 q 731 479 731 569 l 731 286 q 692 127 731 194 q 583 24 653 60 q 417 -12 514 -12 m 417 129 q 529 169 489 129 q 569 286 569 210 l 569 478 q 529 595 569 556 q 417 635 489 635 q 305 595 346 635 q 264 478 264 556 l 264 286 q 305 169 264 210 q 417 129 346 129 m 349 896 l 418 981 q 438 1022 438 1006 q 397 1049 438 1049 l 286 1049 l 286 1151 l 432 1151 q 526 1122 490 1151 q 561 1042 561 1092 q 535 963 561 996 l 482 896 l 349 896 z "},"ỡ":{"ha":833,"x_min":103,"x_max":775,"o":"m 531 625 l 531 736 l 594 736 q 631 749 618 736 q 643 785 643 761 l 643 889 l 775 889 l 775 781 q 728 667 775 710 q 604 625 681 625 l 531 625 m 417 -12 q 251 24 321 -12 q 142 127 181 60 q 103 286 103 194 l 103 478 q 142 637 103 569 q 251 740 181 704 q 417 776 321 776 q 583 740 514 776 q 692 637 653 704 q 731 479 731 569 l 731 286 q 692 127 731 194 q 583 24 653 60 q 417 -12 514 -12 m 417 129 q 529 169 489 129 q 569 286 569 210 l 569 478 q 529 595 569 556 q 417 635 489 635 q 305 595 346 635 q 264 478 264 556 l 264 286 q 305 169 264 210 q 417 129 346 129 m 500 893 q 431 907 457 893 q 386 939 404 921 q 351 971 368 957 q 313 985 335 985 q 283 972 294 985 q 271 938 271 960 l 271 900 l 168 900 l 168 946 q 206 1053 168 1013 q 306 1093 244 1093 q 375 1079 349 1093 q 419 1047 401 1065 q 454 1015 438 1029 q 493 1001 471 1001 q 524 1013 513 1001 q 535 1046 535 1024 l 535 1086 l 638 1086 l 638 1040 q 600 933 638 974 q 500 893 563 893 z "},"ő":{"ha":833,"x_min":103,"x_max":760,"o":"m 417 -12 q 251 24 321 -12 q 142 127 181 60 q 103 286 103 194 l 103 478 q 142 637 103 569 q 251 740 181 704 q 417 776 321 776 q 583 740 514 776 q 692 637 653 704 q 731 479 731 569 l 731 286 q 692 127 731 194 q 583 24 653 60 q 417 -12 514 -12 m 417 129 q 529 169 489 129 q 569 286 569 210 l 569 478 q 529 595 569 556 q 417 635 489 635 q 305 595 346 635 q 264 478 264 556 l 264 286 q 305 169 264 210 q 417 129 346 129 m 450 896 l 600 1090 l 760 1090 l 600 896 l 450 896 m 178 896 l 328 1090 l 488 1090 l 328 896 l 178 896 z "},"ō":{"ha":833,"x_min":103,"x_max":731,"o":"m 417 -12 q 251 24 321 -12 q 142 127 181 60 q 103 286 103 194 l 103 478 q 142 637 103 569 q 251 740 181 704 q 417 776 321 776 q 583 740 514 776 q 692 637 653 704 q 731 479 731 569 l 731 286 q 692 127 731 194 q 583 24 653 60 q 417 -12 514 -12 m 417 129 q 529 169 489 129 q 569 286 569 210 l 569 478 q 529 595 569 556 q 417 635 489 635 q 305 595 346 635 q 264 478 264 556 l 264 286 q 305 169 264 210 q 417 129 346 129 m 182 921 l 182 1047 l 651 1047 l 651 921 l 182 921 z "},"ǫ":{"ha":833,"x_min":106,"x_max":728,"o":"m 508 -296 q 381 -256 429 -296 q 333 -156 333 -217 q 363 -76 333 -117 q 463 11 393 -36 q 453 0 461 6 q 435 -10 444 -6 q 417 -14 425 -14 q 251 22 321 -14 q 143 126 181 58 q 106 283 106 193 l 106 481 q 143 639 106 572 q 251 742 181 706 q 417 778 321 778 q 583 742 514 778 q 690 639 653 706 q 728 481 728 572 l 728 283 q 695 138 728 201 q 604 35 663 74 l 550 -10 q 494 -71 513 -43 q 476 -124 476 -99 q 495 -167 476 -149 q 547 -185 514 -185 l 636 -185 l 636 -296 l 508 -296 m 417 128 q 528 168 489 128 q 567 283 567 208 l 567 481 q 528 597 567 557 q 417 636 489 636 q 306 597 346 636 q 267 481 267 557 l 267 283 q 306 168 267 208 q 417 128 346 128 z "},"ø":{"ha":833,"x_min":43,"x_max":790,"o":"m 43 -42 l 650 819 l 790 819 l 183 -42 l 43 -42 m 417 -14 q 251 22 321 -14 q 143 126 181 58 q 106 283 106 193 l 106 481 q 143 639 106 572 q 251 742 181 706 q 417 778 321 778 q 583 742 514 778 q 690 639 653 706 q 728 481 728 572 l 728 283 q 690 126 728 193 q 583 22 653 58 q 417 -14 514 -14 m 417 128 q 534 169 492 128 q 576 283 576 211 l 576 481 q 534 595 576 554 q 417 636 492 636 q 299 595 342 636 q 257 481 257 554 l 257 283 q 299 169 257 211 q 417 128 342 128 z "},"ǿ":{"ha":833,"x_min":43,"x_max":790,"o":"m 43 -42 l 650 819 l 790 819 l 183 -42 l 43 -42 m 417 -14 q 251 22 321 -14 q 143 126 181 58 q 106 283 106 193 l 106 481 q 143 639 106 572 q 251 742 181 706 q 417 778 321 778 q 583 742 514 778 q 690 639 653 706 q 728 481 728 572 l 728 283 q 690 126 728 193 q 583 22 653 58 q 417 -14 514 -14 m 417 128 q 534 169 492 128 q 576 283 576 211 l 576 481 q 534 595 576 554 q 417 636 492 636 q 299 595 342 636 q 257 481 257 554 l 257 283 q 299 169 257 211 q 417 128 342 128 m 318 896 l 464 1090 l 639 1090 l 481 896 l 318 896 z "},"õ":{"ha":833,"x_min":103,"x_max":731,"o":"m 417 -12 q 251 24 321 -12 q 142 127 181 60 q 103 286 103 194 l 103 478 q 142 637 103 569 q 251 740 181 704 q 417 776 321 776 q 583 740 514 776 q 692 637 653 704 q 731 479 731 569 l 731 286 q 692 127 731 194 q 583 24 653 60 q 417 -12 514 -12 m 417 129 q 529 169 489 129 q 569 286 569 210 l 569 478 q 529 595 569 556 q 417 635 489 635 q 305 595 346 635 q 264 478 264 556 l 264 286 q 305 169 264 210 q 417 129 346 129 m 514 893 q 444 907 471 893 q 400 939 418 921 q 365 971 382 957 q 326 985 349 985 q 297 972 308 985 q 285 938 285 960 l 285 900 l 182 900 l 182 946 q 220 1053 182 1013 q 319 1093 258 1093 q 389 1079 363 1093 q 433 1047 415 1065 q 468 1015 451 1029 q 507 1001 485 1001 q 538 1013 526 1001 q 549 1046 549 1024 l 549 1086 l 651 1086 l 651 1040 q 614 933 651 974 q 514 893 576 893 z "},"œ":{"ha":833,"x_min":49,"x_max":785,"o":"m 250 -14 q 103 45 158 -14 q 49 203 49 104 l 49 561 q 103 719 49 661 q 250 778 158 778 q 339 760 304 778 q 392 718 374 743 q 413 669 410 693 l 421 669 q 441 718 424 693 q 494 760 458 743 q 583 778 529 778 q 730 719 675 778 q 785 561 785 661 l 785 347 l 485 347 l 485 203 q 506 131 485 157 q 565 106 528 106 q 622 126 600 106 q 646 183 643 147 l 782 183 q 721 40 775 93 q 583 -14 667 -14 q 494 3 529 -14 q 441 46 458 21 q 421 94 424 71 l 413 94 q 392 46 410 71 q 339 3 374 21 q 250 -14 304 -14 m 268 106 q 327 131 306 106 q 349 203 349 157 l 349 561 q 327 633 349 607 q 268 658 306 658 q 208 633 231 658 q 185 561 185 607 l 185 203 q 208 131 185 157 q 268 106 231 106 m 485 453 l 649 453 l 649 561 q 626 633 649 607 q 565 658 604 658 q 506 633 528 658 q 485 561 485 607 l 485 453 z "},"p":{"ha":833,"x_min":111,"x_max":731,"o":"m 111 -250 l 111 764 l 271 764 l 271 618 l 306 618 l 271 581 q 327 725 271 672 q 478 778 383 778 q 662 699 593 778 q 731 488 731 621 l 731 276 q 699 123 731 189 q 612 22 668 57 q 478 -14 556 -14 q 327 39 383 -14 q 271 183 271 92 l 306 146 l 269 146 l 274 -33 l 274 -250 l 111 -250 m 421 126 q 530 167 490 126 q 569 283 569 208 l 569 481 q 530 597 569 557 q 421 638 490 638 q 313 596 353 638 q 274 481 274 554 l 274 283 q 313 168 274 210 q 421 126 353 126 z "},"þ":{"ha":833,"x_min":108,"x_max":726,"o":"m 108 -236 l 108 76 l 267 76 l 267 -236 l 108 -236 m 472 -14 q 322 39 378 -14 q 267 183 267 92 l 303 146 l 267 146 l 267 0 l 108 0 l 108 1014 l 269 1014 l 269 797 l 265 618 l 303 618 l 267 581 q 323 725 267 672 q 472 778 379 778 q 657 699 588 778 q 726 488 726 621 l 726 276 q 657 65 726 143 q 472 -14 588 -14 m 417 126 q 526 167 486 126 q 565 283 565 208 l 565 481 q 526 597 565 556 q 417 638 486 638 q 309 596 349 638 q 269 481 269 554 l 269 283 q 309 168 269 210 q 417 126 349 126 z "},"q":{"ha":833,"x_min":106,"x_max":722,"o":"m 560 -250 l 560 -33 l 564 146 l 528 146 l 561 183 q 506 39 561 92 q 357 -14 451 -14 q 174 65 242 -14 q 106 276 106 143 l 106 488 q 174 699 106 621 q 357 778 242 778 q 506 725 451 778 q 561 581 561 672 l 528 618 l 563 618 l 563 764 l 722 764 l 722 -250 l 560 -250 m 414 126 q 521 168 482 126 q 560 283 560 210 l 560 481 q 521 596 560 554 q 414 638 482 638 q 305 597 343 638 q 267 481 267 557 l 267 283 q 305 167 267 208 q 414 126 343 126 z "},"r":{"ha":833,"x_min":136,"x_max":764,"o":"m 136 0 l 136 764 l 290 764 l 290 618 l 331 618 l 282 528 q 337 715 282 651 q 499 778 392 778 q 693 702 622 778 q 764 492 764 626 l 764 439 l 596 439 l 596 481 q 556 600 596 558 q 447 642 517 642 q 338 599 376 642 q 299 481 299 557 l 299 0 l 136 0 z "},"ŕ":{"ha":833,"x_min":136,"x_max":764,"o":"m 136 0 l 136 764 l 290 764 l 290 618 l 331 618 l 282 528 q 337 715 282 651 q 499 778 392 778 q 693 702 622 778 q 764 492 764 626 l 764 439 l 596 439 l 596 481 q 556 600 596 558 q 447 642 517 642 q 338 599 376 642 q 299 481 299 557 l 299 0 l 136 0 m 346 896 l 492 1090 l 667 1090 l 508 896 l 346 896 z "},"ř":{"ha":833,"x_min":136,"x_max":764,"o":"m 136 0 l 136 764 l 290 764 l 290 618 l 331 618 l 282 528 q 337 715 282 651 q 499 778 392 778 q 693 702 622 778 q 764 492 764 626 l 764 439 l 596 439 l 596 481 q 556 600 596 558 q 447 642 517 642 q 338 599 376 642 q 299 481 299 557 l 299 0 l 136 0 m 369 896 l 178 1090 l 338 1090 l 446 988 l 549 1090 l 711 1090 l 519 896 l 369 896 z "},"ŗ":{"ha":833,"x_min":25,"x_max":764,"o":"m 136 0 l 136 764 l 290 764 l 290 618 l 331 618 l 282 528 q 337 715 282 651 q 499 778 392 778 q 693 702 622 778 q 764 492 764 626 l 764 439 l 596 439 l 596 481 q 556 600 596 558 q 447 642 517 642 q 338 599 376 642 q 299 481 299 557 l 299 0 l 136 0 m 25 -333 l 157 -132 l 331 -132 l 179 -333 l 25 -333 z "},"s":{"ha":833,"x_min":100,"x_max":740,"o":"m 389 -12 q 241 15 304 -12 q 141 90 178 42 q 100 203 104 138 l 263 203 q 301 143 267 165 q 389 121 335 121 l 449 121 q 549 147 515 121 q 582 218 582 174 q 552 284 582 260 q 463 317 522 308 l 365 331 q 180 401 239 350 q 121 553 121 451 q 191 718 121 660 q 399 776 261 776 l 451 776 q 649 721 575 776 q 731 571 722 665 l 568 571 q 533 623 564 603 q 451 643 503 643 l 399 643 q 308 620 336 643 q 279 553 279 597 q 304 492 279 513 q 383 464 329 472 l 483 450 q 678 377 615 431 q 740 221 740 324 q 667 49 740 110 q 449 -12 594 -12 l 389 -12 z "},"ś":{"ha":833,"x_min":100,"x_max":740,"o":"m 389 -12 q 241 15 304 -12 q 141 90 178 42 q 100 203 104 138 l 263 203 q 301 143 267 165 q 389 121 335 121 l 449 121 q 549 147 515 121 q 582 218 582 174 q 552 284 582 260 q 463 317 522 308 l 365 331 q 180 401 239 350 q 121 553 121 451 q 191 718 121 660 q 399 776 261 776 l 451 776 q 649 721 575 776 q 731 571 722 665 l 568 571 q 533 623 564 603 q 451 643 503 643 l 399 643 q 308 620 336 643 q 279 553 279 597 q 304 492 279 513 q 383 464 329 472 l 483 450 q 678 377 615 431 q 740 221 740 324 q 667 49 740 110 q 449 -12 594 -12 l 389 -12 m 332 896 l 478 1090 l 653 1090 l 494 896 l 332 896 z "},"š":{"ha":833,"x_min":100,"x_max":740,"o":"m 389 -12 q 241 15 304 -12 q 141 90 178 42 q 100 203 104 138 l 263 203 q 301 143 267 165 q 389 121 335 121 l 449 121 q 549 147 515 121 q 582 218 582 174 q 552 284 582 260 q 463 317 522 308 l 365 331 q 180 401 239 350 q 121 553 121 451 q 191 718 121 660 q 399 776 261 776 l 451 776 q 649 721 575 776 q 731 571 722 665 l 568 571 q 533 623 564 603 q 451 643 503 643 l 399 643 q 308 620 336 643 q 279 553 279 597 q 304 492 279 513 q 383 464 329 472 l 483 450 q 678 377 615 431 q 740 221 740 324 q 667 49 740 110 q 449 -12 594 -12 l 389 -12 m 356 896 l 164 1090 l 324 1090 l 432 988 l 535 1090 l 697 1090 l 506 896 l 356 896 z "},"ş":{"ha":833,"x_min":100,"x_max":740,"o":"m 289 -296 l 289 -210 l 393 -210 q 444 -194 425 -210 q 464 -160 464 -178 q 424 -114 464 -132 q 313 -96 385 -96 l 361 31 l 450 31 l 422 -51 q 503 -69 461 -54 q 573 -110 544 -83 q 601 -175 601 -136 q 552 -260 601 -224 q 422 -296 503 -296 l 289 -296 m 389 -12 q 241 15 304 -12 q 141 90 178 42 q 100 203 104 138 l 263 203 q 301 143 267 165 q 389 121 335 121 l 449 121 q 549 147 515 121 q 582 218 582 174 q 552 284 582 260 q 463 317 522 308 l 365 331 q 180 401 239 350 q 121 553 121 451 q 191 718 121 660 q 399 776 261 776 l 451 776 q 649 721 575 776 q 731 571 722 665 l 568 571 q 533 623 564 603 q 451 643 503 643 l 399 643 q 308 620 336 643 q 279 553 279 597 q 304 492 279 513 q 383 464 329 472 l 483 450 q 678 377 615 431 q 740 221 740 324 q 667 49 740 110 q 449 -12 594 -12 l 389 -12 z "},"ŝ":{"ha":833,"x_min":100,"x_max":740,"o":"m 389 -12 q 241 15 304 -12 q 141 90 178 42 q 100 203 104 138 l 263 203 q 301 143 267 165 q 389 121 335 121 l 449 121 q 549 147 515 121 q 582 218 582 174 q 552 284 582 260 q 463 317 522 308 l 365 331 q 180 401 239 350 q 121 553 121 451 q 191 718 121 660 q 399 776 261 776 l 451 776 q 649 721 575 776 q 731 571 722 665 l 568 571 q 533 623 564 603 q 451 643 503 643 l 399 643 q 308 620 336 643 q 279 553 279 597 q 304 492 279 513 q 383 464 329 472 l 483 450 q 678 377 615 431 q 740 221 740 324 q 667 49 740 110 q 449 -12 594 -12 l 389 -12 m 164 896 l 356 1090 l 506 1090 l 697 896 l 538 896 l 429 999 l 326 896 l 164 896 z "},"ș":{"ha":833,"x_min":100,"x_max":740,"o":"m 389 -12 q 241 15 304 -12 q 141 90 178 42 q 100 203 104 138 l 263 203 q 301 143 267 165 q 389 121 335 121 l 449 121 q 549 147 515 121 q 582 218 582 174 q 552 284 582 260 q 463 317 522 308 l 365 331 q 180 401 239 350 q 121 553 121 451 q 191 718 121 660 q 399 776 261 776 l 451 776 q 649 721 575 776 q 731 571 722 665 l 568 571 q 533 623 564 603 q 451 643 503 643 l 399 643 q 308 620 336 643 q 279 553 279 597 q 304 492 279 513 q 383 464 329 472 l 483 450 q 678 377 615 431 q 740 221 740 324 q 667 49 740 110 q 449 -12 594 -12 l 389 -12 m 246 -333 l 378 -132 l 551 -132 l 400 -333 l 246 -333 z "},"ß":{"ha":833,"x_min":108,"x_max":754,"o":"m 108 0 l 108 731 q 147 887 108 819 q 254 991 185 954 q 417 1028 324 1028 q 584 996 513 1028 q 696 906 656 964 q 736 764 736 847 q 705 640 736 693 q 616 558 674 588 q 478 531 558 529 l 478 551 q 624 521 563 553 q 720 430 686 489 q 754 289 754 371 q 715 139 754 204 q 603 37 675 74 q 436 0 532 0 l 353 0 l 353 140 l 425 140 q 544 183 501 140 q 588 299 588 226 q 544 413 588 372 q 425 454 501 454 l 363 454 l 363 583 l 422 583 q 531 625 492 583 q 569 733 569 667 q 528 847 569 806 q 415 888 488 888 q 303 846 344 888 q 261 731 261 804 l 261 0 l 108 0 z "},"ſ":{"ha":833,"x_min":211,"x_max":724,"o":"m 211 0 l 211 765 q 283 946 211 878 q 474 1014 354 1014 l 724 1014 l 724 872 l 481 872 q 402 842 432 872 q 372 764 372 813 l 372 0 l 211 0 z "},"t":{"ha":833,"x_min":64,"x_max":732,"o":"m 500 0 q 333 59 393 0 q 274 222 274 118 l 274 618 l 64 618 l 64 764 l 274 764 l 274 979 l 435 979 l 435 764 l 732 764 l 732 618 l 435 618 l 435 222 q 510 146 435 146 l 718 146 l 718 0 l 500 0 z "},"ŧ":{"ha":833,"x_min":64,"x_max":732,"o":"m 108 321 l 108 449 l 669 449 l 669 321 l 108 321 m 500 0 q 333 59 393 0 q 274 222 274 118 l 274 618 l 64 618 l 64 764 l 274 764 l 274 979 l 435 979 l 435 764 l 732 764 l 732 618 l 435 618 l 435 222 q 510 146 435 146 l 718 146 l 718 0 l 500 0 z "},"ť":{"ha":833,"x_min":64,"x_max":783,"o":"m 522 861 l 640 1078 l 783 1078 l 651 861 l 522 861 m 500 0 q 333 59 393 0 q 274 222 274 118 l 274 618 l 64 618 l 64 764 l 274 764 l 274 979 l 435 979 l 435 764 l 732 764 l 732 618 l 435 618 l 435 222 q 510 146 435 146 l 718 146 l 718 0 l 500 0 z "},"ţ":{"ha":833,"x_min":64,"x_max":732,"o":"m 358 -296 l 358 -210 l 463 -210 q 514 -194 494 -210 q 533 -160 533 -178 q 494 -114 533 -132 q 382 -96 454 -96 l 431 31 l 519 31 l 492 -51 q 572 -69 531 -54 q 642 -110 614 -83 q 671 -175 671 -136 q 622 -260 671 -224 q 492 -296 572 -296 l 358 -296 m 500 0 q 333 59 393 0 q 274 222 274 118 l 274 618 l 64 618 l 64 764 l 274 764 l 274 979 l 435 979 l 435 764 l 732 764 l 732 618 l 435 618 l 435 222 q 510 146 435 146 l 718 146 l 718 0 l 500 0 z "},"ț":{"ha":833,"x_min":64,"x_max":732,"o":"m 500 0 q 333 59 393 0 q 274 222 274 118 l 274 618 l 64 618 l 64 764 l 274 764 l 274 979 l 435 979 l 435 764 l 732 764 l 732 618 l 435 618 l 435 222 q 510 146 435 146 l 718 146 l 718 0 l 500 0 m 254 -333 l 386 -132 l 560 -132 l 408 -333 l 254 -333 z "},"u":{"ha":833,"x_min":108,"x_max":725,"o":"m 415 -14 q 191 67 274 -14 q 108 286 108 147 l 108 764 l 271 764 l 271 288 q 309 169 271 211 q 415 128 347 128 q 524 169 485 128 q 563 288 563 211 l 563 764 l 725 764 l 725 286 q 641 67 725 147 q 415 -14 557 -14 z "},"ú":{"ha":833,"x_min":108,"x_max":725,"o":"m 415 -14 q 191 67 274 -14 q 108 286 108 147 l 108 764 l 271 764 l 271 288 q 309 169 271 211 q 415 128 347 128 q 524 169 485 128 q 563 288 563 211 l 563 764 l 725 764 l 725 286 q 641 67 725 147 q 415 -14 557 -14 m 318 896 l 464 1090 l 639 1090 l 481 896 l 318 896 z "},"ŭ":{"ha":833,"x_min":108,"x_max":725,"o":"m 415 -14 q 191 67 274 -14 q 108 286 108 147 l 108 764 l 271 764 l 271 288 q 309 169 271 211 q 415 128 347 128 q 524 169 485 128 q 563 288 563 211 l 563 764 l 725 764 l 725 286 q 641 67 725 147 q 415 -14 557 -14 m 417 886 q 245 942 311 886 q 179 1090 179 999 l 304 1090 q 335 1014 304 1043 q 415 985 365 985 q 498 1014 467 985 q 529 1090 529 1043 l 654 1090 q 589 942 654 999 q 417 886 524 886 z "},"û":{"ha":833,"x_min":108,"x_max":725,"o":"m 415 -14 q 191 67 274 -14 q 108 286 108 147 l 108 764 l 271 764 l 271 288 q 309 169 271 211 q 415 128 347 128 q 524 169 485 128 q 563 288 563 211 l 563 764 l 725 764 l 725 286 q 641 67 725 147 q 415 -14 557 -14 m 150 896 l 342 1090 l 492 1090 l 683 896 l 524 896 l 415 999 l 313 896 l 150 896 z "},"ü":{"ha":833,"x_min":108,"x_max":725,"o":"m 415 -14 q 191 67 274 -14 q 108 286 108 147 l 108 764 l 271 764 l 271 288 q 309 169 271 211 q 415 128 347 128 q 524 169 485 128 q 563 288 563 211 l 563 764 l 725 764 l 725 286 q 641 67 725 147 q 415 -14 557 -14 m 578 894 q 506 920 532 894 q 479 990 479 946 q 506 1063 479 1036 q 578 1089 532 1089 q 649 1063 622 1089 q 676 990 676 1036 q 649 920 676 946 q 578 894 622 894 m 256 894 q 184 920 211 894 q 157 990 157 946 q 184 1063 157 1036 q 256 1089 211 1089 q 328 1063 301 1089 q 354 990 354 1036 q 328 920 354 946 q 256 894 301 894 z "},"ụ":{"ha":833,"x_min":108,"x_max":725,"o":"m 415 -14 q 191 67 274 -14 q 108 286 108 147 l 108 764 l 271 764 l 271 288 q 309 169 271 211 q 415 128 347 128 q 524 169 485 128 q 563 288 563 211 l 563 764 l 725 764 l 725 286 q 641 67 725 147 q 415 -14 557 -14 m 417 -308 q 336 -282 365 -308 q 307 -211 307 -256 q 336 -140 307 -167 q 417 -112 365 -112 q 497 -140 468 -112 q 526 -211 526 -167 q 497 -282 526 -256 q 417 -308 468 -308 z "},"ù":{"ha":833,"x_min":108,"x_max":725,"o":"m 415 -14 q 191 67 274 -14 q 108 286 108 147 l 108 764 l 271 764 l 271 288 q 309 169 271 211 q 415 128 347 128 q 524 169 485 128 q 563 288 563 211 l 563 764 l 725 764 l 725 286 q 641 67 725 147 q 415 -14 557 -14 m 353 896 l 192 1090 l 371 1090 l 519 896 l 353 896 z "},"ủ":{"ha":833,"x_min":108,"x_max":725,"o":"m 415 -14 q 191 67 274 -14 q 108 286 108 147 l 108 764 l 271 764 l 271 288 q 309 169 271 211 q 415 128 347 128 q 524 169 485 128 q 563 288 563 211 l 563 764 l 725 764 l 725 286 q 641 67 725 147 q 415 -14 557 -14 m 349 896 l 418 981 q 438 1022 438 1006 q 397 1049 438 1049 l 286 1049 l 286 1151 l 432 1151 q 526 1122 490 1151 q 561 1042 561 1092 q 535 963 561 996 l 482 896 l 349 896 z "},"ư":{"ha":833,"x_min":108,"x_max":854,"o":"m 108 283 l 108 764 l 271 764 l 271 282 q 306 168 271 208 q 403 128 342 128 q 502 168 467 128 q 538 282 538 208 l 538 764 l 675 764 q 711 776 699 764 q 724 813 724 789 l 724 917 l 854 917 l 854 808 q 815 695 854 738 q 700 653 776 653 l 700 283 q 619 65 700 144 q 404 -14 539 -14 q 188 65 268 -14 q 108 283 108 144 z "},"ứ":{"ha":833,"x_min":108,"x_max":854,"o":"m 108 283 l 108 764 l 271 764 l 271 282 q 306 168 271 208 q 403 128 342 128 q 502 168 467 128 q 538 282 538 208 l 538 764 l 675 764 q 711 776 699 764 q 724 813 724 789 l 724 917 l 854 917 l 854 808 q 815 695 854 738 q 700 653 776 653 l 700 283 q 619 65 700 144 q 404 -14 539 -14 q 188 65 268 -14 q 108 283 108 144 m 306 896 l 451 1090 l 626 1090 l 468 896 l 306 896 z "},"ự":{"ha":833,"x_min":108,"x_max":854,"o":"m 108 283 l 108 764 l 271 764 l 271 282 q 306 168 271 208 q 403 128 342 128 q 502 168 467 128 q 538 282 538 208 l 538 764 l 675 764 q 711 776 699 764 q 724 813 724 789 l 724 917 l 854 917 l 854 808 q 815 695 854 738 q 700 653 776 653 l 700 283 q 619 65 700 144 q 404 -14 539 -14 q 188 65 268 -14 q 108 283 108 144 m 404 -308 q 324 -282 353 -308 q 294 -211 294 -256 q 324 -140 294 -167 q 404 -112 353 -112 q 485 -140 456 -112 q 514 -211 514 -167 q 485 -282 514 -256 q 404 -308 456 -308 z "},"ừ":{"ha":833,"x_min":108,"x_max":854,"o":"m 108 283 l 108 764 l 271 764 l 271 282 q 306 168 271 208 q 403 128 342 128 q 502 168 467 128 q 538 282 538 208 l 538 764 l 675 764 q 711 776 699 764 q 724 813 724 789 l 724 917 l 854 917 l 854 808 q 815 695 854 738 q 700 653 776 653 l 700 283 q 619 65 700 144 q 404 -14 539 -14 q 188 65 268 -14 q 108 283 108 144 m 340 896 l 179 1090 l 358 1090 l 507 896 l 340 896 z "},"ử":{"ha":833,"x_min":108,"x_max":854,"o":"m 108 283 l 108 764 l 271 764 l 271 282 q 306 168 271 208 q 403 128 342 128 q 502 168 467 128 q 538 282 538 208 l 538 764 l 675 764 q 711 776 699 764 q 724 813 724 789 l 724 917 l 854 917 l 854 808 q 815 695 854 738 q 700 653 776 653 l 700 283 q 619 65 700 144 q 404 -14 539 -14 q 188 65 268 -14 q 108 283 108 144 m 349 896 l 418 981 q 438 1022 438 1006 q 397 1049 438 1049 l 286 1049 l 286 1151 l 432 1151 q 526 1122 490 1151 q 561 1042 561 1092 q 535 963 561 996 l 482 896 l 349 896 z "},"ữ":{"ha":833,"x_min":108,"x_max":854,"o":"m 108 283 l 108 764 l 271 764 l 271 282 q 306 168 271 208 q 403 128 342 128 q 502 168 467 128 q 538 282 538 208 l 538 764 l 675 764 q 711 776 699 764 q 724 813 724 789 l 724 917 l 854 917 l 854 808 q 815 695 854 738 q 700 653 776 653 l 700 283 q 619 65 700 144 q 404 -14 539 -14 q 188 65 268 -14 q 108 283 108 144 m 501 893 q 432 907 458 893 q 388 939 406 921 q 353 971 369 957 q 314 985 336 985 q 284 972 296 985 q 272 938 272 960 l 272 900 l 169 900 l 169 946 q 208 1053 169 1013 q 307 1093 246 1093 q 376 1079 350 1093 q 421 1047 403 1065 q 456 1015 439 1029 q 494 1001 472 1001 q 525 1013 514 1001 q 536 1046 536 1024 l 536 1086 l 639 1086 l 639 1040 q 601 933 639 974 q 501 893 564 893 z "},"ű":{"ha":833,"x_min":108,"x_max":760,"o":"m 415 -14 q 191 67 274 -14 q 108 286 108 147 l 108 764 l 271 764 l 271 288 q 309 169 271 211 q 415 128 347 128 q 524 169 485 128 q 563 288 563 211 l 563 764 l 725 764 l 725 286 q 641 67 725 147 q 415 -14 557 -14 m 450 896 l 600 1090 l 760 1090 l 600 896 l 450 896 m 178 896 l 328 1090 l 488 1090 l 328 896 l 178 896 z "},"ū":{"ha":833,"x_min":108,"x_max":725,"o":"m 415 -14 q 191 67 274 -14 q 108 286 108 147 l 108 764 l 271 764 l 271 288 q 309 169 271 211 q 415 128 347 128 q 524 169 485 128 q 563 288 563 211 l 563 764 l 725 764 l 725 286 q 641 67 725 147 q 415 -14 557 -14 m 182 921 l 182 1047 l 651 1047 l 651 921 l 182 921 z "},"ų":{"ha":833,"x_min":108,"x_max":725,"o":"m 508 -296 q 381 -256 429 -296 q 333 -156 333 -217 q 363 -76 333 -117 q 463 11 393 -36 q 453 0 461 6 q 435 -10 444 -6 q 417 -14 425 -14 q 191 67 274 -14 q 108 283 108 147 l 108 764 l 271 764 l 271 283 q 308 168 271 208 q 417 128 346 128 q 526 168 489 128 q 563 283 563 208 l 563 764 l 725 764 l 725 283 q 694 138 725 201 q 604 35 663 74 l 550 -10 q 494 -71 513 -43 q 476 -124 476 -99 q 495 -167 476 -149 q 547 -185 514 -185 l 636 -185 l 636 -296 l 508 -296 z "},"ů":{"ha":833,"x_min":108,"x_max":725,"o":"m 415 -14 q 191 67 274 -14 q 108 286 108 147 l 108 764 l 271 764 l 271 288 q 309 169 271 211 q 415 128 347 128 q 524 169 485 128 q 563 288 563 211 l 563 764 l 725 764 l 725 286 q 641 67 725 147 q 415 -14 557 -14 m 417 839 q 287 885 336 839 q 238 1006 238 931 q 287 1126 238 1079 q 417 1172 336 1172 q 547 1126 497 1172 q 596 1006 596 1079 q 547 885 596 931 q 417 839 497 839 m 417 924 q 477 946 454 924 q 500 1006 500 968 q 477 1066 500 1043 q 417 1089 454 1089 q 356 1066 379 1089 q 333 1006 333 1043 q 356 946 333 968 q 417 924 379 924 z "},"ũ":{"ha":833,"x_min":108,"x_max":725,"o":"m 415 -14 q 191 67 274 -14 q 108 286 108 147 l 108 764 l 271 764 l 271 288 q 309 169 271 211 q 415 128 347 128 q 524 169 485 128 q 563 288 563 211 l 563 764 l 725 764 l 725 286 q 641 67 725 147 q 415 -14 557 -14 m 514 893 q 444 907 471 893 q 400 939 418 921 q 365 971 382 957 q 326 985 349 985 q 297 972 308 985 q 285 938 285 960 l 285 900 l 182 900 l 182 946 q 220 1053 182 1013 q 319 1093 258 1093 q 389 1079 363 1093 q 433 1047 415 1065 q 468 1015 451 1029 q 507 1001 485 1001 q 538 1013 526 1001 q 549 1046 549 1024 l 549 1086 l 651 1086 l 651 1040 q 614 933 651 974 q 514 893 576 893 z "},"v":{"ha":833,"x_min":60,"x_max":774,"o":"m 313 0 l 60 764 l 225 764 l 376 288 q 402 201 390 244 q 419 132 414 157 q 438 201 426 157 q 461 288 450 244 l 610 764 l 774 764 l 522 0 l 313 0 z "},"w":{"ha":833,"x_min":33,"x_max":800,"o":"m 150 0 l 33 764 l 169 764 l 236 278 q 247 194 242 240 q 254 119 251 149 q 264 194 257 149 q 276 278 271 240 l 351 764 l 482 764 l 557 278 q 569 194 563 240 q 579 118 576 149 q 588 194 582 149 q 600 278 594 240 l 669 764 l 800 764 l 679 0 l 510 0 l 439 485 q 426 569 433 524 q 417 643 419 615 q 406 569 413 615 q 394 485 400 524 l 319 0 l 150 0 z "},"ẃ":{"ha":833,"x_min":33,"x_max":800,"o":"m 150 0 l 33 764 l 169 764 l 236 278 q 247 194 242 240 q 254 119 251 149 q 264 194 257 149 q 276 278 271 240 l 351 764 l 482 764 l 557 278 q 569 194 563 240 q 579 118 576 149 q 588 194 582 149 q 600 278 594 240 l 669 764 l 800 764 l 679 0 l 510 0 l 439 485 q 426 569 433 524 q 417 643 419 615 q 406 569 413 615 q 394 485 400 524 l 319 0 l 150 0 m 318 896 l 464 1090 l 639 1090 l 481 896 l 318 896 z "},"ŵ":{"ha":833,"x_min":33,"x_max":800,"o":"m 150 0 l 33 764 l 169 764 l 236 278 q 247 194 242 240 q 254 119 251 149 q 264 194 257 149 q 276 278 271 240 l 351 764 l 482 764 l 557 278 q 569 194 563 240 q 579 118 576 149 q 588 194 582 149 q 600 278 594 240 l 669 764 l 800 764 l 679 0 l 510 0 l 439 485 q 426 569 433 524 q 417 643 419 615 q 406 569 413 615 q 394 485 400 524 l 319 0 l 150 0 m 150 896 l 342 1090 l 492 1090 l 683 896 l 524 896 l 415 999 l 313 896 l 150 896 z "},"ẅ":{"ha":833,"x_min":33,"x_max":800,"o":"m 150 0 l 33 764 l 169 764 l 236 278 q 247 194 242 240 q 254 119 251 149 q 264 194 257 149 q 276 278 271 240 l 351 764 l 482 764 l 557 278 q 569 194 563 240 q 579 118 576 149 q 588 194 582 149 q 600 278 594 240 l 669 764 l 800 764 l 679 0 l 510 0 l 439 485 q 426 569 433 524 q 417 643 419 615 q 406 569 413 615 q 394 485 400 524 l 319 0 l 150 0 m 578 894 q 506 920 532 894 q 479 990 479 946 q 506 1063 479 1036 q 578 1089 532 1089 q 649 1063 622 1089 q 676 990 676 1036 q 649 920 676 946 q 578 894 622 894 m 256 894 q 184 920 211 894 q 157 990 157 946 q 184 1063 157 1036 q 256 1089 211 1089 q 328 1063 301 1089 q 354 990 354 1036 q 328 920 354 946 q 256 894 301 894 z "},"ẁ":{"ha":833,"x_min":33,"x_max":800,"o":"m 150 0 l 33 764 l 169 764 l 236 278 q 247 194 242 240 q 254 119 251 149 q 264 194 257 149 q 276 278 271 240 l 351 764 l 482 764 l 557 278 q 569 194 563 240 q 579 118 576 149 q 588 194 582 149 q 600 278 594 240 l 669 764 l 800 764 l 679 0 l 510 0 l 439 485 q 426 569 433 524 q 417 643 419 615 q 406 569 413 615 q 394 485 400 524 l 319 0 l 150 0 m 353 896 l 192 1090 l 371 1090 l 519 896 l 353 896 z "},"x":{"ha":833,"x_min":54,"x_max":779,"o":"m 54 0 l 322 394 l 72 764 l 257 764 l 383 565 q 403 528 393 549 q 418 496 413 508 q 432 528 422 508 q 451 565 442 549 l 578 764 l 763 764 l 513 393 l 779 0 l 594 0 l 453 219 q 433 257 443 236 q 418 292 424 278 q 402 257 413 278 q 381 219 392 236 l 239 0 l 54 0 z "},"y":{"ha":833,"x_min":58,"x_max":775,"o":"m 235 -250 l 343 43 l 58 764 l 236 764 l 386 353 q 408 282 397 324 q 425 213 418 240 q 441 282 431 240 q 461 353 451 324 l 604 764 l 775 764 l 406 -250 l 235 -250 z "},"ý":{"ha":833,"x_min":58,"x_max":775,"o":"m 235 -250 l 343 43 l 58 764 l 236 764 l 386 353 q 408 282 397 324 q 425 213 418 240 q 441 282 431 240 q 461 353 451 324 l 604 764 l 775 764 l 406 -250 l 235 -250 m 318 896 l 464 1090 l 639 1090 l 481 896 l 318 896 z "},"ŷ":{"ha":833,"x_min":58,"x_max":775,"o":"m 235 -250 l 343 43 l 58 764 l 236 764 l 386 353 q 408 282 397 324 q 425 213 418 240 q 441 282 431 240 q 461 353 451 324 l 604 764 l 775 764 l 406 -250 l 235 -250 m 150 896 l 342 1090 l 492 1090 l 683 896 l 524 896 l 415 999 l 313 896 l 150 896 z "},"ÿ":{"ha":833,"x_min":58,"x_max":775,"o":"m 235 -250 l 343 43 l 58 764 l 236 764 l 386 353 q 408 282 397 324 q 425 213 418 240 q 441 282 431 240 q 461 353 451 324 l 604 764 l 775 764 l 406 -250 l 235 -250 m 578 894 q 506 920 532 894 q 479 990 479 946 q 506 1063 479 1036 q 578 1089 532 1089 q 649 1063 622 1089 q 676 990 676 1036 q 649 920 676 946 q 578 894 622 894 m 256 894 q 184 920 211 894 q 157 990 157 946 q 184 1063 157 1036 q 256 1089 211 1089 q 328 1063 301 1089 q 354 990 354 1036 q 328 920 354 946 q 256 894 301 894 z "},"ỵ":{"ha":833,"x_min":58,"x_max":775,"o":"m 235 -250 l 343 43 l 58 764 l 236 764 l 386 353 q 408 282 397 324 q 425 213 418 240 q 441 282 431 240 q 461 353 451 324 l 604 764 l 775 764 l 406 -250 l 235 -250 m 649 -308 q 568 -282 597 -308 q 539 -211 539 -256 q 568 -140 539 -167 q 649 -112 597 -112 q 729 -140 700 -112 q 758 -211 758 -167 q 729 -282 758 -256 q 649 -308 700 -308 z "},"ỳ":{"ha":833,"x_min":58,"x_max":775,"o":"m 235 -250 l 343 43 l 58 764 l 236 764 l 386 353 q 408 282 397 324 q 425 213 418 240 q 441 282 431 240 q 461 353 451 324 l 604 764 l 775 764 l 406 -250 l 235 -250 m 353 896 l 192 1090 l 371 1090 l 519 896 l 353 896 z "},"ỷ":{"ha":833,"x_min":58,"x_max":775,"o":"m 235 -250 l 343 43 l 58 764 l 236 764 l 386 353 q 408 282 397 324 q 425 213 418 240 q 441 282 431 240 q 461 353 451 324 l 604 764 l 775 764 l 406 -250 l 235 -250 m 358 896 l 428 981 q 447 1022 447 1006 q 407 1049 447 1049 l 296 1049 l 296 1151 l 442 1151 q 535 1122 500 1151 q 571 1042 571 1092 q 544 963 571 996 l 492 896 l 358 896 z "},"ȳ":{"ha":833,"x_min":58,"x_max":775,"o":"m 235 -250 l 343 43 l 58 764 l 236 764 l 386 353 q 408 282 397 324 q 425 213 418 240 q 441 282 431 240 q 461 353 451 324 l 604 764 l 775 764 l 406 -250 l 235 -250 m 182 921 l 182 1047 l 651 1047 l 651 921 l 182 921 z "},"ỹ":{"ha":833,"x_min":58,"x_max":775,"o":"m 235 -250 l 343 43 l 58 764 l 236 764 l 386 353 q 408 282 397 324 q 425 213 418 240 q 441 282 431 240 q 461 353 451 324 l 604 764 l 775 764 l 406 -250 l 235 -250 m 514 893 q 444 907 471 893 q 400 939 418 921 q 365 971 382 957 q 326 985 349 985 q 297 972 308 985 q 285 938 285 960 l 285 900 l 182 900 l 182 946 q 220 1053 182 1013 q 319 1093 258 1093 q 389 1079 363 1093 q 433 1047 415 1065 q 468 1015 451 1029 q 507 1001 485 1001 q 538 1013 526 1001 q 549 1046 549 1024 l 549 1086 l 651 1086 l 651 1040 q 614 933 651 974 q 514 893 576 893 z "},"z":{"ha":833,"x_min":113,"x_max":721,"o":"m 113 0 l 113 150 l 518 621 l 125 621 l 125 764 l 706 764 l 706 614 l 294 143 l 721 143 l 721 0 l 113 0 z "},"ź":{"ha":833,"x_min":113,"x_max":721,"o":"m 113 0 l 113 150 l 518 621 l 125 621 l 125 764 l 706 764 l 706 614 l 294 143 l 721 143 l 721 0 l 113 0 m 318 896 l 464 1090 l 639 1090 l 481 896 l 318 896 z "},"ž":{"ha":833,"x_min":113,"x_max":721,"o":"m 113 0 l 113 150 l 518 621 l 125 621 l 125 764 l 706 764 l 706 614 l 294 143 l 721 143 l 721 0 l 113 0 m 342 896 l 150 1090 l 310 1090 l 418 988 l 521 1090 l 683 1090 l 492 896 l 342 896 z "},"ż":{"ha":833,"x_min":113,"x_max":721,"o":"m 113 0 l 113 150 l 518 621 l 125 621 l 125 764 l 706 764 l 706 614 l 294 143 l 721 143 l 721 0 l 113 0 m 417 894 q 336 920 365 894 q 307 990 307 946 q 336 1063 307 1036 q 417 1089 365 1089 q 497 1063 468 1089 q 526 990 526 1036 q 497 920 526 946 q 417 894 468 894 z "},"ª":{"ha":833,"x_min":238,"x_max":589,"o":"m 506 632 l 506 708 l 501 708 l 501 903 q 481 944 501 929 q 424 960 460 960 q 370 947 392 960 q 346 914 349 935 l 258 914 q 311 997 267 967 q 424 1028 356 1028 q 544 994 499 1028 q 589 903 589 961 l 589 632 l 506 632 m 375 625 q 275 658 313 625 q 238 746 238 690 q 278 833 238 800 q 389 865 319 865 l 517 865 l 517 803 l 389 803 q 342 788 358 803 q 325 747 325 774 q 345 705 325 721 q 399 689 365 689 q 474 711 446 689 q 501 771 501 733 l 517 771 l 517 708 l 501 708 q 453 647 488 669 q 375 625 419 625 z "},"º":{"ha":833,"x_min":244,"x_max":589,"o":"m 417 621 q 292 665 339 621 q 244 776 244 708 l 244 869 q 292 981 244 939 q 417 1024 339 1024 q 542 981 494 1024 q 589 869 589 939 l 589 776 q 542 665 589 708 q 417 621 494 621 m 417 694 q 478 717 454 694 q 501 776 501 740 l 501 869 q 478 928 501 906 q 417 950 454 950 q 356 928 379 950 q 332 869 332 906 l 332 776 q 356 717 332 740 q 417 694 379 694 z "},"А":{"ha":833,"x_min":54,"x_max":779,"o":"m 54 0 l 311 1014 l 522 1014 l 779 0 l 615 0 l 556 251 l 278 251 l 219 0 l 54 0 m 307 385 l 525 385 l 461 667 q 433 796 444 739 q 417 875 421 853 q 401 797 413 853 q 374 668 390 740 l 307 385 z "},"Б":{"ha":833,"x_min":114,"x_max":754,"o":"m 114 0 l 114 1014 l 711 1014 l 711 864 l 272 864 l 272 604 l 426 604 q 600 567 526 604 q 714 462 674 529 q 754 303 754 394 q 714 143 754 211 q 600 38 674 75 q 426 0 526 0 l 114 0 m 272 140 l 426 140 q 547 184 503 140 q 590 301 590 228 q 547 421 590 378 q 426 464 503 464 l 272 464 l 272 140 z "},"В":{"ha":833,"x_min":113,"x_max":754,"o":"m 113 0 l 113 1014 l 417 1014 q 647 944 563 1014 q 732 753 732 875 q 701 634 732 685 q 618 556 671 583 q 497 528 565 528 l 497 538 q 630 510 572 539 q 721 424 688 481 q 754 288 754 367 q 715 135 754 200 q 605 35 676 69 q 435 0 533 0 l 113 0 m 269 138 l 424 138 q 547 179 501 138 q 593 294 593 221 q 547 415 593 369 q 424 460 501 460 l 269 460 l 269 138 m 269 593 l 415 593 q 528 631 488 593 q 569 735 569 669 q 528 839 569 801 q 417 876 488 876 l 269 876 l 269 593 z "},"Г":{"ha":833,"x_min":143,"x_max":746,"o":"m 143 0 l 143 1014 l 746 1014 l 746 864 l 306 864 l 306 0 l 143 0 z "},"Ѓ":{"ha":833,"x_min":143,"x_max":746,"o":"m 143 0 l 143 1014 l 746 1014 l 746 864 l 306 864 l 306 0 l 143 0 m 325 1125 l 471 1319 l 646 1319 l 488 1125 l 325 1125 z "},"Ґ":{"ha":833,"x_min":143,"x_max":746,"o":"m 143 0 l 143 1014 l 592 1014 l 592 1146 l 746 1146 l 746 864 l 306 864 l 306 0 l 143 0 z "},"Д":{"ha":833,"x_min":33,"x_max":800,"o":"m 33 -194 l 33 139 l 86 139 q 119 210 101 165 q 149 315 136 256 q 161 440 161 374 l 171 1014 l 710 1014 l 710 139 l 800 139 l 800 -194 l 653 -194 l 653 0 l 181 0 l 181 -194 l 33 -194 m 250 139 l 554 139 l 554 874 l 322 874 l 315 440 q 292 256 314 338 q 250 139 269 175 z "},"Е":{"ha":833,"x_min":126,"x_max":728,"o":"m 126 0 l 126 1014 l 728 1014 l 728 872 l 286 872 l 286 596 l 679 596 l 679 454 l 286 454 l 286 142 l 728 142 l 728 0 l 126 0 z "},"Ё":{"ha":833,"x_min":126,"x_max":728,"o":"m 126 0 l 126 1014 l 728 1014 l 728 872 l 286 872 l 286 596 l 679 596 l 679 454 l 286 454 l 286 142 l 728 142 l 728 0 l 126 0 m 606 1125 q 533 1151 560 1125 q 507 1222 507 1178 q 533 1294 507 1268 q 606 1321 560 1321 q 677 1294 650 1321 q 704 1222 704 1268 q 677 1151 704 1178 q 606 1125 650 1125 m 283 1125 q 212 1151 239 1125 q 185 1222 185 1178 q 212 1294 185 1268 q 283 1321 239 1321 q 356 1294 329 1321 q 382 1222 382 1268 q 356 1151 382 1178 q 283 1125 329 1125 z "},"Ж":{"ha":833,"x_min":15,"x_max":818,"o":"m 15 0 l 175 518 l 26 1014 l 174 1014 l 303 558 l 354 558 l 354 1014 l 476 1014 l 476 558 l 529 558 l 658 1014 l 804 1014 l 657 519 l 818 0 l 672 0 l 532 475 l 476 475 l 479 0 l 358 0 l 354 475 l 299 475 l 161 0 l 15 0 z "},"З":{"ha":833,"x_min":65,"x_max":756,"o":"m 408 -14 q 234 20 310 -14 q 115 117 158 54 q 65 263 71 179 l 228 263 q 284 164 235 200 q 408 128 333 128 q 541 172 492 128 q 590 286 590 217 q 542 400 590 357 q 408 443 493 443 l 275 443 l 275 589 l 408 589 q 532 635 486 589 q 578 746 578 681 q 532 849 578 813 q 408 886 486 886 q 290 847 336 886 q 240 743 244 808 l 78 743 q 124 893 82 829 q 240 992 167 957 q 413 1028 314 1028 q 649 962 561 1028 q 738 776 738 896 q 706 650 738 706 q 617 563 675 594 q 481 533 560 532 l 481 554 q 626 523 564 556 q 722 431 688 490 q 756 292 756 371 q 713 133 756 201 q 593 25 671 64 q 408 -14 515 -14 z "},"И":{"ha":833,"x_min":107,"x_max":726,"o":"m 107 0 l 107 1014 l 256 1014 l 256 500 q 253 392 256 451 q 247 278 250 333 q 239 183 243 222 l 526 1014 l 726 1014 l 726 0 l 578 0 l 578 501 q 581 613 578 551 q 588 732 583 674 q 596 831 593 790 l 307 0 l 107 0 z "},"Й":{"ha":833,"x_min":107,"x_max":726,"o":"m 107 0 l 107 1014 l 256 1014 l 256 500 q 253 392 256 451 q 247 278 250 333 q 239 183 243 222 l 526 1014 l 726 1014 l 726 0 l 578 0 l 578 501 q 581 613 578 551 q 588 732 583 674 q 596 831 593 790 l 307 0 l 107 0 m 417 1115 q 245 1172 311 1115 q 179 1319 179 1228 l 306 1319 q 335 1243 306 1272 q 415 1214 365 1214 q 498 1243 467 1214 q 529 1319 529 1272 l 654 1319 q 589 1172 654 1228 q 417 1115 524 1115 z "},"К":{"ha":833,"x_min":111,"x_max":788,"o":"m 111 0 l 111 1014 l 274 1014 l 274 597 l 400 597 l 600 1014 l 775 1014 l 543 528 l 788 0 l 606 0 l 399 451 l 274 451 l 274 0 l 111 0 z "},"Ќ":{"ha":833,"x_min":111,"x_max":788,"o":"m 318 1125 l 464 1319 l 639 1319 l 481 1125 l 318 1125 m 111 0 l 111 1014 l 274 1014 l 274 597 l 400 597 l 600 1014 l 775 1014 l 543 528 l 788 0 l 606 0 l 399 451 l 274 451 l 274 0 l 111 0 z "},"Л":{"ha":833,"x_min":25,"x_max":719,"o":"m 25 -7 l 25 142 l 57 142 q 133 189 107 142 q 160 338 158 236 l 171 1014 l 719 1014 l 719 0 l 558 0 l 558 864 l 331 864 l 321 338 q 253 81 318 168 q 67 -7 189 -7 l 25 -7 z "},"М":{"ha":833,"x_min":85,"x_max":749,"o":"m 85 0 l 85 1014 l 281 1014 l 381 690 q 406 602 396 643 q 419 542 415 561 q 433 602 424 561 q 457 690 443 643 l 553 1014 l 749 1014 l 749 0 l 596 0 l 596 328 q 600 476 596 396 q 610 639 604 557 q 624 795 617 721 q 638 924 632 869 l 494 439 l 342 439 l 196 924 q 210 799 203 871 q 223 647 217 728 q 233 483 229 565 q 238 328 238 401 l 238 0 l 85 0 z "},"Н":{"ha":833,"x_min":113,"x_max":721,"o":"m 113 0 l 113 1014 l 275 1014 l 275 600 l 558 600 l 558 1014 l 721 1014 l 721 0 l 558 0 l 558 450 l 275 450 l 275 0 l 113 0 z "},"О":{"ha":833,"x_min":106,"x_max":728,"o":"m 417 -14 q 251 22 321 -14 q 143 126 181 58 q 106 283 106 193 l 106 731 q 143 889 106 822 q 251 992 181 956 q 417 1028 321 1028 q 583 992 514 1028 q 690 889 653 956 q 728 731 728 822 l 728 283 q 690 126 728 193 q 583 22 653 58 q 417 -14 514 -14 m 417 129 q 528 169 490 129 q 567 283 567 210 l 567 731 q 528 845 567 806 q 417 885 490 885 q 305 845 343 885 q 267 731 267 806 l 267 283 q 306 169 267 210 q 417 129 344 129 z "},"П":{"ha":833,"x_min":114,"x_max":719,"o":"m 114 0 l 114 1014 l 719 1014 l 719 0 l 558 0 l 558 864 l 275 864 l 275 0 l 114 0 z "},"Р":{"ha":833,"x_min":111,"x_max":776,"o":"m 111 0 l 111 1014 l 447 1014 q 621 976 547 1014 q 735 868 694 938 q 776 704 776 799 q 735 542 776 613 q 621 434 694 472 q 447 396 547 396 l 274 396 l 274 0 l 111 0 m 274 542 l 447 542 q 567 586 522 542 q 613 704 613 631 q 567 824 613 781 q 447 868 522 868 l 274 868 l 274 542 z "},"С":{"ha":833,"x_min":106,"x_max":738,"o":"m 422 -14 q 255 22 326 -14 q 144 126 183 58 q 106 283 106 193 l 106 731 q 144 889 106 822 q 255 992 183 956 q 422 1028 326 1028 q 590 991 519 1028 q 699 888 660 954 q 738 731 738 822 l 576 731 q 536 845 576 806 q 422 885 496 885 q 308 845 349 885 q 267 731 267 806 l 267 283 q 308 169 267 210 q 422 129 349 129 q 536 169 496 129 q 576 283 576 210 l 738 283 q 699 127 738 194 q 590 23 660 60 q 422 -14 519 -14 z "},"Т":{"ha":833,"x_min":67,"x_max":767,"o":"m 336 0 l 336 865 l 67 865 l 67 1015 l 767 1015 l 767 865 l 497 865 l 497 0 l 336 0 z "},"У":{"ha":833,"x_min":54,"x_max":779,"o":"m 247 0 l 350 260 l 54 1014 l 229 1014 l 390 556 q 415 472 406 514 q 429 404 425 429 q 440 472 432 429 q 463 556 449 514 l 607 1014 l 779 1014 l 418 0 l 247 0 z "},"Ў":{"ha":833,"x_min":54,"x_max":779,"o":"m 247 0 l 350 260 l 54 1014 l 229 1014 l 390 556 q 415 472 406 514 q 429 404 425 429 q 440 472 432 429 q 463 556 449 514 l 607 1014 l 779 1014 l 418 0 l 247 0 m 417 1115 q 245 1172 311 1115 q 179 1319 179 1228 l 306 1319 q 335 1243 306 1272 q 415 1214 365 1214 q 498 1243 467 1214 q 529 1319 529 1272 l 654 1319 q 589 1172 654 1228 q 417 1115 524 1115 z "},"Ф":{"ha":833,"x_min":60,"x_max":774,"o":"m 347 -35 l 347 63 q 197 99 263 63 q 96 203 132 136 q 60 358 60 269 l 60 672 q 96 831 60 764 q 197 935 132 897 q 347 972 261 972 l 347 1069 l 486 1069 l 486 972 q 637 935 572 972 q 738 831 701 897 q 774 672 774 764 l 774 358 q 738 203 774 269 q 637 99 701 136 q 486 63 572 63 l 486 -35 l 347 -35 m 351 193 l 351 843 q 273 822 307 843 q 221 763 239 801 q 203 672 203 725 l 203 358 q 221 270 203 307 q 273 213 239 233 q 351 193 307 193 m 482 193 q 561 213 528 193 q 613 270 594 233 q 631 358 631 307 l 631 672 q 613 763 631 725 q 561 822 594 801 q 482 843 528 843 l 482 193 z "},"Х":{"ha":833,"x_min":43,"x_max":790,"o":"m 43 0 l 326 518 l 60 1014 l 242 1014 l 376 749 q 402 696 390 722 q 419 656 414 669 q 436 696 425 669 q 461 749 447 722 l 599 1014 l 774 1014 l 507 522 l 790 0 l 608 0 l 458 290 q 433 344 444 317 q 414 386 421 371 q 397 344 408 371 q 371 292 385 318 l 219 0 l 43 0 z "},"Ч":{"ha":833,"x_min":89,"x_max":717,"o":"m 556 0 l 556 386 q 492 377 538 382 q 383 372 447 372 q 169 453 249 372 q 89 668 89 533 l 89 1014 l 250 1014 l 250 674 q 295 560 250 603 q 415 518 340 518 q 506 523 469 518 q 556 532 542 528 l 556 1014 l 717 1014 l 717 0 l 556 0 z "},"Ц":{"ha":833,"x_min":114,"x_max":793,"o":"m 644 -194 l 644 0 l 114 0 l 114 1014 l 275 1014 l 275 149 l 526 149 l 526 1014 l 689 1014 l 689 149 l 793 149 l 793 -194 l 644 -194 z "},"Ш":{"ha":833,"x_min":74,"x_max":760,"o":"m 75 0 l 74 1014 l 215 1014 l 215 114 l 357 114 l 357 1014 l 478 1014 l 478 114 l 619 114 l 619 1014 l 760 1014 l 760 0 l 75 0 z "},"Щ":{"ha":833,"x_min":74,"x_max":806,"o":"m 664 -194 l 664 0 l 74 0 l 74 1014 l 206 1014 l 206 121 l 344 121 l 344 1014 l 460 1014 l 460 121 l 597 121 l 597 1014 l 729 1014 l 729 121 l 806 121 l 806 -194 l 664 -194 z "},"Џ":{"ha":833,"x_min":114,"x_max":719,"o":"m 336 -174 l 336 0 l 114 0 l 114 1014 l 275 1014 l 275 150 l 558 150 l 558 1014 l 719 1014 l 719 0 l 497 0 l 497 -174 l 336 -174 z "},"Ь":{"ha":833,"x_min":114,"x_max":776,"o":"m 114 0 l 114 1014 l 275 1014 l 275 607 l 446 607 q 620 569 546 607 q 735 463 694 531 q 776 304 776 396 q 735 144 776 213 q 620 38 694 75 q 446 0 546 0 l 114 0 m 275 143 l 442 143 q 565 187 518 143 q 613 303 613 231 q 565 419 613 376 q 442 463 518 463 l 275 463 l 275 143 z "},"Ъ":{"ha":833,"x_min":-7,"x_max":776,"o":"m 172 0 l 172 876 l -7 876 l -7 1014 l 333 1014 l 333 607 l 446 607 q 620 569 546 607 q 735 463 694 531 q 776 304 776 396 q 735 144 776 213 q 620 38 694 75 q 446 0 546 0 l 172 0 m 333 143 l 442 143 q 565 187 518 143 q 613 303 613 231 q 565 419 613 376 q 442 463 518 463 l 333 463 l 333 143 z "},"Ы":{"ha":833,"x_min":75,"x_max":758,"o":"m 75 0 l 75 1014 l 217 1014 l 217 607 l 264 607 q 460 536 389 607 q 532 342 532 465 l 532 263 q 461 70 532 140 q 264 0 390 0 l 75 0 m 217 132 l 264 132 q 358 167 325 132 q 392 264 392 201 l 392 340 q 358 440 392 406 q 264 475 325 475 l 217 475 l 217 132 m 617 0 l 617 1014 l 758 1014 l 758 0 l 617 0 z "},"Љ":{"ha":833,"x_min":-10,"x_max":811,"o":"m -10 -7 l -10 125 l 17 125 q 74 166 53 125 q 96 276 94 207 l 104 1014 l 521 1014 l 521 607 l 571 607 q 746 544 681 607 q 811 372 811 481 l 811 233 q 746 63 811 126 q 571 0 681 0 l 386 0 l 386 889 l 239 889 l 232 276 q 173 70 231 147 q 19 -7 115 -7 l -10 -7 m 521 125 l 571 125 q 648 154 619 125 q 676 235 676 183 l 676 371 q 648 451 676 422 q 571 481 619 481 l 521 481 l 521 125 z "},"Њ":{"ha":833,"x_min":65,"x_max":811,"o":"m 65 0 l 65 1014 l 201 1014 l 201 613 l 386 613 l 386 1014 l 521 1014 l 521 613 l 571 613 q 747 549 683 613 q 811 378 811 486 l 811 233 q 747 63 811 126 q 571 0 683 0 l 386 0 l 386 488 l 201 488 l 201 0 l 65 0 m 521 125 l 571 125 q 649 154 621 125 q 676 235 676 183 l 676 376 q 649 458 676 429 q 571 488 621 488 l 521 488 l 521 125 z "},"Ѕ":{"ha":833,"x_min":85,"x_max":749,"o":"m 419 -14 q 242 21 317 -14 q 126 119 167 56 q 85 269 85 183 l 246 269 q 293 167 246 204 q 422 129 340 129 q 543 166 499 129 q 588 268 588 203 q 557 362 588 322 q 469 415 526 401 l 347 450 q 169 560 232 482 q 107 747 107 639 q 145 896 107 833 q 253 994 183 958 q 419 1029 324 1029 q 649 953 564 1029 q 735 751 733 878 l 572 751 q 532 850 572 814 q 418 886 492 886 q 308 852 347 886 q 268 758 268 818 q 298 664 268 703 q 383 608 328 625 l 510 572 q 687 464 625 542 q 749 274 749 386 q 708 123 749 188 q 593 22 667 58 q 419 -14 519 -14 z "},"Є":{"ha":833,"x_min":107,"x_max":736,"o":"m 422 -14 q 256 22 326 -14 q 146 126 185 58 q 107 283 107 193 l 107 731 q 146 889 107 822 q 256 992 185 956 q 422 1028 326 1028 q 590 991 519 1028 q 698 888 660 954 q 736 731 736 822 l 575 731 q 535 846 575 806 q 422 886 496 886 q 308 846 349 886 q 268 731 268 806 l 268 585 l 568 585 l 568 438 l 268 438 l 268 283 q 308 169 268 210 q 422 128 349 128 q 535 169 496 128 q 575 283 575 210 l 736 283 q 698 127 736 194 q 590 23 660 60 q 422 -14 519 -14 z "},"Э":{"ha":833,"x_min":97,"x_max":726,"o":"m 411 -14 q 244 23 315 -14 q 135 127 174 60 q 97 283 97 194 l 258 283 q 299 169 258 210 q 411 128 339 128 q 525 169 485 128 q 565 283 565 210 l 565 438 l 265 438 l 265 585 l 565 585 l 565 731 q 525 846 565 806 q 411 886 485 886 q 299 846 339 886 q 258 731 258 806 l 97 731 q 135 888 97 821 q 244 991 174 954 q 411 1028 315 1028 q 578 992 508 1028 q 688 889 649 956 q 726 731 726 822 l 726 283 q 688 126 726 193 q 578 22 649 58 q 411 -14 508 -14 z "},"І":{"ha":833,"x_min":131,"x_max":703,"o":"m 131 0 l 131 143 l 335 143 l 335 871 l 131 871 l 131 1014 l 703 1014 l 703 871 l 499 871 l 499 143 l 703 143 l 703 0 l 131 0 z "},"Ї":{"ha":833,"x_min":131,"x_max":703,"o":"m 131 0 l 131 143 l 335 143 l 335 871 l 131 871 l 131 1014 l 703 1014 l 703 871 l 499 871 l 499 143 l 703 143 l 703 0 l 131 0 m 578 1125 q 506 1151 532 1125 q 479 1222 479 1178 q 506 1294 479 1268 q 578 1321 532 1321 q 649 1294 622 1321 q 676 1222 676 1268 q 649 1151 676 1178 q 578 1125 622 1125 m 256 1125 q 184 1151 211 1125 q 157 1222 157 1178 q 184 1294 157 1268 q 256 1321 211 1321 q 328 1294 301 1321 q 354 1222 354 1268 q 328 1151 354 1178 q 256 1125 301 1125 z "},"Ј":{"ha":833,"x_min":47,"x_max":703,"o":"m 375 -14 q 135 70 224 -14 q 47 297 47 154 l 208 297 q 253 173 208 218 q 375 128 297 128 q 497 172 453 128 q 542 297 542 217 l 542 864 l 304 864 l 304 1014 l 703 1014 l 703 297 q 615 69 703 153 q 375 -14 526 -14 z "},"Ћ":{"ha":833,"x_min":0,"x_max":768,"o":"m 147 0 l 147 867 l 0 867 l 0 1014 l 469 1014 l 469 867 l 308 867 l 308 565 l 329 586 q 540 688 426 688 q 705 615 643 688 q 767 422 767 543 l 768 0 l 606 0 l 606 404 q 578 512 606 475 q 500 549 551 549 q 363 475 433 549 l 308 418 l 308 0 l 147 0 z "},"Ю":{"ha":833,"x_min":71,"x_max":783,"o":"m 542 -14 q 377 56 439 -14 q 315 244 315 125 l 315 457 l 211 457 l 211 0 l 71 0 l 71 1014 l 211 1014 l 211 583 l 315 583 l 315 771 q 376 959 315 890 q 542 1028 438 1028 q 719 959 654 1028 q 783 771 783 890 l 783 244 q 719 56 783 125 q 542 -14 654 -14 m 542 114 q 618 147 592 114 q 644 238 644 179 l 644 776 q 617 867 644 835 q 542 900 590 900 q 467 867 493 900 q 440 776 440 835 l 440 238 q 467 147 440 179 q 542 114 493 114 z "},"Я":{"ha":833,"x_min":67,"x_max":719,"o":"m 67 0 l 265 432 q 128 538 178 463 q 78 715 78 614 q 118 873 78 806 q 231 977 158 940 q 401 1014 304 1014 l 719 1014 l 719 0 l 558 0 l 558 410 l 425 410 l 246 0 l 67 0 m 401 551 l 558 551 l 558 872 l 401 872 q 285 828 329 872 q 242 711 242 785 q 285 594 242 638 q 401 551 329 551 z "},"Ђ":{"ha":833,"x_min":0,"x_max":768,"o":"m 376 -250 l 376 -97 l 468 -97 q 569 -61 532 -97 q 606 38 606 -25 l 606 404 q 578 512 606 475 q 500 549 551 549 q 363 475 433 549 l 308 418 l 308 0 l 147 0 l 147 867 l 0 867 l 0 1014 l 469 1014 l 469 867 l 308 867 l 308 565 l 329 586 q 540 688 426 688 q 705 615 643 688 q 767 422 767 543 l 768 26 q 729 -118 768 -56 q 622 -215 690 -181 q 461 -250 553 -250 l 376 -250 z "},"Ү":{"ha":833,"x_min":36,"x_max":797,"o":"m 336 0 l 336 371 l 36 1014 l 204 1014 l 374 646 q 403 571 392 607 q 419 514 415 535 q 435 571 424 535 q 464 646 447 607 l 629 1014 l 797 1014 l 497 371 l 497 0 l 336 0 z "},"Ө":{"ha":833,"x_min":107,"x_max":726,"o":"m 417 -14 q 189 67 271 -14 q 107 288 107 149 l 107 728 q 189 947 107 865 q 417 1028 271 1028 q 644 947 563 1028 q 726 728 726 865 l 726 288 q 689 128 726 196 q 582 24 651 61 q 417 -14 513 -14 m 417 128 q 533 171 493 128 q 572 290 572 214 l 572 449 l 261 449 l 261 290 q 301 171 261 214 q 417 128 342 128 m 261 588 l 572 588 l 572 724 q 533 844 572 801 q 417 886 493 886 q 301 844 340 886 q 261 724 261 801 l 261 588 z "},"а":{"ha":833,"x_min":81,"x_max":725,"o":"m 336 -14 q 149 48 218 -14 q 81 217 81 110 q 155 389 81 328 q 361 450 229 450 l 563 450 l 563 518 q 525 610 563 576 q 421 643 488 643 q 322 617 361 643 q 275 547 282 592 l 117 547 q 213 715 129 653 q 425 778 297 778 q 644 708 564 778 q 725 519 725 639 l 725 0 l 567 0 l 567 136 l 540 136 l 568 169 q 504 35 568 85 q 336 -14 440 -14 m 388 108 q 513 148 464 108 q 563 249 563 188 l 563 346 l 364 346 q 275 315 308 346 q 242 231 242 283 q 281 141 242 174 q 388 108 319 108 z "},"б":{"ha":833,"x_min":107,"x_max":726,"o":"m 417 -14 q 190 68 274 -12 q 107 288 107 149 l 107 632 q 203 915 107 815 q 479 1014 300 1014 l 689 1014 l 689 856 l 479 856 q 322 798 376 856 q 268 632 268 740 l 268 539 l 288 539 l 269 514 q 323 641 269 594 q 471 688 376 688 q 659 609 592 688 q 726 392 726 531 l 726 288 q 689 126 726 194 q 583 22 651 58 q 417 -14 514 -14 m 417 128 q 527 169 489 128 q 565 288 565 211 l 565 392 q 527 510 565 469 q 417 551 489 551 q 307 511 346 551 q 268 392 268 471 l 268 288 q 307 169 268 211 q 417 128 346 128 z "},"в":{"ha":833,"x_min":113,"x_max":743,"o":"m 113 0 l 113 764 l 450 764 q 652 709 579 764 q 725 558 725 654 q 667 433 725 481 q 514 386 608 386 l 514 399 q 681 349 618 399 q 743 218 743 300 q 668 58 743 115 q 460 0 593 0 l 113 0 m 271 126 l 456 126 q 550 153 515 126 q 585 226 585 181 q 550 303 585 275 q 456 331 515 331 l 271 331 l 271 126 m 271 444 l 450 444 q 535 470 504 444 q 567 540 567 496 q 535 612 567 586 q 450 638 504 638 l 271 638 l 271 444 z "},"г":{"ha":833,"x_min":171,"x_max":735,"o":"m 171 0 l 171 764 l 735 764 l 735 614 l 333 614 l 333 0 l 171 0 z "},"ѓ":{"ha":833,"x_min":171,"x_max":735,"o":"m 171 0 l 171 764 l 735 764 l 735 614 l 333 614 l 333 0 l 171 0 m 360 896 l 506 1090 l 681 1090 l 522 896 l 360 896 z "},"ґ":{"ha":833,"x_min":171,"x_max":735,"o":"m 171 0 l 171 764 l 581 764 l 581 910 l 735 910 l 735 614 l 333 614 l 333 0 l 171 0 z "},"д":{"ha":833,"x_min":36,"x_max":793,"o":"m 36 -194 l 36 138 l 90 138 q 140 226 114 161 q 167 388 165 290 l 175 764 l 701 764 l 701 138 l 793 138 l 793 -194 l 644 -194 l 644 0 l 185 0 l 185 -194 l 36 -194 m 256 138 l 546 138 l 546 622 l 325 622 l 321 388 q 297 226 319 290 q 256 138 275 161 z "},"е":{"ha":833,"x_min":103,"x_max":731,"o":"m 417 -14 q 251 23 322 -14 q 142 127 181 60 q 103 283 103 194 l 103 481 q 142 637 103 569 q 251 741 181 704 q 417 778 322 778 q 583 741 513 778 q 692 637 653 704 q 731 481 731 569 l 731 343 l 258 343 l 258 283 q 299 158 258 201 q 418 115 340 115 q 519 138 481 115 q 567 200 557 160 l 726 200 q 624 44 708 103 q 417 -14 539 -14 m 575 438 l 575 481 q 535 606 575 563 q 417 650 496 650 q 299 606 340 650 q 258 481 258 561 l 258 449 l 586 450 l 575 438 z "}}}
